<svg width="60" height="60" viewBox="0 0 60 60" fill="none" xmlns="http://www.w3.org/2000/svg">
<path fill-rule="evenodd" clip-rule="evenodd" d="M8.18182 0H51.8182C56.3369 0 60 3.66312 60 8.18182V51.8182C60 56.3369 56.3369 60 51.8182 60H8.18182C3.66312 60 0 56.3369 0 51.8182V8.18182C0 3.66312 3.66312 0 8.18182 0Z" fill="black"/>
<path fill-rule="evenodd" clip-rule="evenodd" d="M9.06015 43.3608H10.581C13.4897 43.3608 15.3849 41.796 15.3849 38.0264C15.3849 34.8968 13.4898 33.2656 10.3826 33.2656H9.06015V43.3608ZM6.41455 45.5424V31.084H10.5586C15.4514 31.084 18.1625 33.5304 18.1625 37.8944C18.1625 43.1184 15.209 45.5424 10.4706 45.5424H6.41455Z" fill="white"/>
<path fill-rule="evenodd" clip-rule="evenodd" d="M22.9895 45.5424H20.4991V34.6992L22.9895 34.588V45.5424ZM21.7327 30.1144C22.6807 30.1144 23.2095 30.7096 23.2095 31.5464C23.2095 32.3176 22.6807 32.9568 21.7327 32.9568C20.7847 32.9568 20.2783 32.384 20.2783 31.5464C20.2783 30.7752 20.7847 30.1144 21.7327 30.1144Z" fill="white"/>
<path fill-rule="evenodd" clip-rule="evenodd" d="M31.7833 38.3136C31.7833 36.9912 31.0561 36.2856 29.6673 36.2856C28.4337 36.2856 27.5513 36.9912 27.5513 38.4672C27.5513 39.8784 28.3457 40.4728 29.6233 40.4728C30.9905 40.4728 31.7833 39.8336 31.7833 38.3136ZM29.4913 48.012C31.8713 48.012 32.7313 47.4168 32.7313 46.5568C32.7313 45.9176 32.3345 45.5648 31.2537 45.5424L27.6401 45.4328C27.2209 45.7192 27.0449 46.072 27.0449 46.5784C27.0449 47.4384 27.7945 48.012 29.4913 48.012ZM29.0289 43.4272H31.6297C33.9657 43.4272 34.9577 44.3528 34.9577 46.116C34.9577 48.188 33.2377 49.8624 29.2705 49.8624C26.1633 49.8624 24.7305 48.7608 24.7305 47.0632C24.7305 46.0272 25.3033 45.168 26.3833 44.7048V44.6392C25.8769 44.3744 25.5241 43.8232 25.5241 43.184C25.5241 42.5008 25.9425 41.8616 26.7361 41.5528V41.4872C25.7441 40.936 25.1713 40.0104 25.1713 38.6C25.1713 35.9552 26.9561 34.5224 29.7121 34.5224C30.3065 34.5224 30.8361 34.588 31.3865 34.7424H34.9137V36.396H33.2377V36.4616C33.7009 36.8152 34.0985 37.564 34.0985 38.512C34.0985 40.9144 32.4665 42.1704 29.4689 42.1704C28.9841 42.1704 28.5217 42.104 28.1025 41.9944C27.8161 42.1488 27.6401 42.4128 27.6401 42.6776C27.6401 43.1624 28.0145 43.4272 29.0289 43.4272Z" fill="white"/>
<path fill-rule="evenodd" clip-rule="evenodd" d="M39.1008 45.5424H36.6096V34.6992L39.1008 34.588V45.5424ZM37.844 30.1144C38.792 30.1144 39.3208 30.7096 39.3208 31.5464C39.3208 32.3176 38.792 32.9568 37.844 32.9568C36.8968 32.9568 36.3896 32.384 36.3896 31.5464C36.3896 30.7752 36.8968 30.1144 37.844 30.1144Z" fill="#E17000"/>
<path fill-rule="evenodd" clip-rule="evenodd" d="M44.8976 43.3608H46.4184C49.3272 43.3608 51.2224 41.796 51.2224 38.0264C51.2224 34.8968 49.3272 33.2656 46.2192 33.2656H44.8976V43.3608ZM42.252 45.5424V31.084H46.396C51.2896 31.084 54 33.5304 54 37.8944C54 43.1184 51.0464 45.5424 46.308 45.5424H42.252Z" fill="#E17000"/>
</svg>
