<svg version="1.1" id="Layer_1" xmlns="http://www.w3.org/2000/svg" xmlns:xlink="http://www.w3.org/1999/xlink" x="0px" y="0px"
	 width="100%" viewBox="0 0 297 170" enable-background="new 0 0 297 170" xml:space="preserve">
<path fill="#FEFDFE" opacity="1.000000" stroke="none" 
	d="
M166.000000,171.000000 
	C157.645767,171.000000 149.291534,171.000000 140.482422,170.573715 
	C139.921524,169.313644 139.815521,168.479874 139.631256,167.207611 
	C139.552994,158.355103 139.552994,149.941086 139.552994,141.274643 
	C137.002701,141.274643 135.186554,141.278030 133.370392,141.274139 
	C106.963821,141.217575 80.557251,141.160019 53.884804,141.003357 
	C53.430958,140.925781 53.242992,140.947571 52.722511,141.034973 
	C51.965157,141.321793 51.364445,141.848404 51.141041,141.719757 
	C44.521584,137.908020 38.932022,133.252472 38.016384,124.523209 
	C38.034649,98.712830 37.986515,73.366158 38.060379,47.664158 
	C40.971775,36.365299 46.728260,31.892561 58.116749,31.873207 
	C84.725922,31.827986 111.335121,31.798094 138.351837,31.805656 
	C138.953537,22.539671 139.147675,13.230023 139.241318,3.622003 
	C138.755554,3.161262 138.370300,2.998894 137.812958,2.676556 
	C137.279007,2.380214 137.018311,2.488282 136.538055,2.908839 
	C136.003937,2.929713 135.790527,2.882538 135.991562,2.422059 
	C136.604019,1.672503 136.802002,1.336252 137.000000,1.000000 
	C190.612778,1.000000 244.225571,1.000000 297.919189,1.000000 
	C297.919189,57.555786 297.919189,114.111725 297.919189,171.000000 
	C263.313141,171.000000 228.625229,171.000000 193.477493,170.743256 
	C193.003571,170.315857 192.989471,170.145172 193.104858,169.522919 
	C193.175247,146.384979 193.116119,123.698616 192.886856,100.601135 
	C183.831085,100.211761 174.945419,100.233505 165.739777,100.494751 
	C165.388565,122.913658 165.350250,145.093063 165.350647,167.272461 
	C165.350662,168.214462 165.709442,169.156448 165.892670,170.327484 
	C165.884247,170.556503 166.000000,171.000000 166.000000,171.000000 
M120.516541,99.185837 
	C120.667839,99.085594 120.819130,98.985344 121.647957,98.691124 
	C125.560905,90.019615 129.473862,81.348099 133.620270,72.159241 
	C107.888565,72.159241 83.014595,72.155998 58.140690,72.194901 
	C57.819115,72.195404 57.498379,72.732307 56.982342,73.491455 
	C57.020645,73.657501 57.058952,73.823547 56.920151,74.913498 
	C56.970814,82.613197 57.021481,90.312897 57.011131,98.627563 
	C57.345844,98.771332 57.680561,98.915092 58.930973,99.266739 
	C79.283806,99.194244 99.636635,99.121750 120.516541,99.185837 
M193.259277,70.067154 
	C193.259277,47.839916 193.259277,25.612677 193.259277,3.393558 
	C183.672775,3.393558 174.641251,3.393558 165.331955,3.393558 
	C165.331955,26.034622 165.328278,48.307152 165.361954,70.579628 
	C165.362549,70.969696 165.812592,71.359077 166.949493,72.016029 
	C174.363358,72.029099 181.777817,72.093353 189.190521,72.006844 
	C190.485855,71.991730 191.773773,71.342438 193.259277,70.067154 
M294.836121,169.629089 
	C294.923218,167.809799 295.085815,165.990524 295.086365,164.171219 
	C295.100372,117.769791 295.105438,71.368362 295.088776,24.966934 
	C295.086273,17.986755 294.968323,11.006619 294.607483,3.209655 
	C285.531891,3.209655 276.456329,3.209655 266.911743,3.209655 
	C266.911743,26.440361 266.911743,49.152813 266.911743,72.135765 
	C264.623444,72.135765 262.811340,72.135757 260.999237,72.135765 
	C244.352966,72.135796 227.706314,72.086533 211.061111,72.219887 
	C209.564270,72.231880 207.241425,73.028442 206.718689,74.131760 
	C202.902664,82.186157 199.449097,90.412277 195.539398,99.366783 
	C219.808334,99.366783 243.321609,99.366783 267.234833,99.366783 
	C267.234833,123.208153 267.234833,146.447647 267.234833,169.884598 
	C276.428253,169.884598 285.212799,169.884598 294.836121,169.629089 
z"/>
<path fill="#153471" opacity="1.000000" stroke="none" 
	d="
M137.944305,31.761995 
	C111.335121,31.798094 84.725922,31.827986 58.116749,31.873207 
	C46.728260,31.892561 40.971775,36.365299 37.771942,47.962914 
	C37.242073,49.262924 37.018738,49.908764 37.018200,50.554790 
	C36.998600,74.134834 36.985394,97.714928 37.038502,121.294861 
	C37.041275,122.526230 37.632637,123.756271 37.949982,124.986931 
	C38.932022,133.252472 44.521584,137.908020 51.141041,141.719757 
	C51.364445,141.848404 51.965157,141.321793 52.753029,141.152344 
	C53.116062,141.204086 53.224144,141.421234 53.374886,141.819244 
	C55.277206,142.478165 57.028343,142.962799 58.780449,142.966309 
	C83.518738,143.015884 108.257637,143.076736 132.995041,142.920517 
	C136.867432,142.896042 138.257401,143.899689 138.088226,147.929825 
	C137.782135,155.221970 138.011810,162.536575 137.551804,169.904831 
	C108.380959,170.013443 79.676094,170.059036 50.580917,170.021454 
	C49.061256,169.684235 47.939133,169.390884 46.801502,169.181992 
	C27.035606,165.552689 12.084416,149.142410 10.404549,128.737305 
	C10.442566,127.345840 10.246039,126.179008 9.948215,124.552269 
	C9.912596,98.391258 9.978277,72.690170 10.296926,46.791496 
	C10.442617,45.414749 10.335340,44.235588 10.198198,42.670387 
	C14.030821,22.790327 25.365282,10.024959 44.541698,4.572700 
	C48.154182,3.545595 52.059734,3.575899 55.798489,2.934329 
	C56.295017,2.849124 56.604107,1.671637 57.000000,1.000000 
	C60.361286,1.000000 63.722576,1.000000 67.134659,1.368289 
	C68.083160,2.165012 68.980728,2.966891 69.878578,2.967211 
	C91.778061,2.975018 113.677589,2.897535 135.577103,2.835363 
	C135.790527,2.882538 136.003937,2.929713 136.720154,2.988311 
	C137.499252,3.049416 137.753281,2.995014 137.985031,2.836527 
	C138.370300,2.998894 138.755554,3.161262 138.922058,3.904165 
	C138.450302,13.577131 138.197311,22.669563 137.944305,31.761995 
z"/>
<path fill="#FCFCFD" opacity="1.000000" stroke="none" 
	d="
M10.043959,46.989075 
	C9.978277,72.690170 9.912596,98.391258 9.881821,124.944824 
	C10.001152,126.852180 10.085579,127.907051 10.170005,128.961929 
	C12.084416,149.142410 27.035606,165.552689 46.801502,169.181992 
	C47.939133,169.390884 49.061256,169.684235 50.611916,170.244537 
	C51.033234,170.550781 51.000000,171.000000 51.000000,171.000000 
	C34.359787,171.000000 17.719572,171.000000 1.039679,171.000000 
	C1.039679,114.449745 1.039679,57.899460 1.039679,1.000000 
	C19.352751,1.000000 37.707718,1.000000 56.531342,1.000000 
	C56.604107,1.671637 56.295017,2.849124 55.798489,2.934329 
	C52.059734,3.575899 48.154182,3.545595 44.541698,4.572700 
	C25.365282,10.024959 14.030821,22.790327 10.094582,43.054024 
	C10.028538,44.878819 10.036248,45.933949 10.043959,46.989075 
z"/>
<path fill="#FCFCFD" opacity="1.000000" stroke="none" 
	d="
M135.991562,2.422059 
	C113.677589,2.897535 91.778061,2.975018 69.878578,2.967211 
	C68.980728,2.966891 68.083160,2.165012 67.592728,1.368289 
	C90.687561,1.000000 113.375122,1.000000 136.531342,1.000000 
	C136.802002,1.336252 136.604019,1.672503 135.991562,2.422059 
z"/>
<path fill="#CDD2DD" opacity="1.000000" stroke="none" 
	d="
M51.468658,171.000000 
	C51.000000,171.000000 51.033234,170.550781 51.002235,170.327698 
	C79.676094,170.059036 108.380959,170.013443 137.872803,169.905457 
	C139.009689,169.110733 139.359589,168.378403 139.709503,167.646088 
	C139.815521,168.479874 139.921524,169.313644 140.013763,170.573715 
	C110.645775,171.000000 81.291542,171.000000 51.468658,171.000000 
z"/>
<path fill="#EB79A4" opacity="1.000000" stroke="none" 
	d="
M166.468658,171.000000 
	C166.000000,171.000000 165.884247,170.556503 166.365143,170.263794 
	C175.555817,169.972214 184.265579,169.973358 192.975357,169.974503 
	C192.989471,170.145172 193.003571,170.315857 193.008835,170.743256 
	C184.312439,171.000000 175.624863,171.000000 166.468658,171.000000 
z"/>
<path fill="#DF0268" opacity="1.000000" stroke="none" 
	d="
M293.997345,169.884598 
	C285.212799,169.884598 276.428253,169.884598 267.234833,169.884598 
	C267.234833,146.447647 267.234833,123.208153 267.234833,99.366783 
	C243.321609,99.366783 219.808334,99.366783 195.539398,99.366783 
	C199.449097,90.412277 202.902664,82.186157 206.718689,74.131760 
	C207.241425,73.028442 209.564270,72.231880 211.061111,72.219887 
	C227.706314,72.086533 244.352966,72.135796 260.999237,72.135765 
	C262.811340,72.135757 264.623444,72.135765 266.911743,72.135765 
	C266.911743,49.152813 266.911743,26.440361 266.911743,3.209655 
	C276.456329,3.209655 285.531891,3.209655 294.478455,3.924748 
	C294.232971,6.453660 294.015350,8.267442 294.014709,10.081300 
	C293.995667,63.349060 293.998230,116.616829 293.997345,169.884598 
z"/>
<path fill="#DF0067" opacity="1.000000" stroke="none" 
	d="
M193.104858,169.522919 
	C184.265579,169.973358 175.555817,169.972214 166.373566,170.034760 
	C165.709442,169.156448 165.350662,168.214462 165.350647,167.272461 
	C165.350250,145.093063 165.388565,122.913658 166.068771,100.735428 
	C175.497498,100.828484 184.277237,100.920364 193.056976,101.012253 
	C193.116119,123.698616 193.175247,146.384979 193.104858,169.522919 
z"/>
<path fill="#DF0469" opacity="1.000000" stroke="none" 
	d="
M166.052902,71.748779 
	C165.812592,71.359077 165.362549,70.969696 165.361954,70.579628 
	C165.328278,48.307152 165.331955,26.034622 165.331955,3.393558 
	C174.641251,3.393558 183.672775,3.393558 193.259277,3.393558 
	C193.259277,25.612677 193.259277,47.839916 192.688889,70.530159 
	C183.429962,71.245033 174.741440,71.496910 166.052902,71.748779 
z"/>
<path fill="#153571" opacity="1.000000" stroke="none" 
	d="
M57.072147,98.012596 
	C57.021481,90.312897 56.970814,82.613197 57.245552,74.444611 
	C57.830730,73.838753 58.090508,73.701790 58.350285,73.564819 
	C57.959274,73.382828 57.568264,73.200836 57.177250,73.018845 
	C57.498379,72.732307 57.819115,72.195404 58.140690,72.194901 
	C83.014595,72.155998 107.888565,72.159241 133.620270,72.159241 
	C129.473862,81.348099 125.560905,90.019615 121.198265,98.641083 
	C120.495544,98.743782 120.242508,98.896523 119.989471,99.049255 
	C99.636635,99.121750 79.283806,99.194244 58.380329,98.935562 
	C57.657776,98.303955 57.405262,98.106697 57.072147,98.012596 
z"/>
<path fill="#00276B" opacity="1.000000" stroke="none" 
	d="
M139.631256,167.207611 
	C139.359589,168.378403 139.009689,169.110733 138.338791,169.842438 
	C138.011810,162.536575 137.782135,155.221970 138.088226,147.929825 
	C138.257401,143.899689 136.867432,142.896042 132.995041,142.920517 
	C108.257637,143.076736 83.518738,143.015884 58.780449,142.966309 
	C57.028343,142.962799 55.277206,142.478165 53.544495,141.796661 
	C53.821022,141.417877 54.016796,141.326736 54.150684,141.102692 
	C80.557251,141.160019 106.963821,141.217575 133.370392,141.274139 
	C135.186554,141.278030 137.002701,141.274643 139.552994,141.274643 
	C139.552994,149.941086 139.552994,158.355103 139.631256,167.207611 
z"/>
<path fill="#DD005C" opacity="1.000000" stroke="none" 
	d="
M294.416748,169.756836 
	C293.998230,116.616829 293.995667,63.349060 294.014709,10.081300 
	C294.015350,8.267442 294.232971,6.453660 294.626648,4.333153 
	C294.968323,11.006619 295.086273,17.986755 295.088776,24.966934 
	C295.105438,71.368362 295.100372,117.769791 295.086365,164.171219 
	C295.085815,165.990524 294.923218,167.809799 294.416748,169.756836 
z"/>
<path fill="#001965" opacity="1.000000" stroke="none" 
	d="
M38.016380,124.523209 
	C37.632637,123.756271 37.041275,122.526230 37.038502,121.294861 
	C36.985394,97.714928 36.998600,74.134834 37.018200,50.554790 
	C37.018738,49.908764 37.242073,49.262924 37.649944,48.318245 
	C37.986515,73.366158 38.034649,98.712830 38.016380,124.523209 
z"/>
<path fill="#425D8C" opacity="1.000000" stroke="none" 
	d="
M138.351837,31.805656 
	C138.197311,22.669563 138.450302,13.577131 139.022552,4.202538 
	C139.147675,13.230023 138.953537,22.539671 138.351837,31.805656 
z"/>
<path fill="#DD005B" opacity="1.000000" stroke="none" 
	d="
M166.501190,71.882401 
	C174.741440,71.496910 183.429962,71.245033 192.591812,70.989601 
	C191.773773,71.342438 190.485855,71.991730 189.190521,72.006844 
	C181.777817,72.093353 174.363358,72.029099 166.501190,71.882401 
z"/>
<path fill="#DD005B" opacity="1.000000" stroke="none" 
	d="
M192.886856,100.601135 
	C184.277237,100.920364 175.497498,100.828484 166.388763,100.495926 
	C174.945419,100.233505 183.831085,100.211761 192.886856,100.601135 
z"/>
<path fill="#002168" opacity="1.000000" stroke="none" 
	d="
M57.079796,73.255150 
	C57.568264,73.200836 57.959274,73.382828 58.350285,73.564819 
	C58.090508,73.701790 57.830730,73.838753 57.334106,73.982651 
	C57.058952,73.823547 57.020645,73.657501 57.079796,73.255150 
z"/>
<path fill="#002168" opacity="1.000000" stroke="none" 
	d="
M57.041641,98.320084 
	C57.405262,98.106697 57.657776,98.303955 57.922482,98.831619 
	C57.680561,98.915092 57.345844,98.771332 57.041641,98.320084 
z"/>
<path fill="#002168" opacity="1.000000" stroke="none" 
	d="
M120.253006,99.117554 
	C120.242508,98.896523 120.495544,98.743782 120.859497,98.738068 
	C120.819130,98.985344 120.667839,99.085594 120.253006,99.117554 
z"/>
<path fill="#FCFCFD" opacity="1.000000" stroke="none" 
	d="
M137.812958,2.676556 
	C137.753281,2.995014 137.499252,3.049416 137.040863,2.920261 
	C137.018311,2.488282 137.279007,2.380214 137.812958,2.676556 
z"/>
<path fill="#CDD2DD" opacity="1.000000" stroke="none" 
	d="
M53.884804,141.003357 
	C54.016796,141.326736 53.821022,141.417877 53.393757,141.398666 
	C53.224144,141.421234 53.116062,141.204086 53.085545,141.086716 
	C53.242992,140.947571 53.430958,140.925781 53.884804,141.003357 
z"/>
<path fill="#001C66" opacity="1.000000" stroke="none" 
	d="
M10.296927,46.791496 
	C10.036248,45.933949 10.028538,44.878819 10.124445,43.440056 
	C10.335340,44.235588 10.442617,45.414749 10.296927,46.791496 
z"/>
<path fill="#001C66" opacity="1.000000" stroke="none" 
	d="
M10.404549,128.737305 
	C10.085579,127.907051 10.001152,126.852180 9.983120,125.404739 
	C10.246039,126.179008 10.442566,127.345840 10.404549,128.737305 
z"/>
</svg>