<?xml version="1.0" encoding="UTF-8"?>
<svg xmlns="http://www.w3.org/2000/svg" xmlns:xlink="http://www.w3.org/1999/xlink" width="60px" height="42px" viewBox="0 0 59 42" version="1.1">
<g id="surface1">
<path style=" stroke:none;fill-rule:nonzero;fill:rgb(24.313725%,65.098039%,87.058824%);fill-opacity:1;" d="M 27.386719 15.449219 L 31.597656 26.84375 L 35.8125 26.84375 L 31.597656 15.449219 Z M 27.386719 15.449219 "/>
<path style=" stroke:none;fill-rule:nonzero;fill:rgb(87.843137%,12.941176%,27.45098%);fill-opacity:1;" d="M 39.769531 12.234375 C 39.769531 11.011719 40.734375 9.972656 42.132812 9.972656 C 43.527344 9.972656 44.492188 11.011719 44.492188 12.234375 C 44.492188 13.457031 43.527344 14.519531 42.132812 14.519531 C 40.734375 14.519531 39.769531 13.457031 39.769531 12.234375 Z M 39.769531 12.234375 "/>
<path style=" stroke:none;fill-rule:nonzero;fill:rgb(59.215686%,77.647059%,86.666667%);fill-opacity:1;" d="M 44.238281 15.449219 L 44.238281 26.84375 L 48.449219 15.449219 Z M 44.238281 15.449219 "/>
<path style=" stroke:none;fill-rule:nonzero;fill:rgb(87.843137%,12.941176%,27.45098%);fill-opacity:1;" d="M 44.238281 15.449219 L 40.023438 15.449219 L 40.023438 26.84375 Z M 44.238281 15.449219 "/>
<path style=" stroke:none;fill-rule:nonzero;fill:rgb(41.568627%,18.039216%,29.019608%);fill-opacity:1;" d="M 40.023438 26.84375 L 44.238281 26.84375 L 44.238281 15.449219 Z M 40.023438 26.84375 "/>
<path style=" stroke:none;fill-rule:nonzero;fill:rgb(59.215686%,77.647059%,86.666667%);fill-opacity:1;" d="M 27.386719 15.449219 L 27.386719 26.84375 L 31.601562 15.449219 Z M 27.386719 15.449219 "/>
<path style=" stroke:none;fill-rule:nonzero;fill:rgb(87.843137%,12.941176%,27.45098%);fill-opacity:1;" d="M 27.386719 15.449219 L 23.175781 15.449219 L 23.175781 26.84375 Z M 27.386719 15.449219 "/>
<path style=" stroke:none;fill-rule:nonzero;fill:rgb(41.568627%,18.039216%,29.019608%);fill-opacity:1;" d="M 23.175781 26.84375 L 27.386719 26.84375 L 27.386719 15.449219 Z M 23.175781 26.84375 "/>
<path style=" stroke:none;fill-rule:nonzero;fill:rgb(87.843137%,12.941176%,27.45098%);fill-opacity:1;" d="M 14.75 26.84375 C 14.371094 27.867188 13.832031 28.136719 12.941406 28.136719 C 12.367188 28.136719 11.910156 28.042969 11.480469 27.90625 L 11.40625 30.953125 C 12 31.113281 12.753906 31.183594 13.417969 31.183594 C 16.351562 31.183594 17.738281 30.160156 18.621094 27.765625 L 18.960938 26.84375 Z M 14.75 26.84375 "/>
<path style=" stroke:none;fill-rule:nonzero;fill:rgb(87.843137%,12.941176%,27.45098%);fill-opacity:1;" d="M 27.386719 15.449219 L 31.597656 26.84375 L 35.8125 26.84375 L 31.597656 15.449219 Z M 27.386719 15.449219 "/>
<path style=" stroke:none;fill-rule:nonzero;fill:rgb(87.843137%,12.941176%,27.45098%);fill-opacity:1;" d="M 22.921875 12.234375 C 22.921875 11.011719 23.882812 9.972656 25.28125 9.972656 C 26.679688 9.972656 27.640625 11.011719 27.640625 12.234375 C 27.640625 13.457031 26.679688 14.519531 25.28125 14.519531 C 23.882812 14.519531 22.921875 13.457031 22.921875 12.234375 Z M 22.921875 12.234375 "/>
<path style=" stroke:none;fill-rule:nonzero;fill:rgb(41.568627%,18.039216%,29.019608%);fill-opacity:1;" d="M 35.8125 15.449219 L 33.707031 21.148438 L 35.8125 26.84375 L 40.023438 15.449219 Z M 35.8125 15.449219 "/>
<path style=" stroke:none;fill-rule:nonzero;fill:rgb(41.568627%,18.039216%,29.019608%);fill-opacity:1;" d="M 18.960938 15.449219 L 16.855469 21.148438 L 18.960938 26.84375 L 23.175781 15.449219 Z M 18.960938 15.449219 "/>
<path style=" stroke:none;fill-rule:nonzero;fill:rgb(87.843137%,12.941176%,27.45098%);fill-opacity:1;" d="M 10.535156 15.449219 L 14.75 26.84375 L 18.960938 26.84375 L 14.75 15.449219 Z M 10.535156 15.449219 "/>
<path style=" stroke:none;fill-rule:nonzero;fill:rgb(41.568627%,18.039216%,29.019608%);fill-opacity:1;" d="M 14.75 15.449219 L 10.535156 15.449219 L 12.640625 21.148438 Z M 14.75 15.449219 "/>
<path style=" stroke:none;fill-rule:nonzero;fill:rgb(72.941176%,20%,32.54902%);fill-opacity:1;" d="M 31.597656 15.449219 L 27.386719 15.449219 L 29.492188 21.148438 Z M 31.597656 15.449219 "/>
<path style=" stroke:none;fill-rule:nonzero;fill:rgb(72.941176%,20%,32.54902%);fill-opacity:1;" d="M 31.597656 26.84375 L 35.8125 26.84375 L 33.707031 21.148438 Z M 31.597656 26.84375 "/>
<path style=" stroke:none;fill-rule:nonzero;fill:rgb(72.941176%,20%,32.54902%);fill-opacity:1;" d="M 14.75 26.84375 L 18.960938 26.84375 L 16.855469 21.148438 Z M 14.75 26.84375 "/>
</g>
</svg>
