<svg data-v-fde0c5aa="" xmlns="http://www.w3.org/2000/svg" viewBox="0 0 300 300" class="font"><!----><defs data-v-fde0c5aa=""><linearGradient data-v-fde0c5aa="" gradientTransform="rotate(25)" id="eac29e37-edb3-4271-ab2d-e6d02b179908" x1="0%" y1="0%" x2="100%" y2="0%"><stop data-v-fde0c5aa="" offset="0%" stop-color="#E0302F" stop-opacity="1"></stop><stop data-v-fde0c5aa="" offset="100%" stop-color="#3281DD" stop-opacity="1"></stop></linearGradient></defs><rect data-v-fde0c5aa="" fill="url(#eac29e37-edb3-4271-ab2d-e6d02b179908)" x="0" y="0" width="300px" height="300px" class="logo-background-square"></rect><defs data-v-fde0c5aa=""><!----></defs><g data-v-fde0c5aa="" id="82203eac-b0dc-497e-bd51-067c4efd07db" fill="#ffffff" transform="matrix(7.628293995700926,0,0,7.628293995700926,40,81.53606211607499)"><path d="M0 13.51L0.18 13.82L8.32 13.82L8.48 10.89L7.95 10.89C7.42 12.46 7.07 13.17 5.00 13.17L2.74 13.17C4.63 10.23 6.55 7.34 8.47 4.42L8.29 4.13L0.81 4.13L0.81 6.87L1.34 6.87C1.68 5.25 2.21 4.77 3.92 4.77L5.70 4.77C3.81 7.70 1.93 10.61 0 13.51ZM9.18 10.65L9.39 13.16C10.11 13.82 11.49 14.03 12.42 14.03C15.22 14 16.06 12.49 16.06 11.03C16.06 9.18 14.69 8.47 13.41 7.94C12.49 7.56 11.33 7.06 11.33 5.99C11.33 5.12 11.94 4.56 12.78 4.56C13.68 4.56 14.52 5.19 14.91 6.83L15.41 6.83L15.41 4.54C14.69 4.09 13.65 3.92 12.80 3.92C10.44 3.92 9.31 5.14 9.31 6.79C9.31 8.53 10.86 9.28 12.10 9.80C13.37 10.33 13.96 10.96 13.96 11.86C13.94 12.89 13.27 13.38 12.36 13.38C11.30 13.38 10.23 12.40 9.70 10.65ZM16.81 13.82L20.16 13.82L20.16 13.29L19.40 13.22C19.01 13.19 18.86 12.96 18.82 12.47C18.76 11.97 18.75 11.42 18.75 10.29L18.75 5.52L18.79 5.52L21.80 13.57L22.64 13.57L25.56 5.52L25.61 5.52L25.61 12.46C25.61 13.17 25.49 13.24 24.50 13.29L24.50 13.82L28.84 13.82L28.84 13.29C27.85 13.24 27.73 13.17 27.73 12.46L27.73 5.49C27.73 4.77 27.85 4.70 28.84 4.66L28.84 4.13L25.20 4.13C24.96 4.80 24.49 6.17 24.11 7.21L22.92 10.49L22.88 10.49L21.21 6.19C20.97 5.56 20.65 4.73 20.47 4.13L16.77 4.13L16.77 4.66C17.77 4.70 17.88 4.77 17.88 5.49L17.88 10.29C17.88 11.44 17.86 11.98 17.81 12.47C17.77 12.96 17.63 13.17 17.30 13.22L16.81 13.29Z"></path></g><!----><!----></svg>