<?xml version="1.0" encoding="UTF-8" standalone="no"?>
<!-- Generator: Adobe Illustrator 21.1.0, SVG Export Plug-In . SVG Version: 6.00 Build 0)  -->

<svg
   xmlns:dc="http://purl.org/dc/elements/1.1/"
   xmlns:cc="http://creativecommons.org/ns#"
   xmlns:rdf="http://www.w3.org/1999/02/22-rdf-syntax-ns#"
   xmlns:svg="http://www.w3.org/2000/svg"
   xmlns="http://www.w3.org/2000/svg"
   xmlns:sodipodi="http://sodipodi.sourceforge.net/DTD/sodipodi-0.dtd"
   xmlns:inkscape="http://www.inkscape.org/namespaces/inkscape"
   height="125px"
   id="Laag_1"
   style="enable-background:new 0 0 314 125;"
   version="1.1"
   viewBox="0 0 314 125"
   width="314px"
   x="0px"
   xml:space="preserve"
   y="0px"
   inkscape:version="0.91 r13725"
   sodipodi:docname="logo-dpc.svg"><metadata
     id="metadata4860"><rdf:RDF><cc:Work
         rdf:about=""><dc:format>image/svg+xml</dc:format><dc:type
           rdf:resource="http://purl.org/dc/dcmitype/StillImage" /><dc:title></dc:title></cc:Work></rdf:RDF></metadata><defs
     id="defs4858" /><sodipodi:namedview
     pagecolor="#ffffff"
     bordercolor="#666666"
     borderopacity="1"
     objecttolerance="10"
     gridtolerance="10"
     guidetolerance="10"
     inkscape:pageopacity="0"
     inkscape:pageshadow="2"
     inkscape:window-width="1920"
     inkscape:window-height="1004"
     id="namedview4856"
     showgrid="false"
     inkscape:zoom="4.1437868"
     inkscape:cx="121.15655"
     inkscape:cy="46.885149"
     inkscape:window-x="0"
     inkscape:window-y="24"
     inkscape:window-maximized="1"
     inkscape:current-layer="Laag_1" /><style
     type="text/css"
     id="style4816">
	.st0{fill:none;}
	.st1{fill:#154273;}
	.st2{fill:#FFFFFF;}
</style><g
     id="Laag_1_1_"><g
       id="g4819"><rect
         class="st0"
         height="125"
         width="314"
         id="rect4821" /><rect
         class="st1"
         height="100"
         width="50"
         id="rect4823" /></g><path
       class="st2"
       d="M25.9,77.36h-0.87v-2.41h0.87V77.36z M29.83,66.72h-0.87v-2.41h0.87V66.72z M13.71,62.56   c-0.07,0-0.52,0-0.52,0.09c0,0.09,0.21,0.05,0.52,0.1c0.7,0.12,0.97,0.47,1.46,0.47c0.44,0,0.9-0.3,0.72-0.94   c-0.03-0.11-0.09-0.08-0.11-0.01c-0.07,0.29-0.42,0.45-0.79,0.45C14.53,62.72,14.44,62.56,13.71,62.56z M8.92,64.97   c0.08,0.11,0.9,1.17-0.36,1.58c-0.06,0.02-0.07,0.07,0.01,0.11c0.93,0.39,1.38-0.33,1.38-0.33C10.42,67.41,9.7,68,9.7,68   c0.1,0.19,0.55,0.52,1.22,0.67c0.26-0.14,0.62-0.4,0.77-0.8c0,0,0.18,0.47,0.02,0.92c1.9,0.17,2.57-1.35,4.04-1.07   c0.04,0.01,0.06-0.02,0.06-0.06c0-0.94-0.57-2.65-2.39-3c-1.81-0.35-1.32-1.09-1.32-1.09c0.76-0.03,1.2,0.3,1.2,0.3   c0.14-0.23-0.06-0.47-0.06-0.47c0.07-0.09,0.11-0.4,0.11-0.4c-0.86,0-1.08-0.19-1.08-0.19c-0.13-0.51,0.22-1.23,1.5-0.46   c0.32-0.28,0.29-0.72,0.29-0.72c0.1-0.05,0.16-0.2,0.16-0.26c0-0.21-1.02-0.78-1.28-0.85c-0.06-0.31-0.46-0.75-1.66-0.59   c-0.57,0.07-0.98-0.08-0.79-0.41c0.03-0.06-0.07-0.07-0.12-0.01c-0.13,0.13-0.31,0.5,0.18,0.75c0.55,0.28,0.58,0.83,0.59,0.91   c0.01,0.12-0.13,0.13-0.16,0.01c-0.25-0.93-1.53-1.13-2.28-0.64c0.04,0.5,0.58,0.83,0.87,0.83c0.17,0,0.4-0.17,0.4-0.4   c0-0.11,0.06-0.1,0.09-0.01c0.12,0.33-0.37,1.02-1.09,0.6c-0.74,0.74-0.44,1.66-0.37,1.99c0.13,0.6-0.16,1.19-0.71,0.92   c-0.03-0.01-0.06-0.02-0.06,0.04C7.84,64.87,8.33,65.3,8.92,64.97z M13,61.24c-0.35,0.39-0.91,0.3-1.05-0.34   C12.67,60.86,12.97,60.93,13,61.24z M35.07,62.72c-0.37,0-0.72-0.16-0.79-0.45c-0.02-0.07-0.08-0.1-0.11,0.01   c-0.18,0.64,0.28,0.94,0.72,0.94c0.49,0,0.76-0.35,1.46-0.47c0.31-0.05,0.52,0,0.52-0.1c0-0.09-0.45-0.09-0.52-0.09   C35.63,62.56,35.53,62.72,35.07,62.72z M42.23,64.49c0-0.06-0.03-0.05-0.06-0.04c-0.55,0.27-0.84-0.31-0.71-0.92   c0.07-0.34,0.37-1.25-0.37-1.99c-0.73,0.42-1.22-0.27-1.09-0.6c0.03-0.09,0.09-0.1,0.09,0.01c0,0.23,0.23,0.4,0.4,0.4   c0.29,0,0.83-0.33,0.87-0.83c-0.75-0.49-2.03-0.29-2.28,0.64c-0.03,0.12-0.17,0.11-0.16-0.01c0-0.08,0.04-0.63,0.59-0.91   c0.5-0.25,0.32-0.62,0.18-0.75c-0.05-0.05-0.16-0.04-0.12,0.01c0.19,0.33-0.22,0.48-0.78,0.41c-1.2-0.16-1.59,0.29-1.66,0.59   c-0.26,0.07-1.28,0.64-1.28,0.85c0,0.06,0.06,0.22,0.16,0.26c0,0-0.02,0.43,0.29,0.72c1.27-0.77,1.63-0.05,1.5,0.46   c0,0-0.23,0.18-1.09,0.19c0,0,0.04,0.31,0.11,0.4c0,0-0.2,0.25-0.06,0.47c0,0,0.44-0.33,1.2-0.3c0,0,0.49,0.74-1.32,1.09   c-1.81,0.35-2.39,2.06-2.39,3c0,0.05,0.02,0.07,0.06,0.06c1.47-0.27,2.14,1.25,4.04,1.07c-0.17-0.45,0.02-0.92,0.02-0.92   c0.15,0.4,0.51,0.67,0.77,0.8c0.68-0.15,1.12-0.47,1.22-0.67c0,0-0.72-0.59-0.25-1.67c0,0,0.45,0.72,1.38,0.33   c0.08-0.04,0.06-0.09,0.01-0.11c-1.26-0.41-0.44-1.47-0.36-1.58C41.73,65.3,42.23,64.87,42.23,64.49z M38.11,60.9   c-0.14,0.64-0.7,0.73-1.05,0.34C37.09,60.93,37.4,60.86,38.11,60.9z M24.7,50.21c0,0.16,0.07,0.3,0.12,0.38   c0.11,0.16,0.09,0.25,0.04,0.3c-0.05,0.05-0.14,0.07-0.3-0.04c-0.08-0.06-0.22-0.12-0.38-0.12c-0.27,0-0.41,0.18-0.41,0.33   c0,0.15,0.14,0.33,0.41,0.33c0.16,0,0.3-0.07,0.38-0.12c0.16-0.11,0.25-0.09,0.3-0.04c0.05,0.05-0.02,0.6-0.09,1.04   c-0.45,0.1-0.67,0.46-0.67,0.67c0,0.55,0.58,0.86,0.93,1.05c0.34-0.18,0.93-0.5,0.93-1.05c0-0.21-0.22-0.58-0.67-0.67   c-0.06-0.43-0.14-0.99-0.09-1.04c0.05-0.05,0.14-0.07,0.3,0.04c0.08,0.06,0.22,0.12,0.38,0.12c0.27,0,0.41-0.18,0.41-0.33   c0-0.15-0.14-0.33-0.41-0.33c-0.16,0-0.3,0.07-0.38,0.12c-0.16,0.11-0.25,0.09-0.3,0.04c-0.05-0.05-0.07-0.14,0.04-0.3   c0.06-0.08,0.12-0.22,0.12-0.38c0-0.27-0.18-0.41-0.33-0.41C24.88,49.8,24.7,49.94,24.7,50.21z M25.03,54.27   c-0.37,0-0.67,0.3-0.67,0.67c0,0.37,0.3,0.67,0.67,0.67c0.37,0,0.67-0.3,0.67-0.67C25.7,54.57,25.4,54.27,25.03,54.27z    M25.03,60.68c2.67,0,4.17,0.51,4.17,0.51c0.01-1.35,0.01-2.1,0.78-1.99c-0.42-1.13,1.4-1.58,1.4-3.05c0-0.97-0.69-1.08-0.89-1.08   c-0.6,0-0.51,0.39-1.02,0.39c-0.06,0-0.13-0.02-0.13,0.03c0,0.17,0.14,0.46,0.38,0.46c0.32,0,0.32-0.32,0.56-0.32   c0.1,0,0.25,0.08,0.25,0.41c0,0.63-0.41,1.32-0.9,1.86c-0.11-0.15-0.26-0.25-0.45-0.25c-0.29,0-0.54,0.3-0.54,0.67   c0,0.14,0.02,0.24,0.07,0.35c-0.16,0.09-0.31,0.14-0.41,0.14c-0.22,0-0.55-0.09-0.55-0.57c0-1.07,1.43-2.01,1.43-3.37   c0-0.65-0.43-1.29-1.34-1.29c-0.97,0-0.79,0.88-1.63,0.88c-0.04,0-0.07,0.01-0.07,0.05c0,0.06,0.15,0.55,0.58,0.55   c0.46,0,0.59-0.8,1.01-0.8c0.15,0,0.38,0.09,0.38,0.63c0,0.42-0.21,1.11-0.51,1.76c-0.11-0.11-0.26-0.19-0.42-0.19   c-0.36,0-0.62,0.35-0.62,0.76c0,0.26,0.1,0.52,0.28,0.68c-0.21,0.27-0.43,0.49-0.72,0.49c-0.58,0-0.83-0.33-0.83-0.69   c0-0.39,0.71-0.53,0.71-1.13c0-0.41-0.27-0.64-0.52-0.64c-0.28,0-0.42,0.18-0.45,0.18c-0.03,0-0.17-0.18-0.45-0.18   c-0.26,0-0.52,0.23-0.52,0.64c0,0.6,0.71,0.75,0.71,1.13c0,0.36-0.26,0.69-0.83,0.69c-0.29,0-0.51-0.22-0.72-0.49   c0.18-0.17,0.28-0.42,0.28-0.68c0-0.42-0.26-0.76-0.62-0.76c-0.17,0-0.31,0.08-0.42,0.19c-0.3-0.66-0.51-1.34-0.51-1.76   c0-0.54,0.23-0.63,0.38-0.63c0.41,0,0.54,0.8,1.01,0.8c0.43,0,0.58-0.49,0.58-0.55c0-0.03-0.03-0.05-0.07-0.05   c-0.84,0-0.66-0.88-1.63-0.88c-0.9,0-1.34,0.64-1.34,1.29c0,1.36,1.43,2.3,1.43,3.37c0,0.48-0.33,0.57-0.55,0.57   c-0.11,0-0.25-0.05-0.41-0.14c0.05-0.12,0.07-0.21,0.07-0.35c0-0.37-0.25-0.67-0.54-0.67c-0.18,0-0.33,0.1-0.44,0.25   c-0.49-0.54-0.9-1.23-0.9-1.86c0-0.32,0.15-0.41,0.25-0.41c0.23,0,0.24,0.32,0.56,0.32c0.24,0,0.38-0.29,0.38-0.46   c0-0.05-0.07-0.03-0.13-0.03c-0.51,0-0.42-0.39-1.02-0.39c-0.2,0-0.89,0.11-0.89,1.08c0,1.48,1.82,1.92,1.4,3.05   c0.77-0.11,0.76,0.64,0.78,1.99C20.86,61.19,22.36,60.68,25.03,60.68z M20.14,62.67c-0.73,0.16-1.25,0.31-1.48,0.38   c0.01-0.32,0.13-0.62,0.42-0.68c0.04-0.01,0.05-0.06,0.01-0.08c-0.65-0.43-0.99,0.39-1,0.42c-0.23-0.02-0.58,0.05-0.58,0.36   c0,0.93-2.12,1.44-2.61,1.52c0.87,0.33,1.23,1.43,1.23,1.43c0.63-0.63,1.36-1.18,1.53-1.18c0.17,0,0.23,0.21,0.24,0.33   c0,0.04,0.04,0.05,0.07,0.02c0.33-0.49,0.17-0.6,0.14-0.75c-0.02-0.11,0.01-0.54,0.49-0.49v6.19l-0.25,0.05   c-0.11,0.02-1.02-0.75-2.05-1.47c-1.04-0.72-1.59-0.29-2.77,0.35c-1.55,0.84-3.11,0.08-3.11,0.08c-1.33,0.95-1.79,3.71-1.79,3.71   c-0.27,0.11-0.71,0.23-1.12,0.23c-1.02,0-1.2-0.62-1.2-0.98c0-1.57,1.97-2.24,1.97-3.79c0-0.38-0.17-1.9-2.06-1.9   c-0.24,0-1.68,0-1.69,0c-0.71,0-0.88-0.51-0.98-0.7c-0.04-0.08-0.11-0.03-0.08,0.03c0.05,0.13-0.08,0.33-0.08,0.72   c0,0.63,0.37,1.01,1.06,1.01c0.31,0,0.61-0.09,0.7-0.15c0.06-0.04,0.1,0.02,0.07,0.06c-0.3,0.35-0.32,1.01-0.2,1.16   c0.03,0.04,0.07,0.03,0.07,0c0.17-0.66,0.79-1.29,1.63-1.29c1.03,0,1.02,0.87,1.02,1.08c0,1.26-2.21,2.18-2.21,3.92   c0,1.76,1.86,2.13,2.93,1.86c-0.06,1.76-2.08,2.36-2.14,1.1c0-0.06-0.05-0.07-0.08,0.01c-0.25,0.62-0.15,1.17,0.63,1.34   c0.05,0.01,0.03,0.04-0.02,0.08c-0.78,0.49-0.36,2.43-0.32,3c0.06,0.82-0.76,0.72-0.83,0.7c-0.03-0.01-0.07,0-0.01,0.07   c0.58,0.71,1.3,0.06,1.3,0.06c0.54,0.17,0.21,0.63-0.16,0.87c-0.06,0.04-0.05,0.08,0.01,0.08c0.08,0.01,0.92,0.08,1.07-0.59   c0.37,0.44,0.92,0.28,1.03,0.22c0.16-0.08,0.95-0.37,1.02,0.51c0,0.06,0.04,0.02,0.07-0.01c0.59-0.75-0.04-1.21-0.4-1.26   c0.03-0.04,0.5-0.44,0.93,0.11c0.03,0.04,0.06,0.05,0.06-0.03c0.05-0.95-0.72-1.03-1.22-0.62c-0.02-0.1-0.19-0.63,0.56-0.61   c0.02,0,0.05-0.03,0.02-0.06c-0.58-0.62-1.06-0.06-1.18,0.08c-0.26,0.31-0.91,0.18-0.97,0.18c0.2-3.29,3.1-2.12,3.5-3.72   c0.02-0.08,0.06-0.05,0.06-0.02c0.11,0.39,1.09,0.44,1.27-0.32c0.01-0.05,0-0.08-0.03-0.05c-0.84,0.84-2.73-1.78-0.15-3.91   c2.2-1.81,4.17-0.8,4.92-0.21c0.04,0.26-0.12,0.35-0.22,0.38c-0.04,0.01-0.05,0.04,0.01,0.07c0.21,0.08,0.5,0.05,0.64-0.14   c0.47,0.33,0.07,0.75-0.12,0.86c-0.05,0.03-0.03,0.06,0.01,0.07c0.43,0.08,0.79-0.36,0.81-0.62l0.07,0.04v1.87   c0,2.66,3.07,3.03,6.44,5.28c3.37-2.26,6.43-2.62,6.43-5.28v-1.87l0.07-0.04c0.02,0.25,0.37,0.7,0.81,0.62   c0.04-0.01,0.06-0.04,0.01-0.07c-0.19-0.12-0.6-0.53-0.12-0.86c0.14,0.2,0.43,0.22,0.64,0.14c0.06-0.02,0.05-0.06,0.01-0.07   c-0.1-0.03-0.26-0.12-0.22-0.38c0.75-0.6,2.72-1.61,4.92,0.21c2.58,2.13,0.69,4.74-0.15,3.91c-0.04-0.04-0.04,0-0.03,0.05   c0.18,0.77,1.16,0.71,1.27,0.32c0.01-0.03,0.05-0.06,0.06,0.02c0.4,1.6,3.29,0.43,3.5,3.72c-0.06,0.01-0.71,0.13-0.97-0.18   c-0.11-0.13-0.59-0.7-1.18-0.08c-0.04,0.04,0,0.06,0.02,0.06c0.75-0.02,0.59,0.51,0.56,0.61c-0.5-0.41-1.27-0.33-1.22,0.62   c0,0.07,0.03,0.07,0.06,0.03c0.43-0.55,0.9-0.15,0.93-0.11c-0.35,0.05-0.99,0.51-0.4,1.26c0.03,0.03,0.06,0.07,0.07,0.01   c0.08-0.88,0.86-0.6,1.02-0.51c0.11,0.06,0.66,0.22,1.03-0.22c0.15,0.67,0.99,0.6,1.07,0.59c0.06,0,0.06-0.04,0.01-0.08   c-0.36-0.24-0.7-0.7-0.16-0.87c0,0,0.72,0.65,1.3-0.06c0.05-0.06,0.02-0.08-0.01-0.07c-0.07,0.02-0.89,0.12-0.83-0.7   c0.04-0.57,0.46-2.51-0.32-3c-0.05-0.03-0.07-0.06-0.02-0.08c0.78-0.17,0.88-0.72,0.63-1.34c-0.03-0.08-0.08-0.06-0.08-0.01   c-0.06,1.26-2.07,0.66-2.14-1.1c1.08,0.28,2.93-0.1,2.93-1.86c0-1.73-2.21-2.66-2.21-3.92c0-0.21-0.01-1.08,1.02-1.08   c0.84,0,1.46,0.63,1.63,1.29c0.01,0.03,0.04,0.04,0.07,0c0.12-0.16,0.1-0.81-0.2-1.16c-0.03-0.03,0-0.1,0.07-0.06   c0.09,0.06,0.39,0.15,0.7,0.15c0.69,0,1.06-0.38,1.06-1.01c0-0.39-0.14-0.59-0.08-0.72c0.03-0.06-0.05-0.1-0.08-0.03   c-0.1,0.2-0.28,0.7-0.98,0.7c-0.01,0-1.45,0-1.69,0c-1.89,0-2.06,1.53-2.06,1.9c0,1.55,1.97,2.22,1.97,3.79   c0,0.37-0.19,0.98-1.2,0.98c-0.42,0-0.86-0.12-1.12-0.23c0,0-0.45-2.75-1.79-3.71c0,0-1.56,0.76-3.11-0.08   c-1.18-0.64-1.74-1.07-2.78-0.35c-1.04,0.72-1.94,1.49-2.05,1.47l-0.25-0.05v-6.19c0.48-0.05,0.51,0.38,0.49,0.49   c-0.03,0.14-0.18,0.26,0.14,0.75c0.03,0.04,0.06,0.02,0.07-0.02c0.01-0.12,0.08-0.33,0.24-0.33c0.16,0,0.9,0.55,1.53,1.18   c0,0,0.36-1.09,1.23-1.43c-0.49-0.08-2.61-0.59-2.61-1.52c0-0.31-0.35-0.38-0.58-0.36c-0.01-0.03-0.36-0.85-1-0.42   c-0.03,0.02-0.03,0.07,0.01,0.08c0.29,0.07,0.41,0.36,0.42,0.68c-0.62-0.19-3.25-0.93-6.37-0.93c-1.52,0-2.91,0.18-4.02,0.38v2.14   h-0.87V62.67L20.14,62.67 M14.38,84.65C14.15,84.56,14,84.41,14,84.1v-1.33c-0.38-0.13-1.42-0.53-3.51-0.53   c-1.73,0-2.27,0.39-2.3,0.53L7.73,85.3c0,0,0.7-0.64,3.21-0.48c3.02,0.19,6.15,1.98,6.15,0.07v-1.12   C14.73,83.78,14.38,84.54,14.38,84.65z M32.97,83.78v1.12c0,1.9,3.13,0.12,6.15-0.07c2.51-0.16,3.21,0.48,3.21,0.48l-0.46-2.54   c-0.02-0.14-0.57-0.53-2.3-0.53c-2.08,0-3.12,0.4-3.51,0.53v1.33c0,0.3-0.15,0.45-0.38,0.55C35.69,84.54,35.34,83.78,32.97,83.78z    M25.03,82.63c4.87,0,9.81,0.25,10.45,0.99c0.05,0.06,0.07,0,0.07-0.05l0-2.58c0-0.75-5.1-1.19-10.53-1.19   c-5.43,0-10.53,0.44-10.53,1.19l0,2.58c0,0.04,0.02,0.1,0.07,0.05C15.23,82.89,20.17,82.63,25.03,82.63z M20.69,70.47l-0.49-0.13   l-0.04,0.06l-0.57-0.25c0,0,0.42,0,0.51,0c0.05,0,0.05-0.03,0.03-0.05c-0.23-0.23-0.44-0.43-0.44-0.43s0.23,0.09,0.56,0.21   c0.04,0.01,0.05-0.01,0.03-0.04c-0.16-0.23-0.38-0.55-0.38-0.55s0.46,0.31,0.55,0.37c0.03,0.02,0.05,0,0.04-0.03   c-0.12-0.3-0.26-0.65-0.26-0.65l0.5,0.48c0.02,0.02,0.05,0.01,0.04-0.02c-0.05-0.23-0.14-0.65-0.14-0.65l0.37,0.54   c0.02,0.03,0.05,0.02,0.05-0.01c0-0.11,0.01-0.59,0.01-0.59s0.16,0.36,0.23,0.54c0.02,0.04,0.04,0.04,0.06-0.01   c0.02-0.06,0.19-0.46,0.19-0.46l0.02,0.62l-0.08,0.02l-0.1,0.74c0.73-0.17,1.65-1.43,2.35-1.43c0.84,0,1.14,0.98,2.68,0.48   c0.39,0.58,0.53,1.08,0.68,1.77c0.6,0.56,1.43,0.37,1.43-0.22c0-0.8-0.87-0.95-0.87-1.79c0-0.37,0.26-0.91,0.97-0.91   c0.38,0,0.93,0.16,1.25,0.16c0.38,0,0.46-0.27,0.5-0.39c0.03-0.08,0.14-0.06,0.13,0.01c-0.01,0.08,0.04,0.19,0.04,0.37   c0,0.53-0.77,0.6-0.86,0.53c-0.04-0.03-0.07,0.01-0.04,0.04c0.12,0.09,0.09,0.41-0.05,0.61c-0.02,0.02-0.04,0.02-0.04,0   c-0.08-0.38-0.53-0.85-0.92-0.85c-0.14,0-0.43,0.08-0.43,0.42c0,0.47,0.95,0.91,0.95,1.89c0,1.02-1.01,1.27-2.03,1.01   c0.03,0.97,1.48,1.54,1.51,0.85c0-0.05,0.03-0.02,0.04,0c0.21,0.3,0.12,0.52-0.16,0.64c0.25,0.11,0.3,0.62,0.37,0.93   c0.11,0.46,0.59,0.2,0.62,0.19c0.03-0.02,0.04,0,0.02,0.03c-0.18,0.47-0.67,0.29-0.67,0.29c-0.25,0.18,0.05,0.34,0.28,0.41   c0.03,0.01,0.03,0.03,0.01,0.05c-0.17,0.06-0.53,0.18-0.71-0.13c-0.13,0.32-0.4,0.31-0.5,0.31c-0.19,0-0.31,0.19-0.27,0.45   c0,0.02-0.01,0.03-0.03,0.02c-0.44-0.29-0.19-0.64-0.01-0.73c-0.03-0.02-0.34-0.15-0.47,0.21c-0.01,0.03-0.03,0.03-0.04,0   c-0.19-0.52,0.23-0.67,0.53-0.54c-0.02-0.07-0.18-0.33-0.58-0.24c-0.02,0.01-0.03,0-0.02-0.03c0.07-0.16,0.26-0.39,0.63-0.16   c0.19,0.12,0.51-0.05,0.54-0.07c-0.65-1.29-1.9-0.21-2.19-1.22c-0.01-0.02-0.03-0.04-0.05,0.02c-0.07,0.21-0.62,0.23-0.72-0.19   c-0.01-0.03,0-0.04,0.03-0.02c0.08,0.08,0.25,0.15,0.48-0.17c0.15-0.22,0.17-0.51,0.17-0.7c0-0.78-0.78-2.1-2-2.1   c-0.77,0-1.6,0.3-2.22,0.75l0.57,0.13c-0.05,0.58-0.61,0.92-1.12,0.77l0.09-0.66c-0.09,0.03-0.31,0.11-0.43,0.28   c-0.01,0.01-0.03,0.01-0.03-0.01c-0.1-0.38,0.21-0.57,0.3-0.61c0.01-0.01,0.01-0.01-0.01-0.01c-0.28-0.01-0.43,0.19-0.48,0.26   c-0.01,0.01-0.02,0.01-0.02,0C20.61,70.8,20.56,70.61,20.69,70.47z M22.4,74.95c-0.22,0.27-0.41,0.01-0.7,0.01   c-0.27,0-0.32,0.23-0.32,0.32c0,0.02-0.01,0.02-0.02,0.01c-0.31-0.42,0.04-0.65,0.24-0.68c-0.03-0.03-0.33-0.23-0.52,0.05   c-0.01,0.02-0.03,0.01-0.03-0.01c-0.01-0.52,0.4-0.56,0.68-0.33c0.05-0.2-0.08-0.33-0.3-0.34c-0.03,0-0.03-0.02-0.02-0.03   c0.09-0.1,0.18-0.14,0.27-0.14c0.29,0,0.33,0.37,0.52,0.37c0.28,0,0.69-0.38,0.72-0.42c-0.01-0.02-0.28-0.76-0.23-1.2   c0-0.02-0.01-0.02-0.02-0.01c-0.14,0.08-0.48,0.07-0.48-0.35c0-0.03,0.01-0.04,0.03-0.01c0.15,0.21,0.4-0.03,0.52-0.17   c0.13-0.15,0.85-1.19,1.8-1.19c0.21,0,0.48,0.12,0.7,0.27c-0.33,0.4,0,0.78,0.24,0.73c0.03-0.01,0.03,0.02,0.01,0.03   c-1.26,0.47-1.82,0.66-1.82,1.72c0,0.55,0.19,0.86,0.51,0.78c0.02-0.01,0.03,0,0.01,0.02c-0.12,0.14-0.25,0.19-0.36,0.19   c-0.26,0-0.31-0.14-0.45-0.14c-0.14,0-0.61,0.28-0.61,0.51c0,0.09,0.06,0.21,0.22,0.31c0.01,0.01,0,0.02,0,0.02   C22.85,75.27,22.48,75.3,22.4,74.95z M25.71,64.7c-0.39-0.02-0.65,0.06-0.63,0.19C25.27,65.09,25.52,65.07,25.71,64.7z    M24.26,65.67c0.28-0.07,0.58-0.04,0.62-0.03c0.04,0.01,0.04,0.08-0.01,0.09c-0.58,0.07-0.61,0.34-0.98,0.34   c-0.24,0-0.51-0.25-0.41-0.61c0.01-0.05,0.05-0.05,0.06,0C23.58,65.62,23.81,65.79,24.26,65.67z M16.73,78.53   c0.38,0.49,0.75,0.03,1.26,0.03c0.25,0,0.55,0.08,0.6,0.58c0,0.03,0.02,0.03,0.05,0c0.55-0.75-0.08-1.17-0.44-1.23   c0.08-0.07,0.61-0.4,0.96,0.09c0.02,0.03,0.06,0.02,0.06-0.02c0-0.95-0.71-1.02-1.23-0.61c-0.1-0.37,0.18-0.61,0.54-0.61   c0.04,0,0.06-0.03,0.04-0.05c-0.64-0.68-1.11,0.18-1.22,0.31c-0.25,0.34-1.16-0.3-1.53-0.68c0,0,0.8-0.84,0.8-1.61   c0-0.05-0.01-0.11-0.01-0.14c0-0.02,0.01-0.03,0.03-0.02c0.08,0.05,0.19,0.08,0.3,0.08c0.18,0,0.53-0.06,0.53-0.71   c0-0.05-0.02-0.05-0.04-0.02c-0.1,0.14-0.2,0.17-0.28,0.17c-0.65,0-2-2.16-3.6-2.16c-0.42,0-1.21,0.3-1.6,0.73   c0.19,0.11,0.23,0.35,0.21,0.52c-0.03,0.27-0.25,0.41-0.47,0.47c-0.04,0.01-0.04,0.04,0,0.06c0.81,0.31,2.27,0.86,2.61,1.15   c0.39,0.34,0.32,0.98,0.09,1.87c-0.22,0.85-0.69,0.74-0.87,0.71c-0.03,0-0.03,0.01-0.02,0.03c0.21,0.26,0.46,0.35,0.68,0.35   c0.42,0,0.58-0.26,0.79-0.26c0.36,0,1.13,0.52,1.13,0.92c0,0.22-0.17,0.43-0.4,0.57c-0.01,0.01-0.01,0.03,0.01,0.03   C15.88,79.11,16.59,79.17,16.73,78.53z M34.36,79.08c0.02,0,0.03-0.02,0.01-0.03c-0.22-0.15-0.4-0.35-0.4-0.57   c0-0.4,0.76-0.92,1.13-0.92c0.22,0,0.37,0.26,0.79,0.26c0.22,0,0.47-0.09,0.68-0.35c0.02-0.02,0.01-0.04-0.02-0.03   c-0.17,0.03-0.65,0.14-0.87-0.71c-0.23-0.89-0.31-1.53,0.09-1.87c0.33-0.29,1.8-0.84,2.61-1.15c0.04-0.02,0.04-0.05,0-0.06   c-0.22-0.06-0.44-0.2-0.47-0.47c-0.02-0.17,0.02-0.4,0.21-0.52c-0.4-0.43-1.19-0.73-1.61-0.73c-1.6,0-2.95,2.16-3.6,2.16   c-0.08,0-0.19-0.03-0.28-0.17c-0.02-0.03-0.04-0.03-0.04,0.02c0,0.65,0.35,0.71,0.53,0.71c0.1,0,0.22-0.03,0.3-0.08   c0.02-0.01,0.03,0,0.03,0.02c0,0.03-0.01,0.09-0.01,0.14c0,0.77,0.8,1.61,0.8,1.61c-0.36,0.38-1.27,1.01-1.53,0.68   c-0.11-0.14-0.58-0.99-1.22-0.31c-0.02,0.03-0.01,0.05,0.04,0.05c0.36,0,0.64,0.24,0.54,0.61c-0.52-0.41-1.23-0.34-1.23,0.61   c0,0.04,0.04,0.05,0.06,0.02c0.34-0.49,0.88-0.16,0.95-0.09c-0.36,0.05-0.98,0.48-0.44,1.23c0.02,0.03,0.04,0.03,0.05,0   c0.06-0.49,0.36-0.58,0.6-0.58c0.5,0,0.87,0.46,1.26-0.03C33.48,79.17,34.19,79.11,34.36,79.08z M21.45,66.61   c-0.05,0.07-0.22,0-0.28-0.03c-0.01-0.01-0.02,0-0.01,0.01c0.04,0.09,0.2,0.36,0.44,0.36c0.11,0,0.27-0.06,0.31-0.14   c0,0,0.94,0.31,1.4,0.43c-0.18,0.24-0.29,0.53-0.32,0.84c-0.37-0.23-1.87-1.03-1.87-1.03l-0.46,0.64c-0.08,0.1-0.45-0.17-0.37-0.27   l0.35-0.49c-0.12-0.12-0.4-0.05-0.48-0.02c-0.01,0-0.02,0-0.01-0.02c0.05-0.1,0.22-0.39,0.66-0.26c0-0.27-0.4-0.18-0.51-0.15   c-0.01,0-0.02,0-0.01-0.01c0.11-0.12,0.44-0.38,0.8-0.16l0.16-0.22l-0.32-0.34l0.2-0.28l0.23,0.3l1.73-2.37   c0.04-0.06,0.39-0.16,0.51-0.19c0.01,0.13,0.03,0.49-0.01,0.55l-1.7,2.39l0.36,0.12l-0.2,0.28l-0.42-0.2L21.45,66.61z M27.52,66.22   c0,0.22,0.13,0.54,0.42,0.44c0.01-0.01,0.03,0,0.02,0.01c-0.04,0.24-0.48,0.46-0.67,0.18c-0.18,0.37-0.13,0.72,0.24,0.92   c0.02,0.01,0.02,0.04,0,0.06c-0.23,0.16-0.58,0.13-0.74-0.19c-0.31,0.23-0.27,0.73-0.08,0.9c0,0-0.86,0.51-1.64,0.15   c-0.52-0.25-0.94-0.57-1.61-0.51c0.09-0.94,0.56-1.18,1.42-1.32c0.69-0.11,0.77-0.43,0.68-0.67c-0.23-0.06-0.66,0.15-0.66,0.15   c-0.08-0.13,0.03-0.26,0.03-0.26c-0.04-0.05-0.06-0.22-0.06-0.22c0.48,0,0.57-0.11,0.57-0.11c0.09-0.5-0.42-0.55-0.81-0.28   c-0.18-0.16-0.15-0.37-0.15-0.37c-0.05-0.03-0.09-0.11-0.09-0.15c0-0.12,0.57-0.44,0.72-0.48c0.04-0.17,0.24-0.4,0.85-0.34   c0.07-0.16-0.05-0.75-0.12-0.9c-0.02-0.05,0.01-0.07,0.06-0.04c0.21,0.13,0.42,0.63,0.57,0.64c0,0,0.68-0.36,0.71-0.34   c0.03,0.02,0.13,0.78,0.13,0.78c0.09,0.11,0.62,0,0.85,0.1c0.06,0.03,0.06,0.07,0,0.08c-0.17,0.03-0.72,0.27-0.81,0.42   C27.67,65.34,27.52,66.03,27.52,66.22z"
       id="path4825" /></g><g
     inkscape:groupmode="layer"
     id="layer1"
     inkscape:label="Layer 1"
     style="display:inline"><g
       transform="matrix(1.1076524,0,0,1.1076524,1.9087965,13.883355)"
       id="g5551"><path
         inkscape:connector-curvature="0"
         d="m 61.47,42.66 c -0.12,0.43 -0.3,0.82 -0.52,1.18 -0.22,0.36 -0.48,0.67 -0.78,0.96 -0.32,0.27 -0.65,0.51 -1.02,0.7 -0.37,0.19 -0.77,0.34 -1.2,0.44 -0.43,0.1 -0.85,0.15 -1.3,0.15 -0.27,0 -0.52,0 -0.73,0 -0.22,-0.01 -0.43,-0.01 -0.62,-0.03 -0.19,0 -0.38,-0.01 -0.56,-0.04 -0.19,-0.01 -0.4,-0.04 -0.6,-0.07 l 0,-0.26 c 0.25,-0.07 0.44,-0.18 0.58,-0.34 0.15,-0.15 0.22,-0.38 0.22,-0.7 l 0,-6.73 -0.87,-0.29 0,-0.3 c 0.22,-0.04 0.44,-0.07 0.66,-0.1 0.21,-0.03 0.43,-0.04 0.65,-0.06 0.22,-0.02 0.45,-0.03 0.7,-0.03 0.25,-0.01 0.51,-0.01 0.78,-0.01 0.73,0 1.37,0.1 1.96,0.27 0.59,0.18 1.1,0.44 1.51,0.8 0.43,0.34 0.74,0.77 0.98,1.28 0.23,0.51 0.34,1.1 0.34,1.76 0,0.51 -0.06,0.98 -0.18,1.42 z m -1.41,-2.69 c -0.19,-0.44 -0.43,-0.81 -0.74,-1.11 -0.32,-0.3 -0.69,-0.54 -1.11,-0.69 -0.43,-0.15 -0.88,-0.23 -1.37,-0.23 -0.23,0 -0.47,0.01 -0.71,0.04 l 0,7.25 c 0.12,0.01 0.23,0.03 0.34,0.04 0.11,0.01 0.22,0.01 0.33,0.01 0.48,0 0.93,-0.08 1.37,-0.25 0.43,-0.16 0.8,-0.41 1.11,-0.74 0.33,-0.32 0.58,-0.71 0.77,-1.2 0.18,-0.47 0.27,-1.02 0.27,-1.62 0,-0.57 -0.08,-1.06 -0.26,-1.5 z"
         id="path5553" /><path
         inkscape:connector-curvature="0"
         d="m 65.09,45.95 c -0.12,0.03 -0.23,0.06 -0.37,0.07 -0.12,0.01 -0.26,0.03 -0.4,0.04 -0.15,0 -0.3,0.01 -0.48,0.01 -0.15,0 -0.33,-0.01 -0.51,-0.03 -0.19,-0.01 -0.37,-0.04 -0.52,-0.1 l 0,-0.23 c 0.1,-0.03 0.18,-0.07 0.27,-0.12 0.08,-0.05 0.17,-0.11 0.23,-0.18 0.07,-0.05 0.12,-0.12 0.17,-0.21 0.04,-0.07 0.05,-0.15 0.05,-0.23 l 0,-4.64 -0.88,-0.37 0,-0.29 c 0.32,-0.1 0.62,-0.15 0.91,-0.19 0.29,-0.06 0.54,-0.07 0.73,-0.07 l 0.44,0 -0.07,0.74 0,5.22 0.77,0.21 0,0.26 c -0.12,0.05 -0.23,0.09 -0.34,0.11 z m -0.26,-8.31 c -0.04,0.1 -0.1,0.19 -0.16,0.26 -0.07,0.08 -0.15,0.14 -0.25,0.18 -0.1,0.05 -0.19,0.07 -0.3,0.07 -0.1,0 -0.19,-0.01 -0.29,-0.05 -0.08,-0.04 -0.17,-0.1 -0.23,-0.17 -0.06,-0.07 -0.11,-0.15 -0.15,-0.25 -0.04,-0.1 -0.06,-0.21 -0.06,-0.32 0,-0.11 0.01,-0.21 0.06,-0.3 0.03,-0.1 0.08,-0.18 0.15,-0.26 0.07,-0.08 0.15,-0.14 0.25,-0.18 0.1,-0.04 0.21,-0.07 0.33,-0.07 0.1,0 0.19,0.01 0.28,0.05 0.08,0.03 0.16,0.08 0.23,0.15 0.07,0.05 0.11,0.14 0.15,0.23 0.04,0.08 0.06,0.19 0.06,0.3 -0.01,0.14 -0.03,0.25 -0.07,0.36 z"
         id="path5555" /><path
         inkscape:connector-curvature="0"
         d="m 71.59,42.77 -4.05,0 c 0,0.38 0.05,0.73 0.15,1.03 0.11,0.3 0.26,0.55 0.44,0.76 0.18,0.21 0.4,0.37 0.65,0.48 0.25,0.11 0.51,0.16 0.8,0.16 0.17,0 0.33,-0.01 0.51,-0.04 0.18,-0.03 0.34,-0.07 0.51,-0.12 0.18,-0.04 0.33,-0.11 0.49,-0.18 0.15,-0.08 0.3,-0.17 0.43,-0.25 0.01,0.03 0.03,0.08 0.04,0.15 0.01,0.07 0.01,0.14 0.01,0.21 0,0.17 -0.06,0.32 -0.17,0.45 -0.11,0.14 -0.26,0.27 -0.47,0.38 -0.21,0.11 -0.45,0.19 -0.74,0.26 -0.3,0.07 -0.63,0.1 -0.99,0.1 -0.4,0 -0.76,-0.07 -1.1,-0.22 -0.36,-0.15 -0.65,-0.36 -0.91,-0.63 -0.26,-0.28 -0.47,-0.61 -0.62,-0.99 -0.14,-0.38 -0.22,-0.82 -0.22,-1.3 0,-0.59 0.08,-1.13 0.25,-1.6 0.16,-0.45 0.38,-0.84 0.66,-1.15 0.26,-0.3 0.56,-0.55 0.91,-0.7 0.34,-0.16 0.7,-0.25 1.06,-0.25 0.37,0 0.7,0.06 1,0.18 0.29,0.12 0.54,0.29 0.74,0.51 0.21,0.23 0.36,0.5 0.47,0.81 0.11,0.33 0.16,0.67 0.16,1.07 0,0.14 0,0.26 0,0.41 0,0.14 0,0.3 -0.01,0.47 z m -1.2,-1.6 C 70.32,40.92 70.22,40.72 70.1,40.55 69.98,40.39 69.84,40.26 69.66,40.18 69.49,40.1 69.3,40.06 69.11,40.06 c -0.19,0 -0.37,0.06 -0.56,0.17 -0.19,0.1 -0.36,0.25 -0.49,0.43 -0.15,0.18 -0.26,0.4 -0.36,0.63 -0.1,0.25 -0.14,0.49 -0.14,0.77 l 2.94,0 c 0,-0.35 -0.04,-0.64 -0.11,-0.89 z"
         id="path5557" /><path
         inkscape:connector-curvature="0"
         d="m 77.73,46.08 c -0.14,0 -0.29,-0.01 -0.45,-0.03 -0.15,-0.01 -0.3,-0.04 -0.44,-0.1 l 0,-0.23 c 0.18,-0.08 0.3,-0.18 0.37,-0.33 0.08,-0.14 0.12,-0.33 0.12,-0.58 l 0,-2.62 c 0,-0.33 -0.04,-0.62 -0.1,-0.85 -0.07,-0.25 -0.17,-0.44 -0.29,-0.58 -0.12,-0.15 -0.26,-0.26 -0.43,-0.33 -0.18,-0.07 -0.36,-0.1 -0.56,-0.1 -0.27,0 -0.55,0.04 -0.8,0.12 -0.26,0.08 -0.47,0.19 -0.62,0.3 l 0,4.62 0.77,0.21 0,0.26 c -0.12,0.04 -0.23,0.08 -0.34,0.11 -0.12,0.03 -0.25,0.06 -0.37,0.07 -0.12,0.01 -0.26,0.03 -0.41,0.04 -0.14,0 -0.29,0.01 -0.47,0.01 -0.17,0 -0.34,-0.01 -0.52,-0.03 -0.18,-0.01 -0.36,-0.04 -0.51,-0.1 l 0,-0.23 c 0.1,-0.03 0.18,-0.07 0.26,-0.12 0.1,-0.05 0.17,-0.11 0.23,-0.18 0.07,-0.05 0.12,-0.12 0.18,-0.21 0.04,-0.07 0.05,-0.15 0.05,-0.23 l 0,-4.64 -0.89,-0.37 0,-0.3 c 0.32,-0.1 0.62,-0.15 0.91,-0.19 0.29,-0.04 0.54,-0.06 0.74,-0.06 l 0.33,0 0,0.74 c 0.23,-0.23 0.54,-0.43 0.89,-0.56 0.36,-0.14 0.74,-0.21 1.14,-0.21 0.29,0 0.55,0.04 0.78,0.14 0.23,0.1 0.44,0.23 0.6,0.41 0.17,0.18 0.3,0.4 0.4,0.66 0.08,0.28 0.14,0.59 0.14,0.93 l 0,3.85 0.71,0.21 0,0.26 C 78.78,46 78.3,46.08 77.73,46.08 Z"
         id="path5559" /><path
         inkscape:connector-curvature="0"
         d="m 84.15,44.91 c -0.12,0.23 -0.3,0.45 -0.52,0.63 -0.22,0.19 -0.49,0.34 -0.81,0.45 -0.3,0.11 -0.66,0.16 -1.04,0.16 -0.6,0 -1.04,-0.1 -1.32,-0.29 -0.29,-0.18 -0.43,-0.47 -0.43,-0.84 0,-0.1 0.01,-0.19 0.03,-0.3 0.03,-0.1 0.05,-0.18 0.1,-0.26 0.3,0.29 0.62,0.51 0.92,0.65 0.32,0.15 0.65,0.22 1.02,0.22 0.38,0 0.67,-0.08 0.88,-0.25 0.19,-0.16 0.29,-0.36 0.29,-0.6 0,-0.12 -0.01,-0.23 -0.05,-0.33 -0.04,-0.1 -0.11,-0.19 -0.19,-0.29 -0.1,-0.1 -0.22,-0.18 -0.37,-0.28 C 82.52,43.5 82.33,43.4 82.1,43.3 l -0.69,-0.29 c -0.4,-0.16 -0.7,-0.4 -0.92,-0.69 -0.21,-0.29 -0.32,-0.62 -0.32,-1.02 0,-0.28 0.05,-0.54 0.17,-0.77 0.12,-0.25 0.29,-0.47 0.49,-0.64 0.21,-0.18 0.45,-0.33 0.76,-0.44 0.29,-0.11 0.62,-0.17 0.98,-0.17 0.27,0 0.51,0.03 0.7,0.07 0.19,0.03 0.36,0.1 0.48,0.16 0.12,0.07 0.22,0.17 0.28,0.26 0.05,0.11 0.08,0.23 0.08,0.36 0,0.11 0,0.21 -0.01,0.29 -0.01,0.1 -0.04,0.19 -0.05,0.29 -0.22,-0.15 -0.47,-0.28 -0.76,-0.37 -0.27,-0.1 -0.55,-0.15 -0.81,-0.15 -0.22,0 -0.41,0.03 -0.58,0.07 -0.16,0.04 -0.29,0.11 -0.4,0.18 -0.11,0.08 -0.19,0.18 -0.25,0.28 -0.04,0.11 -0.07,0.22 -0.07,0.33 0,0.12 0.01,0.23 0.04,0.33 0.04,0.11 0.1,0.19 0.18,0.28 0.08,0.1 0.19,0.18 0.33,0.25 0.14,0.08 0.32,0.15 0.52,0.23 l 0.74,0.29 c 0.25,0.1 0.45,0.21 0.63,0.32 0.17,0.11 0.32,0.23 0.43,0.37 0.1,0.15 0.18,0.3 0.23,0.47 0.04,0.17 0.07,0.36 0.07,0.55 -0.02,0.26 -0.07,0.52 -0.2,0.77 z"
         id="path5561" /><path
         inkscape:connector-curvature="0"
         d="m 87.52,46.13 c -0.55,0 -0.96,-0.15 -1.24,-0.45 -0.26,-0.3 -0.4,-0.78 -0.4,-1.46 0,-0.33 0,-0.67 0.01,-1.02 0.01,-0.36 0.01,-0.69 0.03,-1 l 0.04,-1.83 -0.76,0 0,-0.45 1.48,-1.47 0.45,-0.05 -0.06,1.24 1.81,0 -0.1,0.74 -1.76,0 -0.03,1.73 c 0,0.29 -0.01,0.56 -0.01,0.84 0,0.26 0,0.51 0,0.77 0,0.28 0.01,0.51 0.05,0.7 0.04,0.19 0.1,0.34 0.18,0.47 0.07,0.11 0.15,0.19 0.26,0.25 0.1,0.05 0.22,0.08 0.34,0.08 0.21,0 0.38,-0.03 0.56,-0.1 0.16,-0.07 0.32,-0.15 0.45,-0.26 l 0.14,0.05 c -0.01,0.81 -0.5,1.22 -1.44,1.22 z"
         id="path5563" /><path
         inkscape:connector-curvature="0"
         d="m 98.34,40.97 c -0.18,0.37 -0.43,0.7 -0.73,0.97 -0.32,0.29 -0.66,0.49 -1.06,0.66 -0.4,0.15 -0.81,0.23 -1.24,0.23 -0.17,0 -0.32,-0.01 -0.47,-0.05 -0.14,-0.04 -0.27,-0.1 -0.4,-0.15 l 0,2.71 1,0.22 0,0.3 c -0.22,0.07 -0.47,0.12 -0.76,0.17 -0.29,0.04 -0.59,0.07 -0.91,0.07 -0.1,0 -0.22,0 -0.33,-0.01 -0.12,0 -0.23,-0.01 -0.36,-0.01 -0.12,-0.01 -0.23,-0.03 -0.34,-0.05 -0.11,-0.01 -0.22,-0.03 -0.3,-0.06 l 0,-0.26 c 0.26,-0.08 0.47,-0.19 0.6,-0.34 0.12,-0.15 0.19,-0.37 0.19,-0.66 l 0,-6.77 -0.87,-0.29 0,-0.3 c 0.22,-0.04 0.44,-0.07 0.65,-0.1 0.21,-0.03 0.43,-0.04 0.65,-0.06 0.22,-0.02 0.47,-0.03 0.71,-0.03 0.25,-0.01 0.52,-0.01 0.82,-0.01 1.11,0 1.95,0.22 2.53,0.67 0.58,0.44 0.87,1.09 0.87,1.92 0.03,0.43 -0.07,0.84 -0.25,1.23 z m -1.15,-1.92 c -0.11,-0.25 -0.26,-0.45 -0.45,-0.63 -0.19,-0.16 -0.41,-0.3 -0.69,-0.38 -0.27,-0.1 -0.58,-0.14 -0.92,-0.14 -0.22,0 -0.45,0.01 -0.69,0.04 l 0,3.98 c 0.14,0.04 0.29,0.07 0.44,0.08 0.15,0.01 0.3,0.03 0.44,0.03 0.29,0 0.55,-0.05 0.8,-0.15 0.25,-0.1 0.45,-0.23 0.65,-0.43 0.18,-0.18 0.32,-0.4 0.43,-0.67 0.1,-0.26 0.15,-0.56 0.15,-0.89 -0.01,-0.32 -0.06,-0.6 -0.16,-0.84 z"
         id="path5565" /><path
         inkscape:connector-curvature="0"
         d="m 105.41,45.69 c -0.07,0.07 -0.15,0.12 -0.23,0.18 -0.08,0.05 -0.16,0.11 -0.26,0.16 -0.08,0.05 -0.18,0.1 -0.26,0.14 -0.14,-0.1 -0.26,-0.22 -0.38,-0.36 -0.11,-0.14 -0.19,-0.29 -0.26,-0.44 -0.08,0.08 -0.19,0.16 -0.33,0.25 -0.14,0.08 -0.29,0.16 -0.47,0.23 -0.18,0.07 -0.36,0.14 -0.56,0.18 -0.19,0.05 -0.4,0.07 -0.62,0.07 -0.29,0 -0.55,-0.04 -0.78,-0.12 -0.23,-0.1 -0.44,-0.22 -0.6,-0.41 -0.17,-0.18 -0.29,-0.41 -0.38,-0.7 -0.08,-0.29 -0.12,-0.62 -0.12,-1.02 l 0,-3.52 -0.78,-0.38 0,-0.29 c 0.32,-0.1 0.6,-0.15 0.87,-0.19 0.26,-0.06 0.48,-0.07 0.67,-0.07 l 0.45,0 -0.08,0.77 0,3.11 c 0,0.37 0.03,0.67 0.08,0.91 0.06,0.25 0.14,0.44 0.25,0.59 0.12,0.15 0.26,0.25 0.43,0.31 0.16,0.07 0.36,0.1 0.58,0.1 0.12,0 0.25,-0.01 0.38,-0.04 0.12,-0.01 0.25,-0.04 0.37,-0.08 0.11,-0.04 0.22,-0.08 0.33,-0.12 0.1,-0.04 0.18,-0.1 0.26,-0.15 l 0,-4.45 -0.8,-0.38 0,-0.29 c 0.32,-0.1 0.6,-0.15 0.87,-0.19 0.26,-0.06 0.5,-0.07 0.69,-0.07 l 0.45,0 -0.08,0.77 0,4.64 c 0.05,0.11 0.12,0.23 0.22,0.36 0.1,0.12 0.19,0.25 0.3,0.36 -0.08,0.03 -0.14,0.09 -0.21,0.14 z"
         id="path5567" /><path
         inkscape:connector-curvature="0"
         d="m 112.44,43.92 c -0.19,0.48 -0.45,0.88 -0.77,1.21 -0.33,0.33 -0.7,0.58 -1.13,0.73 -0.43,0.17 -0.87,0.25 -1.33,0.25 -0.15,0 -0.32,0 -0.49,-0.01 -0.18,-0.01 -0.34,-0.03 -0.52,-0.04 -0.17,-0.03 -0.33,-0.05 -0.49,-0.07 -0.17,-0.03 -0.32,-0.05 -0.45,-0.08 0.04,-0.21 0.07,-0.44 0.1,-0.67 0.03,-0.25 0.04,-0.47 0.04,-0.67 l 0,-7.54 -0.91,-0.37 0,-0.3 c 0.32,-0.1 0.62,-0.15 0.91,-0.19 0.27,-0.03 0.52,-0.05 0.74,-0.05 l 0.47,0 -0.08,0.77 0,3.1 c 0.22,-0.19 0.48,-0.34 0.78,-0.45 0.32,-0.12 0.63,-0.18 0.95,-0.18 0.34,0 0.67,0.07 0.98,0.19 0.3,0.12 0.56,0.32 0.78,0.56 0.23,0.23 0.4,0.54 0.54,0.89 0.12,0.37 0.19,0.78 0.19,1.25 -0.02,0.63 -0.11,1.18 -0.31,1.67 z m -1.03,-2.39 c -0.1,-0.27 -0.22,-0.51 -0.38,-0.7 -0.17,-0.19 -0.34,-0.33 -0.55,-0.43 -0.22,-0.1 -0.44,-0.15 -0.67,-0.15 -0.26,0 -0.51,0.03 -0.71,0.08 -0.21,0.07 -0.41,0.14 -0.59,0.25 l 0,4.64 c 0.11,0.03 0.23,0.05 0.36,0.08 0.12,0.01 0.25,0.03 0.37,0.03 0.32,0 0.62,-0.05 0.91,-0.16 0.28,-0.1 0.52,-0.27 0.73,-0.51 0.22,-0.22 0.38,-0.52 0.51,-0.88 0.12,-0.36 0.18,-0.78 0.18,-1.29 -0.02,-0.35 -0.06,-0.68 -0.16,-0.96 z"
         id="path5569" /><path
         inkscape:connector-curvature="0"
         d="m 116.11,45.95 c -0.12,0.03 -0.25,0.06 -0.37,0.07 -0.12,0.01 -0.26,0.03 -0.41,0.04 -0.14,0 -0.29,0.01 -0.47,0.01 -0.17,0 -0.34,-0.01 -0.52,-0.03 -0.18,-0.01 -0.36,-0.04 -0.51,-0.1 l 0,-0.23 c 0.1,-0.03 0.18,-0.07 0.26,-0.12 0.1,-0.05 0.17,-0.11 0.23,-0.18 0.07,-0.05 0.12,-0.12 0.18,-0.21 0.04,-0.07 0.05,-0.15 0.05,-0.23 l 0,-7.97 -0.89,-0.37 0,-0.3 c 0.15,-0.04 0.32,-0.08 0.47,-0.11 0.15,-0.03 0.3,-0.06 0.45,-0.08 0.14,-0.01 0.27,-0.03 0.4,-0.04 0.12,0 0.23,-0.01 0.33,-0.01 l 0.44,0 -0.07,0.77 0,8.52 0.77,0.21 0,0.26 c -0.12,0.04 -0.23,0.08 -0.34,0.1 z"
         id="path5571" /><path
         inkscape:connector-curvature="0"
         d="m 119.72,45.95 c -0.12,0.03 -0.23,0.06 -0.37,0.07 -0.12,0.01 -0.26,0.03 -0.4,0.04 -0.15,0 -0.3,0.01 -0.48,0.01 -0.15,0 -0.33,-0.01 -0.51,-0.03 -0.19,-0.01 -0.37,-0.04 -0.52,-0.1 l 0,-0.23 c 0.1,-0.03 0.18,-0.07 0.27,-0.12 0.08,-0.05 0.17,-0.11 0.23,-0.18 0.07,-0.05 0.12,-0.12 0.17,-0.21 0.04,-0.07 0.05,-0.15 0.05,-0.23 l 0,-4.64 -0.88,-0.37 0,-0.29 c 0.32,-0.1 0.62,-0.15 0.91,-0.19 0.29,-0.06 0.54,-0.07 0.73,-0.07 l 0.44,0 -0.07,0.74 0,5.22 0.77,0.21 0,0.26 c -0.12,0.05 -0.23,0.09 -0.34,0.11 z m -0.26,-8.31 c -0.04,0.1 -0.1,0.19 -0.16,0.26 -0.07,0.08 -0.15,0.14 -0.25,0.18 -0.1,0.05 -0.19,0.07 -0.3,0.07 -0.1,0 -0.19,-0.01 -0.29,-0.05 -0.08,-0.04 -0.17,-0.1 -0.23,-0.17 -0.06,-0.07 -0.11,-0.15 -0.15,-0.25 -0.04,-0.1 -0.06,-0.21 -0.06,-0.32 0,-0.11 0.01,-0.21 0.06,-0.3 0.03,-0.1 0.08,-0.18 0.15,-0.26 0.07,-0.08 0.15,-0.14 0.25,-0.18 0.1,-0.04 0.21,-0.07 0.33,-0.07 0.1,0 0.19,0.01 0.28,0.05 0.08,0.03 0.16,0.08 0.23,0.15 0.07,0.05 0.11,0.14 0.15,0.23 0.04,0.08 0.06,0.19 0.06,0.3 -0.02,0.14 -0.03,0.25 -0.07,0.36 z"
         id="path5573" /><path
         inkscape:connector-curvature="0"
         d="m 126.22,42.77 -4.05,0 c 0,0.38 0.05,0.73 0.15,1.03 0.11,0.3 0.26,0.55 0.44,0.76 0.18,0.21 0.4,0.37 0.65,0.48 0.25,0.11 0.51,0.16 0.8,0.16 0.17,0 0.33,-0.01 0.51,-0.04 0.18,-0.03 0.34,-0.07 0.51,-0.12 0.18,-0.04 0.33,-0.11 0.49,-0.18 0.15,-0.08 0.3,-0.17 0.43,-0.25 0.01,0.03 0.03,0.08 0.04,0.15 0.01,0.07 0.01,0.14 0.01,0.21 0,0.17 -0.06,0.32 -0.17,0.45 -0.11,0.14 -0.26,0.27 -0.47,0.38 -0.21,0.11 -0.45,0.19 -0.74,0.26 -0.3,0.07 -0.63,0.1 -0.99,0.1 -0.4,0 -0.76,-0.07 -1.1,-0.22 -0.36,-0.15 -0.65,-0.36 -0.91,-0.63 -0.26,-0.28 -0.47,-0.61 -0.62,-0.99 -0.14,-0.38 -0.22,-0.82 -0.22,-1.3 0,-0.59 0.08,-1.13 0.25,-1.6 0.16,-0.45 0.38,-0.84 0.66,-1.15 0.26,-0.3 0.56,-0.55 0.91,-0.7 0.34,-0.16 0.7,-0.25 1.06,-0.25 0.37,0 0.7,0.06 1,0.18 0.29,0.12 0.54,0.29 0.74,0.51 0.21,0.23 0.36,0.5 0.47,0.81 0.11,0.33 0.16,0.67 0.16,1.07 0,0.14 0,0.26 0,0.41 0,0.14 0,0.3 -0.01,0.47 z m -1.2,-1.6 c -0.07,-0.25 -0.16,-0.45 -0.29,-0.62 -0.12,-0.16 -0.26,-0.29 -0.44,-0.37 -0.17,-0.08 -0.36,-0.12 -0.55,-0.12 -0.19,0 -0.37,0.06 -0.56,0.17 -0.19,0.1 -0.36,0.25 -0.49,0.43 -0.15,0.18 -0.26,0.4 -0.36,0.63 -0.1,0.25 -0.14,0.49 -0.14,0.77 l 2.94,0 c 0,-0.35 -0.04,-0.64 -0.11,-0.89 z"
         id="path5575" /><path
         inkscape:connector-curvature="0"
         d="m 132.93,46.01 c -0.17,0.04 -0.34,0.07 -0.55,0.07 -0.19,0 -0.37,-0.04 -0.54,-0.12 -0.16,-0.08 -0.3,-0.22 -0.44,-0.4 l -2.24,-2.95 0,2.78 0.71,0.22 0,0.26 c -0.12,0.04 -0.25,0.08 -0.37,0.1 -0.11,0.03 -0.23,0.06 -0.36,0.07 -0.12,0.03 -0.25,0.04 -0.38,0.04 -0.12,0.01 -0.28,0.01 -0.44,0.01 -0.15,0 -0.33,-0.01 -0.51,-0.03 -0.19,-0.01 -0.37,-0.04 -0.52,-0.1 l 0,-0.23 c 0.1,-0.03 0.19,-0.07 0.27,-0.12 0.1,-0.05 0.16,-0.11 0.23,-0.18 0.07,-0.05 0.12,-0.12 0.18,-0.21 0.04,-0.07 0.05,-0.15 0.05,-0.23 l 0,-7.97 -0.91,-0.37 0,-0.3 c 0.32,-0.1 0.63,-0.15 0.92,-0.19 0.29,-0.03 0.54,-0.05 0.73,-0.05 l 0.47,0 -0.08,0.77 0,5.49 0.76,-0.66 c 0.18,-0.16 0.37,-0.33 0.54,-0.52 0.16,-0.19 0.32,-0.38 0.45,-0.58 0.12,-0.19 0.23,-0.4 0.3,-0.58 0.08,-0.19 0.12,-0.37 0.12,-0.52 0.12,-0.04 0.25,-0.07 0.36,-0.08 0.11,-0.01 0.23,-0.03 0.37,-0.03 0.11,0 0.21,0.01 0.29,0.03 0.08,0.03 0.18,0.06 0.26,0.1 0,0.15 -0.05,0.32 -0.12,0.49 -0.08,0.19 -0.19,0.4 -0.34,0.61 -0.15,0.21 -0.36,0.43 -0.58,0.65 -0.23,0.22 -0.51,0.45 -0.83,0.67 l -0.48,0.34 2.12,2.57 c 0.19,0.23 0.37,0.4 0.55,0.51 0.16,0.1 0.33,0.15 0.47,0.15 l 0,0.29 c -0.14,0.08 -0.31,0.16 -0.46,0.2 z"
         id="path5577" /><path
         inkscape:connector-curvature="0"
         d="m 141.72,42.77 -4.05,0 c 0,0.38 0.05,0.73 0.15,1.03 0.11,0.3 0.26,0.55 0.44,0.76 0.18,0.21 0.4,0.37 0.64,0.48 0.25,0.11 0.51,0.16 0.8,0.16 0.17,0 0.33,-0.01 0.51,-0.04 0.18,-0.03 0.34,-0.07 0.51,-0.12 0.18,-0.04 0.33,-0.11 0.49,-0.18 0.15,-0.08 0.3,-0.17 0.43,-0.25 0.01,0.03 0.03,0.08 0.04,0.15 0.01,0.07 0.01,0.14 0.01,0.21 0,0.17 -0.05,0.32 -0.17,0.45 -0.11,0.14 -0.26,0.27 -0.47,0.38 -0.21,0.11 -0.45,0.19 -0.74,0.26 -0.3,0.07 -0.63,0.1 -0.99,0.1 -0.4,0 -0.76,-0.07 -1.1,-0.22 -0.36,-0.15 -0.65,-0.36 -0.91,-0.63 -0.26,-0.28 -0.47,-0.61 -0.62,-0.99 -0.14,-0.38 -0.22,-0.82 -0.22,-1.3 0,-0.59 0.08,-1.13 0.25,-1.6 0.16,-0.45 0.38,-0.84 0.66,-1.15 0.26,-0.3 0.56,-0.55 0.91,-0.7 0.34,-0.16 0.7,-0.25 1.06,-0.25 0.37,0 0.7,0.06 1,0.18 0.29,0.12 0.54,0.29 0.74,0.51 0.21,0.23 0.36,0.5 0.47,0.81 0.11,0.33 0.16,0.67 0.16,1.07 0,0.14 0,0.26 0,0.41 0.01,0.14 0.01,0.3 0,0.47 z m -1.2,-1.6 c -0.07,-0.25 -0.16,-0.45 -0.29,-0.62 -0.12,-0.16 -0.26,-0.29 -0.44,-0.37 -0.16,-0.08 -0.36,-0.12 -0.55,-0.12 -0.19,0 -0.37,0.06 -0.56,0.17 -0.19,0.1 -0.36,0.25 -0.49,0.43 -0.15,0.18 -0.26,0.4 -0.36,0.63 -0.1,0.25 -0.14,0.49 -0.14,0.77 l 2.94,0 c 0,-0.35 -0.04,-0.64 -0.11,-0.89 z"
         id="path5579" /><path
         inkscape:connector-curvature="0"
         d="m 147.86,46.08 c -0.14,0 -0.29,-0.01 -0.45,-0.03 -0.15,-0.01 -0.3,-0.04 -0.44,-0.1 l 0,-0.23 c 0.18,-0.08 0.3,-0.18 0.37,-0.33 0.08,-0.14 0.12,-0.33 0.12,-0.58 l 0,-2.62 c 0,-0.33 -0.04,-0.62 -0.1,-0.85 -0.07,-0.25 -0.16,-0.44 -0.29,-0.58 -0.12,-0.15 -0.26,-0.26 -0.43,-0.33 -0.18,-0.07 -0.36,-0.1 -0.56,-0.1 -0.28,0 -0.55,0.04 -0.8,0.12 -0.26,0.08 -0.47,0.19 -0.62,0.3 l 0,4.62 0.77,0.21 0,0.26 c -0.12,0.04 -0.23,0.08 -0.34,0.11 -0.12,0.03 -0.25,0.06 -0.37,0.07 -0.12,0.01 -0.26,0.03 -0.41,0.04 -0.14,0 -0.29,0.01 -0.47,0.01 -0.16,0 -0.34,-0.01 -0.52,-0.03 -0.18,-0.01 -0.36,-0.04 -0.51,-0.1 l 0,-0.23 c 0.1,-0.03 0.18,-0.07 0.26,-0.12 0.1,-0.05 0.16,-0.11 0.23,-0.18 0.07,-0.05 0.12,-0.12 0.18,-0.21 0.04,-0.07 0.05,-0.15 0.05,-0.23 l 0,-4.64 -0.89,-0.37 0,-0.3 c 0.32,-0.1 0.62,-0.15 0.91,-0.19 0.29,-0.04 0.54,-0.06 0.74,-0.06 l 0.33,0 0,0.74 c 0.23,-0.23 0.54,-0.43 0.89,-0.56 0.36,-0.14 0.74,-0.21 1.14,-0.21 0.29,0 0.55,0.04 0.78,0.14 0.23,0.1 0.44,0.23 0.6,0.41 0.17,0.18 0.3,0.4 0.4,0.66 0.08,0.28 0.14,0.59 0.14,0.93 l 0,3.85 0.71,0.21 0,0.26 c -0.37,0.16 -0.85,0.24 -1.42,0.24 z"
         id="path5581" /><path
         inkscape:connector-curvature="0"
         d="m 158.91,45.76 c -0.26,0.12 -0.59,0.23 -0.99,0.31 -0.41,0.07 -0.88,0.11 -1.4,0.11 -0.5,0 -0.98,-0.1 -1.42,-0.28 -0.45,-0.18 -0.84,-0.45 -1.18,-0.82 -0.33,-0.36 -0.6,-0.81 -0.8,-1.36 -0.21,-0.54 -0.3,-1.17 -0.3,-1.88 0,-0.48 0.06,-0.93 0.15,-1.35 0.11,-0.43 0.25,-0.83 0.44,-1.17 0.18,-0.36 0.41,-0.67 0.66,-0.96 0.26,-0.27 0.54,-0.51 0.85,-0.7 0.3,-0.19 0.63,-0.34 0.97,-0.45 0.34,-0.1 0.7,-0.15 1.06,-0.15 0.47,0 0.87,0.03 1.18,0.1 0.33,0.06 0.6,0.15 0.85,0.28 l -0.11,1.91 -0.37,0 -0.05,-0.25 c -0.04,-0.22 -0.12,-0.4 -0.21,-0.55 -0.08,-0.15 -0.19,-0.27 -0.32,-0.37 -0.12,-0.1 -0.28,-0.16 -0.45,-0.21 -0.18,-0.04 -0.38,-0.07 -0.63,-0.07 -0.34,0 -0.67,0.08 -1,0.25 -0.32,0.18 -0.6,0.41 -0.85,0.74 -0.25,0.32 -0.44,0.71 -0.59,1.18 -0.16,0.47 -0.23,1 -0.23,1.59 0,0.63 0.07,1.18 0.22,1.65 0.14,0.47 0.33,0.84 0.58,1.14 0.23,0.3 0.51,0.52 0.81,0.66 0.32,0.15 0.63,0.22 0.95,0.22 0.51,0 0.89,-0.08 1.18,-0.25 0.28,-0.18 0.48,-0.45 0.63,-0.81 l 0.14,-0.33 0.37,0 -0.14,1.82 z"
         id="path5583" /><path
         inkscape:connector-curvature="0"
         d="m 166.12,44.02 c -0.18,0.45 -0.41,0.84 -0.71,1.17 -0.3,0.32 -0.64,0.56 -1.03,0.73 -0.4,0.18 -0.8,0.26 -1.2,0.26 -0.41,0 -0.81,-0.07 -1.17,-0.22 -0.37,-0.14 -0.69,-0.34 -0.96,-0.62 -0.26,-0.26 -0.48,-0.6 -0.65,-0.99 -0.15,-0.4 -0.23,-0.84 -0.23,-1.35 0,-0.56 0.1,-1.07 0.26,-1.53 0.18,-0.45 0.43,-0.85 0.71,-1.17 0.3,-0.31 0.65,-0.56 1.03,-0.74 0.38,-0.18 0.8,-0.26 1.22,-0.26 0.43,0 0.81,0.08 1.18,0.23 0.37,0.15 0.69,0.36 0.95,0.65 0.28,0.28 0.48,0.61 0.63,0.99 0.17,0.4 0.23,0.83 0.23,1.31 0.01,0.56 -0.07,1.08 -0.26,1.54 z m -1.13,-2.49 c -0.1,-0.3 -0.23,-0.56 -0.4,-0.78 -0.18,-0.21 -0.37,-0.37 -0.59,-0.48 -0.22,-0.11 -0.45,-0.16 -0.7,-0.16 -0.23,0 -0.47,0.07 -0.69,0.18 -0.23,0.12 -0.44,0.29 -0.61,0.52 -0.18,0.23 -0.33,0.52 -0.43,0.87 -0.11,0.34 -0.16,0.74 -0.16,1.2 0,0.41 0.05,0.78 0.15,1.08 0.1,0.32 0.23,0.58 0.4,0.8 0.18,0.21 0.37,0.37 0.59,0.48 0.22,0.1 0.45,0.15 0.7,0.15 0.23,0 0.45,-0.06 0.69,-0.17 0.22,-0.11 0.43,-0.29 0.6,-0.52 0.18,-0.22 0.32,-0.51 0.43,-0.87 0.11,-0.34 0.16,-0.76 0.16,-1.22 0.01,-0.41 -0.04,-0.76 -0.14,-1.08 z"
         id="path5585" /><path
         inkscape:connector-curvature="0"
         d="m 176.91,46.02 c -0.25,0.03 -0.51,0.05 -0.81,0.05 -0.14,0 -0.29,-0.01 -0.44,-0.03 -0.17,-0.01 -0.32,-0.04 -0.44,-0.1 l 0,-0.23 c 0.18,-0.08 0.3,-0.18 0.37,-0.33 0.08,-0.14 0.12,-0.33 0.12,-0.58 l 0,-2.68 c 0,-0.32 -0.03,-0.58 -0.1,-0.81 -0.07,-0.23 -0.16,-0.41 -0.29,-0.56 -0.12,-0.15 -0.26,-0.26 -0.44,-0.33 -0.16,-0.07 -0.36,-0.1 -0.58,-0.1 -0.25,0 -0.48,0.03 -0.71,0.08 -0.22,0.06 -0.43,0.14 -0.61,0.23 0.03,0.14 0.05,0.3 0.07,0.48 0.01,0.19 0.01,0.37 0.01,0.55 l 0,3.7 0.71,0.21 0,0.26 c -0.19,0.08 -0.41,0.14 -0.65,0.18 -0.23,0.03 -0.49,0.05 -0.8,0.05 -0.15,0 -0.29,-0.01 -0.45,-0.03 -0.15,-0.01 -0.3,-0.04 -0.44,-0.1 l 0,-0.23 c 0.18,-0.08 0.3,-0.18 0.38,-0.33 0.07,-0.14 0.11,-0.33 0.11,-0.58 l 0,-2.53 c 0,-0.38 -0.03,-0.7 -0.08,-0.95 -0.05,-0.25 -0.14,-0.45 -0.25,-0.6 -0.11,-0.15 -0.25,-0.25 -0.41,-0.32 -0.17,-0.05 -0.34,-0.08 -0.56,-0.08 -0.14,0 -0.28,0.01 -0.4,0.03 -0.14,0.03 -0.26,0.05 -0.38,0.1 -0.11,0.04 -0.22,0.08 -0.32,0.14 -0.1,0.05 -0.19,0.11 -0.26,0.16 l 0,4.62 0.77,0.21 0,0.26 c -0.23,0.08 -0.48,0.14 -0.71,0.18 -0.25,0.03 -0.54,0.05 -0.88,0.05 -0.16,0 -0.34,-0.01 -0.52,-0.03 -0.18,-0.01 -0.36,-0.04 -0.51,-0.1 l 0,-0.23 c 0.1,-0.03 0.18,-0.07 0.26,-0.12 0.1,-0.05 0.16,-0.11 0.23,-0.18 0.07,-0.05 0.12,-0.12 0.18,-0.21 0.04,-0.07 0.05,-0.15 0.05,-0.23 l 0,-4.64 -0.89,-0.37 0,-0.3 c 0.32,-0.1 0.62,-0.15 0.91,-0.19 0.29,-0.04 0.54,-0.06 0.74,-0.06 l 0.33,0 0,0.74 c 0.25,-0.23 0.54,-0.43 0.89,-0.56 0.34,-0.14 0.73,-0.21 1.13,-0.21 0.16,0 0.33,0.01 0.48,0.05 0.15,0.04 0.3,0.1 0.44,0.18 0.14,0.07 0.26,0.16 0.37,0.26 0.11,0.11 0.19,0.22 0.26,0.34 0.11,-0.11 0.25,-0.21 0.4,-0.32 0.16,-0.1 0.34,-0.19 0.54,-0.26 0.19,-0.08 0.38,-0.14 0.59,-0.19 0.19,-0.04 0.4,-0.07 0.59,-0.07 0.29,0 0.55,0.04 0.78,0.14 0.23,0.08 0.44,0.22 0.6,0.4 0.17,0.18 0.29,0.41 0.38,0.69 0.1,0.27 0.14,0.59 0.14,0.96 l 0,3.81 0.71,0.21 0,0.26 c -0.15,0.1 -0.37,0.15 -0.61,0.19 z"
         id="path5587" /><path
         inkscape:connector-curvature="0"
         d="m 188.04,46.02 c -0.25,0.03 -0.51,0.05 -0.81,0.05 -0.14,0 -0.29,-0.01 -0.44,-0.03 -0.17,-0.01 -0.32,-0.04 -0.44,-0.1 l 0,-0.23 c 0.18,-0.08 0.3,-0.18 0.37,-0.33 0.08,-0.14 0.12,-0.33 0.12,-0.58 l 0,-2.68 c 0,-0.32 -0.03,-0.58 -0.1,-0.81 -0.07,-0.23 -0.16,-0.41 -0.29,-0.56 -0.12,-0.15 -0.26,-0.26 -0.44,-0.33 -0.16,-0.07 -0.36,-0.1 -0.58,-0.1 -0.25,0 -0.48,0.03 -0.71,0.08 -0.22,0.06 -0.43,0.14 -0.61,0.23 0.03,0.14 0.05,0.3 0.07,0.48 0.01,0.19 0.01,0.37 0.01,0.55 l 0,3.7 0.71,0.21 0,0.26 c -0.19,0.08 -0.41,0.14 -0.65,0.18 -0.23,0.03 -0.49,0.05 -0.8,0.05 -0.15,0 -0.29,-0.01 -0.45,-0.03 -0.15,-0.01 -0.3,-0.04 -0.44,-0.1 l 0,-0.23 c 0.18,-0.08 0.3,-0.18 0.38,-0.33 0.07,-0.14 0.11,-0.33 0.11,-0.58 l 0,-2.53 c 0,-0.38 -0.03,-0.7 -0.08,-0.95 -0.05,-0.25 -0.14,-0.45 -0.25,-0.6 -0.11,-0.15 -0.25,-0.25 -0.41,-0.32 -0.17,-0.05 -0.34,-0.08 -0.56,-0.08 -0.14,0 -0.28,0.01 -0.4,0.03 -0.14,0.03 -0.26,0.05 -0.38,0.1 -0.11,0.04 -0.22,0.08 -0.32,0.14 -0.1,0.05 -0.19,0.11 -0.26,0.16 l 0,4.62 0.77,0.21 0,0.26 c -0.23,0.08 -0.48,0.14 -0.71,0.18 -0.25,0.03 -0.54,0.05 -0.88,0.05 -0.16,0 -0.34,-0.01 -0.52,-0.03 -0.18,-0.01 -0.36,-0.04 -0.51,-0.1 l 0,-0.23 c 0.1,-0.03 0.18,-0.07 0.26,-0.12 0.1,-0.05 0.16,-0.11 0.23,-0.18 0.07,-0.05 0.12,-0.12 0.18,-0.21 0.04,-0.07 0.05,-0.15 0.05,-0.23 l 0,-4.64 -0.89,-0.37 0,-0.3 c 0.32,-0.1 0.62,-0.15 0.91,-0.19 0.29,-0.04 0.54,-0.06 0.74,-0.06 l 0.33,0 0,0.74 c 0.25,-0.23 0.54,-0.43 0.89,-0.56 0.34,-0.14 0.73,-0.21 1.13,-0.21 0.16,0 0.33,0.01 0.48,0.05 0.15,0.04 0.3,0.1 0.44,0.18 0.14,0.07 0.26,0.16 0.37,0.26 0.11,0.11 0.19,0.22 0.26,0.34 0.11,-0.11 0.25,-0.21 0.4,-0.32 0.16,-0.1 0.34,-0.19 0.54,-0.26 0.19,-0.08 0.38,-0.14 0.59,-0.19 0.19,-0.04 0.4,-0.07 0.59,-0.07 0.29,0 0.55,0.04 0.78,0.14 0.23,0.08 0.44,0.22 0.6,0.4 0.17,0.18 0.29,0.41 0.38,0.69 0.1,0.27 0.14,0.59 0.14,0.96 l 0,3.81 0.71,0.21 0,0.26 c -0.16,0.1 -0.38,0.15 -0.61,0.19 z"
         id="path5589" /><path
         inkscape:connector-curvature="0"
         d="m 195.54,45.69 c -0.07,0.07 -0.15,0.12 -0.23,0.18 -0.08,0.05 -0.16,0.11 -0.26,0.16 -0.08,0.05 -0.18,0.1 -0.26,0.14 -0.14,-0.1 -0.26,-0.22 -0.38,-0.36 -0.11,-0.14 -0.19,-0.29 -0.26,-0.44 -0.08,0.08 -0.19,0.16 -0.33,0.25 -0.14,0.08 -0.29,0.16 -0.47,0.23 -0.18,0.07 -0.36,0.14 -0.56,0.18 -0.19,0.05 -0.4,0.07 -0.62,0.07 -0.29,0 -0.55,-0.04 -0.78,-0.12 -0.23,-0.1 -0.44,-0.22 -0.61,-0.41 -0.16,-0.18 -0.29,-0.41 -0.38,-0.7 -0.08,-0.29 -0.12,-0.62 -0.12,-1.02 l 0,-3.52 -0.78,-0.38 0,-0.29 c 0.32,-0.1 0.6,-0.15 0.87,-0.19 0.26,-0.06 0.48,-0.07 0.67,-0.07 l 0.45,0 -0.08,0.77 0,3.11 c 0,0.37 0.03,0.67 0.08,0.91 0.05,0.25 0.14,0.44 0.25,0.59 0.12,0.15 0.26,0.25 0.43,0.31 0.17,0.07 0.36,0.1 0.58,0.1 0.12,0 0.25,-0.01 0.38,-0.04 0.12,-0.01 0.25,-0.04 0.37,-0.08 0.11,-0.04 0.22,-0.08 0.33,-0.12 0.1,-0.04 0.18,-0.1 0.26,-0.15 l 0,-4.45 -0.8,-0.38 0,-0.29 c 0.32,-0.1 0.61,-0.15 0.87,-0.19 0.26,-0.06 0.49,-0.07 0.69,-0.07 l 0.45,0 -0.08,0.77 0,4.64 c 0.05,0.11 0.12,0.23 0.22,0.36 0.1,0.12 0.19,0.25 0.3,0.36 -0.07,0.03 -0.13,0.09 -0.2,0.14 z"
         id="path5591" /><path
         inkscape:connector-curvature="0"
         d="m 201.94,46.08 c -0.14,0 -0.29,-0.01 -0.45,-0.03 -0.15,-0.01 -0.3,-0.04 -0.44,-0.1 l 0,-0.23 c 0.18,-0.08 0.3,-0.18 0.37,-0.33 0.08,-0.14 0.12,-0.33 0.12,-0.58 l 0,-2.62 c 0,-0.33 -0.04,-0.62 -0.1,-0.85 -0.07,-0.25 -0.16,-0.44 -0.29,-0.58 -0.12,-0.15 -0.26,-0.26 -0.43,-0.33 -0.18,-0.07 -0.36,-0.1 -0.56,-0.1 -0.28,0 -0.55,0.04 -0.8,0.12 -0.26,0.08 -0.47,0.19 -0.62,0.3 l 0,4.62 0.77,0.21 0,0.26 c -0.12,0.04 -0.23,0.08 -0.34,0.11 -0.12,0.03 -0.25,0.06 -0.37,0.07 -0.12,0.01 -0.26,0.03 -0.41,0.04 -0.14,0 -0.29,0.01 -0.47,0.01 -0.16,0 -0.34,-0.01 -0.52,-0.03 -0.18,-0.01 -0.36,-0.04 -0.51,-0.1 l 0,-0.23 c 0.1,-0.03 0.18,-0.07 0.26,-0.12 0.1,-0.05 0.16,-0.11 0.23,-0.18 0.07,-0.05 0.12,-0.12 0.18,-0.21 0.04,-0.07 0.05,-0.15 0.05,-0.23 l 0,-4.64 -0.89,-0.37 0,-0.3 c 0.32,-0.1 0.62,-0.15 0.91,-0.19 0.29,-0.04 0.54,-0.06 0.74,-0.06 l 0.33,0 0,0.74 c 0.23,-0.23 0.54,-0.43 0.89,-0.56 0.36,-0.14 0.74,-0.21 1.14,-0.21 0.29,0 0.55,0.04 0.78,0.14 0.23,0.1 0.44,0.23 0.6,0.41 0.17,0.18 0.3,0.4 0.4,0.66 0.08,0.28 0.14,0.59 0.14,0.93 l 0,3.85 0.71,0.21 0,0.26 c -0.36,0.16 -0.84,0.24 -1.42,0.24 z"
         id="path5593" /><path
         inkscape:connector-curvature="0"
         d="m 206.7,45.95 c -0.12,0.03 -0.23,0.06 -0.37,0.07 -0.12,0.01 -0.26,0.03 -0.4,0.04 -0.15,0 -0.3,0.01 -0.48,0.01 -0.15,0 -0.33,-0.01 -0.51,-0.03 -0.19,-0.01 -0.37,-0.04 -0.52,-0.1 l 0,-0.23 c 0.1,-0.03 0.18,-0.07 0.27,-0.12 0.08,-0.05 0.17,-0.11 0.23,-0.18 0.07,-0.05 0.12,-0.12 0.16,-0.21 0.04,-0.07 0.05,-0.15 0.05,-0.23 l 0,-4.64 -0.88,-0.37 0,-0.29 c 0.32,-0.1 0.62,-0.15 0.91,-0.19 0.29,-0.06 0.54,-0.07 0.73,-0.07 l 0.44,0 -0.07,0.74 0,5.22 0.77,0.21 0,0.26 c -0.11,0.05 -0.22,0.09 -0.33,0.11 z m -0.26,-8.31 c -0.04,0.1 -0.1,0.19 -0.17,0.26 -0.07,0.08 -0.15,0.14 -0.25,0.18 -0.1,0.05 -0.19,0.07 -0.3,0.07 -0.1,0 -0.19,-0.01 -0.29,-0.05 -0.08,-0.04 -0.17,-0.1 -0.23,-0.17 -0.05,-0.07 -0.11,-0.15 -0.15,-0.25 -0.04,-0.1 -0.05,-0.21 -0.05,-0.32 0,-0.11 0.01,-0.21 0.05,-0.3 0.03,-0.1 0.08,-0.18 0.15,-0.26 0.07,-0.08 0.15,-0.14 0.25,-0.18 0.1,-0.04 0.21,-0.07 0.33,-0.07 0.1,0 0.19,0.01 0.28,0.05 0.08,0.03 0.16,0.08 0.23,0.15 0.07,0.05 0.11,0.14 0.15,0.23 0.04,0.08 0.05,0.19 0.05,0.3 0,0.14 -0.01,0.25 -0.05,0.36 z"
         id="path5595" /><path
         inkscape:connector-curvature="0"
         d="m 212.59,45.46 c -0.08,0.14 -0.21,0.26 -0.38,0.37 -0.16,0.1 -0.37,0.18 -0.62,0.25 -0.25,0.06 -0.54,0.08 -0.87,0.08 -0.38,0 -0.73,-0.07 -1.07,-0.22 -0.33,-0.15 -0.62,-0.37 -0.87,-0.64 -0.26,-0.27 -0.45,-0.61 -0.61,-0.99 -0.15,-0.4 -0.22,-0.82 -0.22,-1.3 0,-0.56 0.08,-1.07 0.25,-1.53 0.16,-0.45 0.4,-0.84 0.69,-1.15 0.29,-0.32 0.63,-0.56 1.03,-0.73 0.38,-0.18 0.81,-0.26 1.26,-0.26 0.28,0 0.51,0.03 0.7,0.07 0.19,0.04 0.34,0.1 0.45,0.16 0.12,0.07 0.21,0.17 0.25,0.26 0.05,0.1 0.08,0.21 0.08,0.32 0,0.14 -0.01,0.26 -0.04,0.37 -0.03,0.11 -0.07,0.23 -0.12,0.34 -0.26,-0.21 -0.52,-0.36 -0.77,-0.47 -0.26,-0.11 -0.54,-0.16 -0.82,-0.16 -0.23,0 -0.47,0.05 -0.67,0.16 -0.22,0.12 -0.4,0.29 -0.56,0.51 -0.16,0.21 -0.29,0.48 -0.38,0.78 -0.1,0.32 -0.14,0.67 -0.14,1.07 0,0.41 0.05,0.77 0.15,1.07 0.1,0.32 0.23,0.56 0.41,0.77 0.18,0.21 0.38,0.36 0.62,0.47 0.23,0.1 0.49,0.15 0.76,0.15 0.14,0 0.27,-0.01 0.41,-0.04 0.14,-0.03 0.28,-0.07 0.41,-0.11 0.14,-0.05 0.26,-0.11 0.38,-0.18 0.14,-0.07 0.25,-0.14 0.36,-0.22 0.04,0.1 0.07,0.21 0.07,0.34 0,0.17 -0.04,0.32 -0.14,0.46 z"
         id="path5597" /><path
         inkscape:connector-curvature="0"
         d="m 218.37,45.85 c -0.16,0.14 -0.34,0.25 -0.52,0.33 -0.14,-0.08 -0.25,-0.18 -0.36,-0.29 -0.1,-0.12 -0.19,-0.25 -0.28,-0.38 -0.1,0.1 -0.21,0.18 -0.34,0.26 -0.15,0.08 -0.29,0.15 -0.45,0.21 -0.16,0.07 -0.33,0.11 -0.52,0.14 -0.18,0.04 -0.36,0.05 -0.54,0.05 -0.26,0 -0.49,-0.04 -0.7,-0.11 -0.22,-0.08 -0.4,-0.18 -0.55,-0.32 -0.16,-0.14 -0.28,-0.3 -0.37,-0.49 -0.08,-0.18 -0.12,-0.38 -0.12,-0.6 0,-0.3 0.08,-0.59 0.25,-0.85 0.15,-0.27 0.38,-0.51 0.7,-0.71 0.3,-0.21 0.67,-0.37 1.11,-0.49 0.44,-0.11 0.95,-0.18 1.51,-0.18 l 0,-0.37 c 0,-0.37 -0.03,-0.67 -0.07,-0.91 -0.05,-0.23 -0.12,-0.41 -0.22,-0.55 -0.1,-0.12 -0.22,-0.22 -0.38,-0.28 -0.15,-0.04 -0.33,-0.07 -0.55,-0.07 -0.38,0 -0.74,0.08 -1.1,0.23 -0.34,0.15 -0.67,0.37 -0.96,0.66 -0.03,-0.12 -0.04,-0.26 -0.04,-0.41 0,-0.22 0.04,-0.41 0.12,-0.59 0.08,-0.17 0.22,-0.32 0.4,-0.43 0.18,-0.12 0.41,-0.22 0.7,-0.28 0.29,-0.07 0.63,-0.1 1.03,-0.1 0.34,0 0.66,0.04 0.93,0.12 0.28,0.1 0.49,0.21 0.69,0.37 0.19,0.17 0.34,0.36 0.44,0.58 0.1,0.22 0.15,0.48 0.15,0.77 0,0.07 0,0.16 -0.01,0.29 0,0.11 0,0.23 -0.01,0.37 0,0.12 -0.01,0.26 -0.01,0.38 0,0.12 -0.01,0.25 -0.01,0.34 l -0.04,2.23 c 0.05,0.12 0.12,0.25 0.22,0.37 0.1,0.12 0.21,0.23 0.33,0.33 -0.11,0.13 -0.25,0.25 -0.43,0.38 z m -1.18,-2.81 c -0.38,0 -0.73,0.04 -1.03,0.11 -0.3,0.08 -0.55,0.18 -0.74,0.3 -0.21,0.12 -0.36,0.28 -0.47,0.44 -0.1,0.18 -0.15,0.34 -0.15,0.54 0,0.27 0.1,0.49 0.28,0.66 0.18,0.17 0.44,0.25 0.8,0.25 0.11,0 0.22,-0.01 0.33,-0.03 0.12,-0.03 0.25,-0.05 0.36,-0.08 0.12,-0.03 0.23,-0.07 0.34,-0.12 0.11,-0.04 0.21,-0.08 0.29,-0.14 l 0,-1.93 z"
         id="path5599" /><path
         inkscape:connector-curvature="0"
         d="m 222.12,46.13 c -0.55,0 -0.96,-0.15 -1.24,-0.45 -0.26,-0.3 -0.4,-0.78 -0.4,-1.46 0,-0.33 0,-0.67 0.01,-1.02 0.01,-0.36 0.01,-0.69 0.03,-1 l 0.04,-1.83 -0.76,0 0,-0.45 1.48,-1.47 0.45,-0.05 -0.05,1.24 1.81,0 -0.1,0.74 -1.76,0 -0.03,1.73 c 0,0.29 -0.01,0.56 -0.01,0.84 0,0.26 0,0.51 0,0.77 0,0.28 0.01,0.51 0.06,0.7 0.04,0.19 0.1,0.34 0.18,0.47 0.07,0.11 0.15,0.19 0.26,0.25 0.1,0.05 0.22,0.08 0.34,0.08 0.21,0 0.38,-0.03 0.56,-0.1 0.17,-0.07 0.32,-0.15 0.45,-0.26 l 0.14,0.05 c -0.03,0.81 -0.53,1.22 -1.46,1.22 z"
         id="path5601" /><path
         inkscape:connector-curvature="0"
         d="m 226.57,45.95 c -0.12,0.03 -0.23,0.06 -0.37,0.07 -0.12,0.01 -0.26,0.03 -0.4,0.04 -0.15,0 -0.3,0.01 -0.48,0.01 -0.15,0 -0.33,-0.01 -0.51,-0.03 -0.19,-0.01 -0.37,-0.04 -0.52,-0.1 l 0,-0.23 c 0.1,-0.03 0.18,-0.07 0.27,-0.12 0.08,-0.05 0.17,-0.11 0.23,-0.18 0.07,-0.05 0.12,-0.12 0.16,-0.21 0.04,-0.07 0.05,-0.15 0.05,-0.23 l 0,-4.64 -0.88,-0.37 0,-0.29 c 0.32,-0.1 0.62,-0.15 0.91,-0.19 0.29,-0.06 0.54,-0.07 0.73,-0.07 l 0.44,0 -0.07,0.74 0,5.22 0.77,0.21 0,0.26 c -0.11,0.05 -0.22,0.09 -0.33,0.11 z m -0.26,-8.31 c -0.04,0.1 -0.1,0.19 -0.17,0.26 -0.07,0.08 -0.15,0.14 -0.25,0.18 -0.1,0.05 -0.19,0.07 -0.3,0.07 -0.1,0 -0.19,-0.01 -0.29,-0.05 -0.08,-0.04 -0.17,-0.1 -0.23,-0.17 -0.05,-0.07 -0.11,-0.15 -0.15,-0.25 -0.04,-0.1 -0.05,-0.21 -0.05,-0.32 0,-0.11 0.01,-0.21 0.05,-0.3 0.03,-0.1 0.08,-0.18 0.15,-0.26 0.07,-0.08 0.15,-0.14 0.25,-0.18 0.1,-0.04 0.21,-0.07 0.33,-0.07 0.1,0 0.19,0.01 0.28,0.05 0.08,0.03 0.16,0.08 0.23,0.15 0.07,0.05 0.11,0.14 0.15,0.23 0.04,0.08 0.05,0.19 0.05,0.3 0,0.14 -0.01,0.25 -0.05,0.36 z"
         id="path5603" /><path
         inkscape:connector-curvature="0"
         d="m 233.06,42.77 -4.05,0 c 0,0.38 0.05,0.73 0.15,1.03 0.11,0.3 0.26,0.55 0.44,0.76 0.18,0.21 0.4,0.37 0.65,0.48 0.25,0.11 0.51,0.16 0.8,0.16 0.17,0 0.33,-0.01 0.51,-0.04 0.18,-0.03 0.34,-0.07 0.51,-0.12 0.18,-0.04 0.33,-0.11 0.49,-0.18 0.15,-0.08 0.3,-0.17 0.43,-0.25 0.01,0.03 0.03,0.08 0.04,0.15 0.01,0.07 0.01,0.14 0.01,0.21 0,0.17 -0.05,0.32 -0.17,0.45 -0.11,0.14 -0.26,0.27 -0.47,0.38 -0.21,0.11 -0.45,0.19 -0.74,0.26 -0.3,0.07 -0.63,0.1 -0.99,0.1 -0.4,0 -0.76,-0.07 -1.1,-0.22 -0.36,-0.15 -0.65,-0.36 -0.91,-0.63 -0.26,-0.28 -0.47,-0.61 -0.62,-0.99 -0.14,-0.38 -0.22,-0.82 -0.22,-1.3 0,-0.59 0.08,-1.13 0.25,-1.6 0.16,-0.45 0.38,-0.84 0.66,-1.15 0.26,-0.3 0.56,-0.55 0.91,-0.7 0.34,-0.16 0.7,-0.25 1.06,-0.25 0.37,0 0.7,0.06 1,0.18 0.29,0.12 0.54,0.29 0.74,0.51 0.21,0.23 0.36,0.5 0.47,0.81 0.11,0.33 0.16,0.67 0.16,1.07 0,0.14 0,0.26 0,0.41 0.01,0.14 0.01,0.3 -0.01,0.47 z m -1.19,-1.6 c -0.07,-0.25 -0.16,-0.45 -0.29,-0.62 -0.12,-0.16 -0.26,-0.29 -0.44,-0.37 -0.16,-0.08 -0.36,-0.12 -0.55,-0.12 -0.19,0 -0.37,0.06 -0.56,0.17 -0.19,0.1 -0.36,0.25 -0.49,0.43 -0.15,0.18 -0.26,0.4 -0.36,0.63 -0.1,0.25 -0.14,0.49 -0.14,0.77 l 2.94,0 c 0,-0.35 -0.04,-0.64 -0.11,-0.89 z"
         id="path5605" /><path
         inkscape:connector-curvature="0"
         d="m 55.27,61.55 c -0.18,0.03 -0.38,0.04 -0.59,0.04 -0.16,0 -0.33,-0.01 -0.49,-0.04 -0.16,-0.03 -0.32,-0.05 -0.45,-0.1 l 0,-0.23 c 0.11,-0.05 0.22,-0.12 0.3,-0.21 0.08,-0.08 0.15,-0.19 0.18,-0.32 l 1.72,-7.35 -0.74,-0.17 0,-0.33 c 0.08,-0.03 0.19,-0.04 0.32,-0.07 0.12,-0.01 0.25,-0.03 0.37,-0.04 0.12,-0.03 0.26,-0.04 0.38,-0.04 0.12,-0.01 0.23,-0.01 0.34,-0.01 l 0.45,0 1.21,6.55 0.01,0 2.27,-6.55 0.34,0 c 0.08,0 0.18,0 0.29,0 0.12,0.01 0.23,0.01 0.36,0.03 0.11,0 0.23,0.01 0.34,0.03 0.12,0.01 0.23,0.04 0.33,0.05 l 0,0.33 -0.65,0.16 0.32,7.61 0.76,0.21 0,0.28 c -0.21,0.07 -0.4,0.12 -0.56,0.15 -0.18,0.04 -0.36,0.05 -0.56,0.05 -0.29,0 -0.52,-0.01 -0.7,-0.03 -0.18,-0.03 -0.36,-0.05 -0.51,-0.11 l 0,-0.23 c 0.12,-0.05 0.23,-0.14 0.3,-0.25 0.08,-0.1 0.12,-0.26 0.12,-0.47 l -0.08,-6.09 -0.01,0 -2.5,7.21 -0.41,-0.03 -1.35,-7.19 -0.01,0 -1.32,6.47 0.78,0.22 0,0.28 c -0.21,0.1 -0.4,0.16 -0.56,0.19 z"
         id="path5607" /><path
         inkscape:connector-curvature="0"
         d="m 63.75,61.44 c -0.11,-0.11 -0.17,-0.26 -0.17,-0.47 0,-0.1 0,-0.22 0.01,-0.37 0.01,-0.15 0.03,-0.3 0.05,-0.47 0.01,-0.18 0.04,-0.34 0.07,-0.51 0.01,-0.18 0.03,-0.33 0.05,-0.47 l 0.44,-2.79 0.07,-0.81 -0.82,-0.26 0,-0.26 c 0.22,-0.08 0.44,-0.14 0.67,-0.18 0.22,-0.04 0.45,-0.06 0.7,-0.06 0.12,0 0.23,0 0.33,0.01 0.11,0.01 0.19,0.03 0.29,0.07 l -0.62,4.04 c -0.01,0.1 -0.03,0.22 -0.04,0.36 -0.01,0.14 -0.03,0.26 -0.04,0.4 0,0.14 -0.01,0.26 -0.03,0.38 0,0.14 0,0.23 0,0.33 0,0.23 0.04,0.4 0.12,0.51 0.1,0.12 0.23,0.21 0.43,0.28 l 0,0.23 c -0.15,0.07 -0.3,0.11 -0.47,0.14 -0.16,0.04 -0.36,0.05 -0.56,0.05 -0.2,0.01 -0.37,-0.04 -0.48,-0.15 z m 2.02,-8.49 c -0.04,0.11 -0.1,0.19 -0.17,0.28 -0.07,0.07 -0.15,0.14 -0.25,0.18 -0.1,0.04 -0.19,0.07 -0.29,0.07 -0.19,0 -0.34,-0.06 -0.45,-0.18 -0.12,-0.11 -0.18,-0.27 -0.18,-0.48 0,-0.11 0.01,-0.22 0.05,-0.33 0.06,-0.1 0.11,-0.19 0.18,-0.26 0.07,-0.08 0.15,-0.14 0.23,-0.19 0.1,-0.04 0.19,-0.07 0.3,-0.07 0.18,0 0.33,0.07 0.45,0.19 0.11,0.12 0.18,0.28 0.18,0.47 0.02,0.1 -0.01,0.22 -0.05,0.32 z"
         id="path5609" /><path
         inkscape:connector-curvature="0"
         d="m 71.53,56.41 c -0.01,0.14 -0.04,0.29 -0.05,0.44 -0.03,0.15 -0.06,0.3 -0.07,0.47 -0.03,0.15 -0.04,0.3 -0.07,0.45 l -0.25,1.48 c -0.01,0.08 -0.01,0.16 -0.03,0.27 -0.01,0.1 -0.03,0.19 -0.04,0.3 -0.01,0.11 -0.03,0.21 -0.03,0.3 -0.01,0.11 -0.01,0.19 -0.01,0.26 0,0.23 0.06,0.4 0.17,0.49 0.11,0.11 0.26,0.18 0.48,0.22 l 0,0.23 c -0.15,0.08 -0.33,0.15 -0.51,0.19 -0.18,0.04 -0.37,0.07 -0.59,0.07 -0.22,0 -0.38,-0.05 -0.49,-0.16 -0.12,-0.11 -0.18,-0.26 -0.18,-0.47 0,-0.08 0.01,-0.19 0.01,-0.32 0.01,-0.11 0.03,-0.25 0.04,-0.37 0.01,-0.14 0.04,-0.27 0.05,-0.4 0.01,-0.14 0.04,-0.26 0.05,-0.37 l 0.26,-1.58 c 0.01,-0.11 0.03,-0.22 0.05,-0.34 0.01,-0.12 0.03,-0.25 0.04,-0.37 0.01,-0.12 0.03,-0.25 0.03,-0.36 0.01,-0.11 0.01,-0.22 0.01,-0.32 0,-0.15 -0.01,-0.27 -0.04,-0.38 -0.04,-0.11 -0.08,-0.19 -0.14,-0.26 -0.05,-0.05 -0.12,-0.11 -0.19,-0.14 -0.07,-0.03 -0.15,-0.04 -0.23,-0.04 -0.19,0 -0.4,0.08 -0.62,0.26 -0.22,0.18 -0.43,0.41 -0.6,0.73 -0.19,0.3 -0.36,0.67 -0.48,1.08 -0.14,0.43 -0.21,0.88 -0.22,1.36 l -0.08,2.32 -1.17,0 0.69,-5.92 -0.84,-0.26 0,-0.26 c 0.22,-0.08 0.44,-0.14 0.66,-0.18 0.21,-0.04 0.45,-0.06 0.7,-0.06 0.1,0 0.18,0.01 0.27,0.03 0.1,0.01 0.19,0.03 0.29,0.07 l -0.43,2.13 0.01,0 c 0.15,-0.36 0.33,-0.66 0.52,-0.94 0.19,-0.28 0.38,-0.51 0.6,-0.7 0.21,-0.19 0.43,-0.33 0.66,-0.44 0.22,-0.1 0.45,-0.15 0.69,-0.15 0.15,0 0.3,0.03 0.43,0.08 0.14,0.05 0.25,0.14 0.34,0.23 0.1,0.11 0.18,0.25 0.23,0.4 0.05,0.15 0.08,0.34 0.08,0.55 0.02,0.12 0.02,0.24 0,0.38 z"
         id="path5611" /><path
         inkscape:connector-curvature="0"
         d="m 73.09,61.44 c -0.11,-0.11 -0.17,-0.26 -0.17,-0.47 0,-0.1 0,-0.22 0.01,-0.37 0.01,-0.15 0.03,-0.3 0.05,-0.47 0.01,-0.18 0.04,-0.34 0.07,-0.51 0.01,-0.18 0.03,-0.33 0.05,-0.47 l 0.44,-2.79 0.07,-0.81 -0.82,-0.26 0,-0.26 c 0.22,-0.08 0.44,-0.14 0.67,-0.18 0.22,-0.04 0.45,-0.06 0.7,-0.06 0.12,0 0.23,0 0.33,0.01 0.11,0.01 0.19,0.03 0.29,0.07 l -0.62,4.04 c -0.01,0.1 -0.03,0.22 -0.04,0.36 -0.01,0.14 -0.03,0.26 -0.04,0.4 0,0.14 -0.01,0.26 -0.03,0.38 0,0.14 0,0.23 0,0.33 0,0.23 0.04,0.4 0.12,0.51 0.1,0.12 0.23,0.21 0.43,0.28 l 0,0.23 c -0.15,0.07 -0.3,0.11 -0.47,0.14 -0.16,0.04 -0.36,0.05 -0.56,0.05 -0.21,0.01 -0.37,-0.04 -0.48,-0.15 z m 2.02,-8.49 c -0.04,0.11 -0.1,0.19 -0.16,0.28 -0.07,0.07 -0.15,0.14 -0.25,0.18 -0.1,0.04 -0.19,0.07 -0.29,0.07 -0.19,0 -0.34,-0.06 -0.45,-0.18 -0.12,-0.11 -0.18,-0.27 -0.18,-0.48 0,-0.11 0.01,-0.22 0.05,-0.33 0.06,-0.1 0.11,-0.19 0.18,-0.26 0.07,-0.08 0.15,-0.14 0.23,-0.19 0.1,-0.04 0.19,-0.07 0.3,-0.07 0.18,0 0.33,0.07 0.45,0.19 0.11,0.12 0.18,0.28 0.18,0.47 0.01,0.1 -0.02,0.22 -0.06,0.32 z"
         id="path5613" /><path
         inkscape:connector-curvature="0"
         d="m 79.47,55.89 c -0.06,0.14 -0.11,0.25 -0.18,0.33 -0.21,-0.21 -0.44,-0.37 -0.71,-0.49 -0.26,-0.12 -0.54,-0.18 -0.78,-0.18 -0.32,0 -0.54,0.07 -0.7,0.22 -0.15,0.14 -0.23,0.33 -0.23,0.55 0,0.1 0.01,0.19 0.04,0.28 0.03,0.08 0.07,0.18 0.12,0.26 0.07,0.1 0.15,0.19 0.26,0.31 0.12,0.11 0.26,0.25 0.43,0.4 l 0.52,0.47 c 0.16,0.15 0.3,0.29 0.43,0.41 0.11,0.12 0.19,0.26 0.26,0.38 0.07,0.12 0.12,0.25 0.15,0.37 0.03,0.14 0.04,0.28 0.04,0.43 0,0.27 -0.05,0.52 -0.19,0.77 -0.12,0.25 -0.3,0.47 -0.54,0.66 -0.23,0.18 -0.49,0.33 -0.81,0.44 -0.3,0.11 -0.63,0.16 -1,0.16 -0.43,0 -0.74,-0.07 -0.95,-0.19 -0.19,-0.14 -0.3,-0.33 -0.3,-0.59 0,-0.12 0.03,-0.23 0.07,-0.32 0.03,-0.1 0.08,-0.18 0.15,-0.26 0.19,0.19 0.4,0.33 0.62,0.43 0.22,0.1 0.47,0.15 0.71,0.15 0.17,0 0.32,-0.03 0.45,-0.07 0.15,-0.04 0.27,-0.11 0.38,-0.19 0.11,-0.08 0.19,-0.18 0.25,-0.29 0.05,-0.12 0.1,-0.25 0.1,-0.4 0,-0.11 -0.01,-0.22 -0.04,-0.31 -0.03,-0.1 -0.07,-0.21 -0.14,-0.3 -0.07,-0.11 -0.15,-0.22 -0.26,-0.33 -0.11,-0.12 -0.25,-0.26 -0.41,-0.41 l -0.5,-0.44 C 76.56,57.99 76.44,57.86 76.33,57.74 76.22,57.62 76.14,57.49 76.08,57.37 76.01,57.25 75.97,57.12 75.94,57 75.91,56.88 75.9,56.74 75.9,56.59 c 0,-0.23 0.06,-0.45 0.17,-0.67 0.1,-0.21 0.25,-0.4 0.43,-0.58 0.19,-0.17 0.41,-0.3 0.67,-0.41 0.26,-0.1 0.56,-0.15 0.88,-0.15 0.49,0 0.87,0.07 1.11,0.21 0.26,0.14 0.38,0.31 0.38,0.54 0,0.09 -0.03,0.22 -0.07,0.36 z"
         id="path5615" /><path
         inkscape:connector-curvature="0"
         d="m 83.28,55.54 c -0.18,0.14 -0.48,0.21 -0.92,0.21 l -0.38,0 -0.23,1.43 c -0.03,0.17 -0.05,0.36 -0.1,0.56 -0.03,0.22 -0.05,0.42 -0.08,0.64 -0.03,0.22 -0.06,0.44 -0.07,0.63 -0.03,0.21 -0.03,0.37 -0.03,0.51 0,0.23 0.03,0.43 0.08,0.59 0.05,0.16 0.12,0.29 0.22,0.4 0.1,0.11 0.21,0.19 0.33,0.25 0.14,0.04 0.27,0.07 0.43,0.07 0.11,0 0.21,0 0.29,-0.03 0.08,-0.01 0.17,-0.04 0.27,-0.07 l 0,0.25 c -0.03,0.08 -0.08,0.16 -0.15,0.23 -0.08,0.08 -0.18,0.17 -0.29,0.22 -0.1,0.07 -0.23,0.11 -0.37,0.15 -0.14,0.04 -0.29,0.05 -0.45,0.05 -0.45,0 -0.81,-0.14 -1.04,-0.44 -0.22,-0.29 -0.34,-0.7 -0.34,-1.25 0,-0.21 0.01,-0.45 0.04,-0.73 0.03,-0.28 0.06,-0.56 0.1,-0.87 0.03,-0.29 0.08,-0.59 0.12,-0.89 0.06,-0.3 0.11,-0.59 0.16,-0.85 l 0.18,-0.88 c -0.15,0 -0.29,0 -0.4,-0.01 -0.1,0 -0.23,-0.01 -0.37,-0.03 l 0,-0.18 c 0.22,-0.32 0.49,-0.61 0.82,-0.89 0.32,-0.29 0.66,-0.55 1.03,-0.76 l 0.21,0 -0.23,1.13 0.4,0 c 0.19,0 0.37,-0.01 0.54,-0.03 0.17,-0.01 0.33,-0.03 0.52,-0.07 -0.02,0.31 -0.1,0.52 -0.29,0.66 z"
         id="path5617" /><path
         inkscape:connector-curvature="0"
         d="m 87.66,60.27 c 0.04,0.05 0.05,0.12 0.05,0.21 0,0.17 -0.05,0.32 -0.15,0.47 -0.11,0.15 -0.25,0.28 -0.43,0.38 -0.18,0.11 -0.4,0.19 -0.63,0.26 -0.25,0.07 -0.51,0.1 -0.78,0.1 -0.29,0 -0.56,-0.04 -0.8,-0.14 C 84.67,61.45 84.48,61.3 84.3,61.11 84.13,60.9 84,60.66 83.9,60.35 83.8,60.06 83.76,59.7 83.76,59.29 c 0,-0.77 0.08,-1.44 0.26,-2.01 0.18,-0.58 0.4,-1.04 0.67,-1.43 0.29,-0.37 0.59,-0.65 0.93,-0.84 0.34,-0.18 0.67,-0.28 1.02,-0.28 0.47,0 0.84,0.11 1.08,0.36 0.25,0.23 0.38,0.59 0.38,1.06 0,0.4 -0.1,0.77 -0.29,1.09 -0.19,0.33 -0.44,0.6 -0.74,0.82 -0.32,0.23 -0.66,0.4 -1.06,0.52 -0.38,0.12 -0.8,0.18 -1.2,0.18 0,0.41 0.03,0.76 0.08,1.03 0.05,0.26 0.12,0.47 0.23,0.63 0.11,0.15 0.23,0.26 0.38,0.32 0.15,0.05 0.33,0.08 0.54,0.08 0.12,0 0.25,-0.01 0.4,-0.05 0.14,-0.03 0.29,-0.07 0.43,-0.14 0.14,-0.07 0.26,-0.14 0.38,-0.22 0.11,-0.08 0.21,-0.18 0.27,-0.28 0.07,0.04 0.11,0.08 0.14,0.14 z m -0.83,-4.55 c -0.11,-0.14 -0.27,-0.21 -0.47,-0.21 -0.15,0 -0.32,0.05 -0.49,0.19 -0.17,0.12 -0.33,0.3 -0.47,0.52 -0.15,0.23 -0.27,0.51 -0.37,0.84 -0.1,0.32 -0.14,0.67 -0.14,1.07 0.3,0 0.59,-0.04 0.85,-0.12 0.26,-0.08 0.48,-0.19 0.67,-0.34 0.19,-0.15 0.33,-0.33 0.44,-0.55 C 86.96,56.9 87,56.67 87,56.4 87.01,56.08 86.96,55.86 86.83,55.72 Z"
         id="path5619" /><path
         inkscape:connector-curvature="0"
         d="m 88.71,55.03 c 0.22,-0.08 0.44,-0.14 0.65,-0.18 0.22,-0.04 0.45,-0.06 0.69,-0.06 0.1,0 0.19,0.01 0.29,0.03 0.11,0.01 0.21,0.03 0.29,0.07 l -0.41,1.99 0.01,0 0.73,-1.21 c 0.18,-0.29 0.37,-0.51 0.55,-0.65 0.19,-0.15 0.4,-0.22 0.6,-0.22 0.15,0 0.26,0.04 0.34,0.14 0.07,0.08 0.11,0.21 0.11,0.37 0,0.11 -0.01,0.23 -0.04,0.36 -0.03,0.12 -0.05,0.25 -0.11,0.36 C 92.34,56.01 92.27,56 92.2,56 c -0.07,-0.01 -0.15,-0.01 -0.22,-0.01 -0.22,0 -0.43,0.07 -0.65,0.19 -0.21,0.12 -0.4,0.33 -0.56,0.61 -0.16,0.27 -0.32,0.63 -0.43,1.07 -0.11,0.45 -0.18,0.99 -0.22,1.62 l -0.11,2.01 -1.14,0 0.67,-5.92 -0.84,-0.26 0,-0.28 z"
         id="path5621" /><path
         inkscape:connector-curvature="0"
         d="m 93.13,61.44 c -0.11,-0.11 -0.17,-0.26 -0.17,-0.47 0,-0.1 0,-0.22 0.01,-0.37 0.01,-0.15 0.03,-0.3 0.05,-0.47 0.01,-0.18 0.04,-0.34 0.07,-0.51 0.01,-0.18 0.03,-0.33 0.05,-0.47 l 0.44,-2.79 0.07,-0.81 -0.82,-0.26 0,-0.26 c 0.22,-0.08 0.44,-0.14 0.67,-0.18 0.22,-0.04 0.45,-0.06 0.7,-0.06 0.12,0 0.23,0 0.33,0.01 0.11,0.01 0.19,0.03 0.29,0.07 l -0.62,4.04 c -0.01,0.1 -0.03,0.22 -0.04,0.36 -0.01,0.14 -0.03,0.26 -0.04,0.4 0,0.14 -0.01,0.26 -0.03,0.38 0,0.14 0,0.23 0,0.33 0,0.23 0.04,0.4 0.12,0.51 0.1,0.12 0.23,0.21 0.43,0.28 l 0,0.23 c -0.15,0.07 -0.3,0.11 -0.47,0.14 -0.16,0.04 -0.36,0.05 -0.56,0.05 -0.21,0.01 -0.37,-0.04 -0.48,-0.15 z m 2.02,-8.49 c -0.04,0.11 -0.1,0.19 -0.17,0.28 -0.07,0.07 -0.15,0.14 -0.25,0.18 -0.1,0.04 -0.19,0.07 -0.29,0.07 -0.19,0 -0.34,-0.06 -0.45,-0.18 -0.12,-0.11 -0.18,-0.27 -0.18,-0.48 0,-0.11 0.01,-0.22 0.05,-0.33 0.06,-0.1 0.11,-0.19 0.18,-0.26 0.07,-0.08 0.15,-0.14 0.23,-0.19 0.1,-0.04 0.19,-0.07 0.3,-0.07 0.18,0 0.33,0.07 0.45,0.19 0.11,0.12 0.18,0.28 0.18,0.47 0.02,0.1 -0.01,0.22 -0.05,0.32 z"
         id="path5623" /><path
         inkscape:connector-curvature="0"
         d="m 99.68,60.27 c 0.04,0.05 0.05,0.12 0.05,0.21 0,0.17 -0.05,0.32 -0.15,0.47 -0.11,0.15 -0.25,0.28 -0.43,0.38 -0.18,0.11 -0.4,0.19 -0.63,0.26 -0.25,0.07 -0.51,0.1 -0.78,0.1 -0.29,0 -0.56,-0.04 -0.8,-0.14 -0.25,-0.1 -0.44,-0.25 -0.62,-0.44 -0.17,-0.21 -0.3,-0.45 -0.4,-0.76 -0.1,-0.29 -0.14,-0.65 -0.14,-1.06 0,-0.77 0.08,-1.44 0.26,-2.01 0.18,-0.58 0.4,-1.04 0.67,-1.43 0.29,-0.37 0.59,-0.65 0.93,-0.84 0.34,-0.18 0.67,-0.28 1.02,-0.28 0.47,0 0.84,0.11 1.08,0.36 0.25,0.23 0.38,0.59 0.38,1.06 0,0.4 -0.1,0.77 -0.29,1.09 -0.19,0.33 -0.44,0.6 -0.74,0.82 -0.32,0.23 -0.66,0.4 -1.06,0.52 -0.38,0.12 -0.8,0.18 -1.2,0.18 0,0.41 0.03,0.76 0.08,1.03 0.05,0.26 0.12,0.47 0.23,0.63 0.11,0.15 0.23,0.26 0.38,0.32 0.15,0.05 0.33,0.08 0.54,0.08 0.12,0 0.25,-0.01 0.4,-0.05 0.14,-0.03 0.29,-0.07 0.43,-0.14 0.14,-0.07 0.26,-0.14 0.38,-0.22 0.11,-0.08 0.21,-0.18 0.27,-0.28 0.07,0.04 0.11,0.08 0.14,0.14 z m -0.82,-4.55 c -0.11,-0.14 -0.27,-0.21 -0.47,-0.21 -0.15,0 -0.32,0.05 -0.49,0.19 -0.17,0.12 -0.33,0.3 -0.47,0.52 -0.15,0.23 -0.27,0.51 -0.37,0.84 -0.1,0.32 -0.14,0.67 -0.14,1.07 0.3,0 0.59,-0.04 0.85,-0.12 0.26,-0.08 0.48,-0.19 0.67,-0.34 0.19,-0.15 0.33,-0.33 0.44,-0.55 0.11,-0.22 0.15,-0.45 0.15,-0.72 0.01,-0.32 -0.05,-0.54 -0.17,-0.68 z"
         id="path5625" /><path
         inkscape:connector-curvature="0"
         d="m 104.68,60.5 c 0.25,-0.3 0.48,-0.65 0.69,-1.03 0.22,-0.38 0.4,-0.77 0.55,-1.17 0.15,-0.4 0.27,-0.8 0.36,-1.21 0.1,-0.4 0.14,-0.77 0.14,-1.13 0,-0.19 -0.04,-0.34 -0.14,-0.45 -0.08,-0.12 -0.21,-0.22 -0.37,-0.3 l 0,-0.22 c 0.11,-0.07 0.25,-0.11 0.38,-0.15 0.14,-0.04 0.3,-0.06 0.47,-0.06 0.22,0 0.4,0.07 0.54,0.19 0.14,0.12 0.21,0.33 0.21,0.63 0,0.23 -0.03,0.51 -0.1,0.81 -0.08,0.32 -0.18,0.65 -0.3,0.99 -0.12,0.34 -0.26,0.69 -0.44,1.04 -0.16,0.36 -0.34,0.71 -0.55,1.04 -0.19,0.33 -0.4,0.64 -0.62,0.95 -0.22,0.29 -0.44,0.55 -0.66,0.76 -0.14,0.12 -0.26,0.22 -0.37,0.29 -0.11,0.08 -0.23,0.16 -0.36,0.22 l -0.28,0 -0.56,-6.18 -0.59,-0.23 0,-0.29 c 0.22,-0.08 0.41,-0.14 0.58,-0.16 0.18,-0.03 0.36,-0.04 0.55,-0.04 0.19,0 0.38,0.03 0.56,0.08 l 0.3,5.62 0.01,0 z"
         id="path5627" /><path
         inkscape:connector-curvature="0"
         d="m 112.38,58.03 c -0.04,0.23 -0.07,0.48 -0.1,0.71 -0.03,0.25 -0.05,0.48 -0.07,0.7 -0.01,0.22 -0.03,0.4 -0.03,0.55 0,0.22 0.01,0.4 0.03,0.54 0.03,0.14 0.07,0.25 0.11,0.33 0.05,0.07 0.12,0.14 0.21,0.16 0.08,0.04 0.19,0.07 0.32,0.08 l 0,0.29 c -0.18,0.07 -0.38,0.11 -0.59,0.15 -0.21,0.03 -0.43,0.05 -0.63,0.05 -0.11,0 -0.22,-0.01 -0.3,-0.03 -0.1,-0.01 -0.19,-0.04 -0.27,-0.07 l 0.32,-2.05 -0.01,0 c -0.14,0.34 -0.29,0.65 -0.45,0.92 -0.18,0.27 -0.36,0.51 -0.55,0.7 -0.18,0.19 -0.37,0.33 -0.56,0.44 -0.19,0.1 -0.38,0.15 -0.58,0.15 -0.15,0 -0.32,-0.05 -0.45,-0.15 -0.15,-0.11 -0.29,-0.26 -0.41,-0.47 -0.11,-0.21 -0.21,-0.45 -0.27,-0.76 -0.07,-0.3 -0.1,-0.65 -0.1,-1.04 0,-0.71 0.08,-1.33 0.27,-1.9 0.19,-0.55 0.44,-1.02 0.77,-1.4 0.32,-0.38 0.69,-0.67 1.1,-0.87 0.43,-0.21 0.87,-0.3 1.35,-0.3 0.11,0 0.22,0.01 0.36,0.01 0.12,0.01 0.26,0.03 0.4,0.06 0.12,0.01 0.26,0.04 0.4,0.07 0.12,0.01 0.25,0.06 0.36,0.08 l -0.47,2.4 c -0.08,0.21 -0.12,0.41 -0.16,0.65 z m -0.94,-2.46 c -0.14,-0.01 -0.26,-0.01 -0.36,-0.01 -0.29,0 -0.55,0.07 -0.8,0.22 -0.25,0.14 -0.47,0.36 -0.66,0.66 -0.18,0.29 -0.33,0.66 -0.45,1.09 -0.11,0.44 -0.16,0.96 -0.16,1.54 0,0.29 0.03,0.55 0.07,0.76 0.04,0.21 0.1,0.38 0.15,0.52 0.07,0.12 0.15,0.22 0.23,0.29 0.08,0.07 0.16,0.1 0.25,0.1 0.14,0 0.3,-0.05 0.47,-0.18 0.17,-0.11 0.33,-0.29 0.48,-0.52 0.15,-0.22 0.3,-0.52 0.43,-0.87 0.14,-0.36 0.25,-0.77 0.33,-1.24 l 0.37,-2.28 c -0.1,-0.04 -0.21,-0.07 -0.35,-0.08 z"
         id="path5629" /><path
         inkscape:connector-curvature="0"
         d="m 118.91,56.41 c -0.01,0.14 -0.04,0.29 -0.05,0.44 -0.03,0.15 -0.06,0.3 -0.07,0.47 -0.03,0.15 -0.04,0.3 -0.07,0.45 l -0.25,1.48 c -0.01,0.08 -0.01,0.16 -0.03,0.27 -0.01,0.1 -0.03,0.19 -0.04,0.3 -0.01,0.11 -0.03,0.21 -0.03,0.3 -0.01,0.11 -0.01,0.19 -0.01,0.26 0,0.23 0.06,0.4 0.17,0.49 0.11,0.11 0.26,0.18 0.48,0.22 l 0,0.23 c -0.15,0.08 -0.33,0.15 -0.51,0.19 -0.18,0.04 -0.37,0.07 -0.59,0.07 -0.22,0 -0.38,-0.05 -0.49,-0.16 -0.12,-0.11 -0.18,-0.26 -0.18,-0.47 0,-0.08 0.01,-0.19 0.01,-0.32 0.01,-0.11 0.03,-0.25 0.04,-0.37 0.01,-0.14 0.04,-0.27 0.05,-0.4 0.01,-0.14 0.04,-0.26 0.05,-0.37 l 0.26,-1.58 c 0.01,-0.11 0.03,-0.22 0.05,-0.34 0.01,-0.12 0.03,-0.25 0.04,-0.37 0.01,-0.12 0.03,-0.25 0.03,-0.36 0.01,-0.11 0.01,-0.22 0.01,-0.32 0,-0.15 -0.01,-0.27 -0.04,-0.38 -0.04,-0.11 -0.08,-0.19 -0.14,-0.26 -0.05,-0.05 -0.12,-0.11 -0.19,-0.14 -0.07,-0.03 -0.15,-0.04 -0.23,-0.04 -0.19,0 -0.4,0.08 -0.62,0.26 -0.22,0.18 -0.43,0.41 -0.6,0.73 -0.19,0.3 -0.36,0.67 -0.48,1.08 -0.14,0.43 -0.21,0.88 -0.22,1.36 l -0.08,2.32 -1.17,0 0.69,-5.92 -0.84,-0.26 0,-0.26 c 0.22,-0.08 0.44,-0.14 0.66,-0.18 0.21,-0.04 0.45,-0.06 0.7,-0.06 0.1,0 0.18,0.01 0.27,0.03 0.1,0.01 0.19,0.03 0.29,0.07 l -0.44,2.1 0.01,0 c 0.15,-0.36 0.33,-0.66 0.52,-0.94 0.19,-0.28 0.38,-0.51 0.6,-0.7 0.21,-0.19 0.43,-0.33 0.66,-0.44 0.22,-0.1 0.45,-0.15 0.69,-0.15 0.15,0 0.3,0.03 0.43,0.08 0.14,0.05 0.25,0.14 0.34,0.23 0.1,0.11 0.18,0.25 0.23,0.4 0.05,0.15 0.08,0.34 0.08,0.55 0.03,0.15 0.03,0.27 0.01,0.41 z"
         id="path5631" /><path
         inkscape:connector-curvature="0"
         d="m 128.26,61.11 0,0.28 c -0.17,0.07 -0.34,0.12 -0.54,0.15 -0.19,0.04 -0.4,0.05 -0.65,0.05 -0.22,0 -0.44,-0.01 -0.63,-0.03 -0.21,-0.03 -0.4,-0.05 -0.59,-0.11 l 0,-0.23 c 0.17,-0.05 0.29,-0.14 0.37,-0.25 0.08,-0.11 0.11,-0.29 0.08,-0.51 l -0.19,-1.98 -2.38,0 -1.02,2.47 0.76,0.15 0,0.28 c -0.18,0.07 -0.38,0.12 -0.62,0.15 -0.23,0.04 -0.47,0.05 -0.69,0.05 -0.16,0 -0.33,-0.01 -0.48,-0.04 -0.17,-0.03 -0.32,-0.05 -0.45,-0.1 l 0,-0.23 c 0.14,-0.04 0.27,-0.12 0.4,-0.23 0.14,-0.12 0.23,-0.26 0.3,-0.43 l 3.27,-7.36 c 0.03,-0.08 0.05,-0.15 0.07,-0.23 0.01,-0.08 0.03,-0.15 0.03,-0.22 l 1.11,-0.15 1.14,8.34 0.71,0.18 z m -2.25,-3.33 -0.41,-3.72 -0.01,0 -1.57,3.78 1.99,-0.06 z"
         id="path5633" /><path
         inkscape:connector-curvature="0"
         d="m 129.15,61.44 c -0.12,-0.11 -0.18,-0.28 -0.18,-0.48 0,-0.1 0.01,-0.22 0.01,-0.37 0.01,-0.15 0.03,-0.32 0.04,-0.48 0.01,-0.17 0.04,-0.33 0.05,-0.49 0.01,-0.18 0.04,-0.33 0.05,-0.45 l 0.96,-6.81 -0.87,-0.26 0,-0.26 c 0.22,-0.08 0.44,-0.14 0.66,-0.17 0.21,-0.04 0.45,-0.05 0.71,-0.05 0.11,0 0.23,0 0.34,0.01 0.11,0.03 0.21,0.04 0.29,0.07 l -1.03,7.2 c -0.01,0.11 -0.03,0.23 -0.04,0.36 -0.01,0.14 -0.03,0.28 -0.04,0.41 0,0.12 -0.01,0.26 -0.01,0.4 -0.01,0.12 -0.01,0.23 -0.01,0.34 0,0.23 0.05,0.4 0.16,0.51 0.1,0.12 0.26,0.21 0.45,0.28 l 0,0.23 c -0.3,0.12 -0.65,0.19 -1.06,0.19 -0.2,-0.02 -0.37,-0.07 -0.48,-0.18 z"
         id="path5635" /><path
         inkscape:connector-curvature="0"
         d="m 136.18,58.26 c -0.03,0.23 -0.05,0.5 -0.07,0.76 -0.01,0.26 -0.03,0.51 -0.04,0.76 -0.01,0.25 -0.01,0.47 -0.01,0.65 0,0.78 -0.08,1.46 -0.26,2.02 -0.18,0.56 -0.43,1.03 -0.73,1.39 -0.31,0.36 -0.67,0.63 -1.07,0.8 -0.41,0.18 -0.84,0.26 -1.29,0.26 -0.3,0 -0.59,-0.03 -0.82,-0.1 -0.25,-0.05 -0.45,-0.15 -0.62,-0.26 -0.16,-0.11 -0.3,-0.25 -0.38,-0.4 -0.1,-0.17 -0.14,-0.33 -0.14,-0.51 0,-0.17 0.04,-0.33 0.11,-0.47 0.08,-0.14 0.19,-0.26 0.31,-0.37 0.12,-0.11 0.28,-0.19 0.44,-0.26 0.16,-0.05 0.33,-0.08 0.49,-0.08 -0.14,0.14 -0.23,0.29 -0.29,0.43 -0.05,0.14 -0.08,0.3 -0.08,0.47 0,0.26 0.11,0.48 0.3,0.66 0.21,0.16 0.51,0.25 0.89,0.25 0.25,0 0.48,-0.04 0.7,-0.14 0.22,-0.1 0.42,-0.23 0.59,-0.43 0.18,-0.19 0.33,-0.44 0.45,-0.74 0.11,-0.29 0.21,-0.63 0.25,-1.03 l 0.26,-2.42 -0.01,0 c -0.12,0.33 -0.28,0.62 -0.45,0.89 -0.17,0.26 -0.34,0.49 -0.54,0.69 -0.18,0.19 -0.37,0.33 -0.58,0.44 -0.19,0.1 -0.38,0.15 -0.56,0.15 -0.15,0 -0.3,-0.04 -0.45,-0.15 -0.15,-0.1 -0.28,-0.25 -0.4,-0.45 -0.11,-0.19 -0.21,-0.45 -0.29,-0.76 -0.07,-0.3 -0.11,-0.67 -0.11,-1.09 0,-0.66 0.1,-1.26 0.28,-1.8 0.18,-0.55 0.43,-1.02 0.74,-1.4 0.3,-0.38 0.67,-0.69 1.09,-0.91 0.41,-0.21 0.85,-0.32 1.32,-0.32 0.28,0 0.55,0.03 0.82,0.07 0.27,0.04 0.54,0.08 0.77,0.15 l -0.54,2.64 c -0.03,0.16 -0.06,0.36 -0.08,0.61 z m -0.96,-2.69 c -0.11,-0.01 -0.22,-0.01 -0.34,-0.01 -0.26,0 -0.52,0.07 -0.76,0.21 -0.25,0.15 -0.47,0.37 -0.66,0.66 -0.19,0.29 -0.33,0.66 -0.45,1.1 -0.11,0.44 -0.16,0.95 -0.16,1.54 0,0.3 0.03,0.55 0.07,0.76 0.04,0.22 0.08,0.38 0.15,0.52 0.07,0.12 0.15,0.22 0.23,0.29 0.08,0.07 0.17,0.1 0.25,0.1 0.14,0 0.3,-0.05 0.47,-0.18 0.18,-0.11 0.34,-0.29 0.5,-0.54 0.16,-0.23 0.31,-0.54 0.44,-0.89 0.14,-0.37 0.23,-0.8 0.3,-1.29 l 0.31,-2.2 c -0.11,-0.04 -0.22,-0.07 -0.35,-0.07 z"
         id="path5637" /><path
         inkscape:connector-curvature="0"
         d="m 141.44,60.27 c 0.04,0.05 0.05,0.12 0.05,0.21 0,0.17 -0.05,0.32 -0.15,0.47 -0.11,0.15 -0.25,0.28 -0.43,0.38 -0.18,0.11 -0.4,0.19 -0.63,0.26 -0.25,0.07 -0.51,0.1 -0.78,0.1 -0.29,0 -0.56,-0.04 -0.8,-0.14 -0.25,-0.1 -0.44,-0.25 -0.62,-0.44 -0.17,-0.21 -0.3,-0.45 -0.4,-0.76 -0.1,-0.29 -0.14,-0.65 -0.14,-1.06 0,-0.77 0.08,-1.44 0.26,-2.01 0.18,-0.58 0.4,-1.04 0.67,-1.43 0.29,-0.37 0.59,-0.65 0.93,-0.84 0.34,-0.18 0.67,-0.28 1.02,-0.28 0.47,0 0.84,0.11 1.09,0.36 0.25,0.23 0.38,0.59 0.38,1.06 0,0.4 -0.1,0.77 -0.29,1.09 -0.19,0.33 -0.44,0.6 -0.74,0.82 -0.31,0.23 -0.66,0.4 -1.06,0.52 -0.38,0.12 -0.8,0.18 -1.19,0.18 0,0.41 0.03,0.76 0.08,1.03 0.05,0.26 0.12,0.47 0.23,0.63 0.11,0.15 0.23,0.26 0.38,0.32 0.15,0.05 0.33,0.08 0.54,0.08 0.12,0 0.25,-0.01 0.4,-0.05 0.14,-0.03 0.29,-0.07 0.43,-0.14 0.14,-0.07 0.26,-0.14 0.38,-0.22 0.11,-0.08 0.21,-0.18 0.28,-0.28 0.05,0.04 0.09,0.08 0.11,0.14 z m -0.82,-4.55 c -0.11,-0.14 -0.28,-0.21 -0.47,-0.21 -0.15,0 -0.32,0.05 -0.49,0.19 -0.16,0.12 -0.33,0.3 -0.47,0.52 -0.15,0.23 -0.27,0.51 -0.37,0.84 -0.1,0.32 -0.14,0.67 -0.14,1.07 0.3,0 0.59,-0.04 0.85,-0.12 0.26,-0.08 0.48,-0.19 0.67,-0.34 0.19,-0.15 0.33,-0.33 0.44,-0.55 0.11,-0.22 0.15,-0.45 0.15,-0.72 0.01,-0.32 -0.05,-0.54 -0.17,-0.68 z"
         id="path5639" /><path
         inkscape:connector-curvature="0"
         d="m 150.27,60.87 c 0.12,0.1 0.27,0.18 0.49,0.22 l 0,0.23 c -0.15,0.08 -0.33,0.15 -0.51,0.19 -0.19,0.04 -0.38,0.07 -0.59,0.07 -0.22,0 -0.38,-0.05 -0.51,-0.16 -0.11,-0.11 -0.16,-0.26 -0.16,-0.47 0,-0.1 0.01,-0.22 0.03,-0.36 0.01,-0.15 0.03,-0.3 0.04,-0.45 0.03,-0.16 0.04,-0.32 0.07,-0.47 0.01,-0.15 0.03,-0.27 0.05,-0.38 l 0.23,-1.37 c 0.01,-0.11 0.04,-0.23 0.05,-0.36 0.01,-0.12 0.03,-0.25 0.05,-0.37 0.01,-0.14 0.03,-0.25 0.03,-0.37 0.01,-0.11 0.01,-0.22 0.01,-0.32 0,-0.27 -0.04,-0.48 -0.14,-0.6 -0.1,-0.12 -0.22,-0.19 -0.37,-0.19 -0.21,0 -0.41,0.08 -0.63,0.23 -0.21,0.15 -0.41,0.37 -0.6,0.63 -0.18,0.28 -0.33,0.58 -0.47,0.95 -0.12,0.36 -0.21,0.74 -0.22,1.15 l -0.14,2.8 -1.22,0 c 0.01,-0.08 0.03,-0.18 0.05,-0.29 0.01,-0.11 0.03,-0.22 0.04,-0.33 0.03,-0.11 0.04,-0.23 0.05,-0.33 0.01,-0.11 0.01,-0.21 0.03,-0.29 l 0.34,-2.4 c 0.01,-0.11 0.01,-0.22 0.03,-0.33 0.01,-0.11 0.03,-0.22 0.04,-0.34 0.01,-0.11 0.03,-0.22 0.03,-0.33 0.01,-0.1 0.01,-0.19 0.01,-0.28 0,-0.3 -0.04,-0.52 -0.15,-0.66 -0.1,-0.12 -0.23,-0.19 -0.41,-0.19 -0.19,0 -0.4,0.08 -0.62,0.26 -0.22,0.16 -0.43,0.41 -0.62,0.71 -0.19,0.3 -0.34,0.66 -0.48,1.09 -0.14,0.43 -0.21,0.89 -0.22,1.39 l -0.08,2.32 -1.17,0 0.69,-5.92 -0.84,-0.26 0,-0.26 c 0.22,-0.08 0.44,-0.14 0.66,-0.18 0.21,-0.04 0.45,-0.06 0.7,-0.06 0.1,0 0.18,0.01 0.27,0.03 0.1,0.01 0.19,0.03 0.29,0.07 l -0.4,2.12 0.01,0 c 0.15,-0.34 0.32,-0.66 0.51,-0.93 0.18,-0.28 0.37,-0.51 0.58,-0.7 0.21,-0.19 0.43,-0.34 0.65,-0.45 0.23,-0.1 0.47,-0.15 0.71,-0.15 0.3,0 0.54,0.1 0.71,0.27 0.16,0.18 0.25,0.41 0.25,0.69 0,0.12 -0.01,0.25 -0.03,0.38 -0.01,0.12 -0.03,0.23 -0.06,0.33 l -0.14,0.49 0.01,0 c 0.12,-0.28 0.28,-0.55 0.47,-0.81 0.18,-0.26 0.38,-0.49 0.6,-0.69 0.22,-0.21 0.44,-0.37 0.67,-0.49 0.22,-0.11 0.45,-0.18 0.66,-0.18 0.15,0 0.29,0.03 0.43,0.08 0.12,0.05 0.23,0.14 0.33,0.23 0.1,0.11 0.16,0.23 0.22,0.38 0.05,0.16 0.08,0.33 0.08,0.54 0,0.26 -0.03,0.54 -0.07,0.84 -0.04,0.31 -0.08,0.63 -0.14,0.95 l -0.21,1.25 c -0.01,0.1 -0.03,0.19 -0.04,0.32 -0.03,0.12 -0.04,0.25 -0.06,0.38 -0.01,0.12 -0.03,0.23 -0.04,0.36 -0.01,0.11 -0.01,0.21 -0.01,0.29 0.02,0.24 0.07,0.39 0.18,0.48 z"
         id="path5641" /><path
         inkscape:connector-curvature="0"
         d="m 155.71,60.27 c 0.04,0.05 0.05,0.12 0.05,0.21 0,0.17 -0.05,0.32 -0.15,0.47 -0.11,0.15 -0.25,0.28 -0.43,0.38 -0.18,0.11 -0.4,0.19 -0.63,0.26 -0.25,0.07 -0.51,0.1 -0.78,0.1 -0.29,0 -0.56,-0.04 -0.8,-0.14 -0.25,-0.1 -0.44,-0.25 -0.62,-0.44 -0.16,-0.21 -0.3,-0.45 -0.4,-0.76 -0.1,-0.29 -0.14,-0.65 -0.14,-1.06 0,-0.77 0.08,-1.44 0.26,-2.01 0.18,-0.58 0.4,-1.04 0.67,-1.43 0.29,-0.37 0.59,-0.65 0.93,-0.84 0.34,-0.18 0.67,-0.28 1.02,-0.28 0.47,0 0.84,0.11 1.09,0.36 0.25,0.23 0.38,0.59 0.38,1.06 0,0.4 -0.1,0.77 -0.29,1.09 -0.19,0.33 -0.44,0.6 -0.74,0.82 -0.32,0.23 -0.66,0.4 -1.06,0.52 -0.38,0.12 -0.8,0.18 -1.2,0.18 0,0.41 0.03,0.76 0.08,1.03 0.05,0.26 0.12,0.47 0.23,0.63 0.11,0.15 0.23,0.26 0.38,0.32 0.15,0.05 0.33,0.08 0.54,0.08 0.12,0 0.25,-0.01 0.4,-0.05 0.14,-0.03 0.29,-0.07 0.43,-0.14 0.14,-0.07 0.26,-0.14 0.38,-0.22 0.11,-0.08 0.21,-0.18 0.28,-0.28 0.05,0.04 0.09,0.08 0.12,0.14 z m -0.82,-4.55 c -0.11,-0.14 -0.28,-0.21 -0.47,-0.21 -0.15,0 -0.32,0.05 -0.5,0.19 -0.16,0.12 -0.33,0.3 -0.47,0.52 -0.15,0.23 -0.28,0.51 -0.37,0.84 -0.1,0.32 -0.14,0.67 -0.14,1.07 0.3,0 0.59,-0.04 0.85,-0.12 0.26,-0.08 0.48,-0.19 0.67,-0.34 0.19,-0.15 0.33,-0.33 0.44,-0.55 0.11,-0.22 0.15,-0.45 0.15,-0.72 0.01,-0.32 -0.04,-0.54 -0.16,-0.68 z"
         id="path5643" /><path
         inkscape:connector-curvature="0"
         d="m 161.82,56.41 c -0.01,0.14 -0.04,0.29 -0.05,0.44 -0.03,0.15 -0.05,0.3 -0.07,0.47 -0.03,0.15 -0.04,0.3 -0.07,0.45 l -0.25,1.48 c -0.01,0.08 -0.01,0.16 -0.03,0.27 -0.01,0.1 -0.03,0.19 -0.04,0.3 -0.01,0.11 -0.03,0.21 -0.03,0.3 -0.01,0.11 -0.01,0.19 -0.01,0.26 0,0.23 0.05,0.4 0.16,0.49 0.11,0.11 0.26,0.18 0.48,0.22 l 0,0.23 c -0.15,0.08 -0.33,0.15 -0.51,0.19 -0.18,0.04 -0.37,0.07 -0.59,0.07 -0.22,0 -0.38,-0.05 -0.49,-0.16 -0.12,-0.11 -0.18,-0.26 -0.18,-0.47 0,-0.08 0.01,-0.19 0.01,-0.32 0.01,-0.11 0.03,-0.25 0.04,-0.37 0.01,-0.14 0.04,-0.27 0.05,-0.4 0.01,-0.14 0.04,-0.26 0.05,-0.37 l 0.26,-1.58 c 0.01,-0.11 0.03,-0.22 0.05,-0.34 0.01,-0.12 0.03,-0.25 0.04,-0.37 0.01,-0.12 0.03,-0.25 0.03,-0.36 0.01,-0.11 0.01,-0.22 0.01,-0.32 0,-0.15 -0.01,-0.27 -0.04,-0.38 -0.04,-0.11 -0.08,-0.19 -0.14,-0.26 -0.06,-0.05 -0.12,-0.11 -0.19,-0.14 -0.07,-0.03 -0.15,-0.04 -0.23,-0.04 -0.19,0 -0.4,0.08 -0.62,0.26 -0.22,0.18 -0.43,0.41 -0.6,0.73 -0.19,0.3 -0.36,0.67 -0.48,1.08 -0.14,0.43 -0.21,0.88 -0.22,1.36 l -0.08,2.32 -1.17,0 0.69,-5.92 -0.84,-0.26 0,-0.26 c 0.22,-0.08 0.44,-0.14 0.66,-0.18 0.21,-0.04 0.45,-0.06 0.7,-0.06 0.1,0 0.18,0.01 0.27,0.03 0.1,0.01 0.19,0.03 0.29,0.07 l -0.44,2.1 0.01,0 c 0.15,-0.36 0.33,-0.66 0.52,-0.94 0.19,-0.28 0.38,-0.51 0.6,-0.7 0.21,-0.19 0.43,-0.33 0.66,-0.44 0.22,-0.1 0.45,-0.15 0.69,-0.15 0.15,0 0.3,0.03 0.43,0.08 0.14,0.05 0.25,0.14 0.34,0.23 0.1,0.11 0.18,0.25 0.23,0.4 0.05,0.15 0.08,0.34 0.08,0.55 0.03,0.15 0.03,0.27 0.02,0.41 z"
         id="path5645" /><path
         inkscape:connector-curvature="0"
         d="m 166.86,60.27 c 0.04,0.05 0.05,0.12 0.05,0.21 0,0.17 -0.05,0.32 -0.15,0.47 -0.11,0.15 -0.25,0.28 -0.43,0.38 -0.18,0.11 -0.4,0.19 -0.63,0.26 -0.25,0.07 -0.51,0.1 -0.78,0.1 -0.29,0 -0.56,-0.04 -0.8,-0.14 -0.25,-0.1 -0.44,-0.25 -0.62,-0.44 -0.16,-0.21 -0.3,-0.45 -0.4,-0.76 -0.1,-0.29 -0.14,-0.65 -0.14,-1.06 0,-0.77 0.08,-1.44 0.26,-2.01 0.18,-0.58 0.4,-1.04 0.67,-1.43 0.29,-0.37 0.59,-0.65 0.93,-0.84 0.34,-0.18 0.67,-0.28 1.02,-0.28 0.47,0 0.84,0.11 1.09,0.36 0.25,0.23 0.38,0.59 0.38,1.06 0,0.4 -0.1,0.77 -0.29,1.09 -0.19,0.33 -0.44,0.6 -0.74,0.82 -0.32,0.23 -0.66,0.4 -1.06,0.52 -0.38,0.12 -0.8,0.18 -1.2,0.18 0,0.41 0.03,0.76 0.08,1.03 0.05,0.26 0.12,0.47 0.23,0.63 0.11,0.15 0.23,0.26 0.38,0.32 0.15,0.05 0.33,0.08 0.54,0.08 0.12,0 0.25,-0.01 0.4,-0.05 0.14,-0.03 0.29,-0.07 0.43,-0.14 0.14,-0.07 0.26,-0.14 0.38,-0.22 0.11,-0.08 0.21,-0.18 0.28,-0.28 0.05,0.04 0.09,0.08 0.12,0.14 z m -0.82,-4.55 c -0.11,-0.14 -0.28,-0.21 -0.47,-0.21 -0.15,0 -0.32,0.05 -0.5,0.19 -0.16,0.12 -0.33,0.3 -0.47,0.52 -0.15,0.23 -0.28,0.51 -0.37,0.84 -0.1,0.32 -0.14,0.67 -0.14,1.07 0.3,0 0.59,-0.04 0.85,-0.12 0.26,-0.08 0.48,-0.19 0.67,-0.34 0.19,-0.15 0.33,-0.33 0.44,-0.55 0.11,-0.22 0.15,-0.45 0.15,-0.72 0.01,-0.32 -0.04,-0.54 -0.16,-0.68 z"
         id="path5647" /><path
         inkscape:connector-curvature="0"
         d="m 173.39,60.75 c 0.33,0 0.59,-0.07 0.77,-0.21 0.19,-0.14 0.36,-0.37 0.48,-0.69 l 0.11,-0.26 0.47,0 -0.32,1.88 -5.28,0 0,-0.29 4.55,-7.72 -2.02,0 c -0.15,0 -0.28,0.01 -0.4,0.05 -0.12,0.03 -0.23,0.08 -0.33,0.15 -0.1,0.08 -0.19,0.18 -0.27,0.3 -0.1,0.11 -0.18,0.26 -0.28,0.44 l -0.1,0.19 -0.43,0 0.29,-1.87 4.96,0 0,0.29 -4.52,7.72 2.32,0 z"
         id="path5649" /><path
         inkscape:connector-curvature="0"
         d="m 180.4,58.03 c -0.04,0.23 -0.07,0.48 -0.1,0.71 -0.03,0.25 -0.05,0.48 -0.07,0.7 -0.01,0.22 -0.03,0.4 -0.03,0.55 0,0.22 0.01,0.4 0.03,0.54 0.03,0.14 0.07,0.25 0.11,0.33 0.05,0.07 0.12,0.14 0.21,0.16 0.08,0.04 0.19,0.07 0.32,0.08 l 0,0.29 c -0.18,0.07 -0.38,0.11 -0.59,0.15 -0.21,0.03 -0.43,0.05 -0.63,0.05 -0.11,0 -0.22,-0.01 -0.3,-0.03 -0.1,-0.01 -0.19,-0.04 -0.28,-0.07 l 0.32,-2.05 -0.01,0 c -0.14,0.34 -0.29,0.65 -0.45,0.92 -0.18,0.27 -0.36,0.51 -0.55,0.7 -0.18,0.19 -0.37,0.33 -0.56,0.44 -0.19,0.1 -0.38,0.15 -0.58,0.15 -0.15,0 -0.32,-0.05 -0.45,-0.15 -0.15,-0.11 -0.29,-0.26 -0.41,-0.47 -0.11,-0.21 -0.21,-0.45 -0.28,-0.76 -0.07,-0.3 -0.1,-0.65 -0.1,-1.04 0,-0.71 0.08,-1.33 0.28,-1.9 0.19,-0.55 0.44,-1.02 0.77,-1.4 0.32,-0.38 0.69,-0.67 1.1,-0.87 0.43,-0.21 0.87,-0.3 1.35,-0.3 0.11,0 0.22,0.01 0.36,0.01 0.12,0.01 0.26,0.03 0.4,0.06 0.12,0.01 0.26,0.04 0.4,0.07 0.12,0.01 0.25,0.06 0.36,0.08 l -0.47,2.4 c -0.06,0.21 -0.1,0.41 -0.15,0.65 z m -0.93,-2.46 c -0.14,-0.01 -0.26,-0.01 -0.36,-0.01 -0.29,0 -0.55,0.07 -0.8,0.22 -0.25,0.14 -0.47,0.36 -0.66,0.66 -0.18,0.29 -0.33,0.66 -0.45,1.09 -0.11,0.44 -0.17,0.96 -0.17,1.54 0,0.29 0.03,0.55 0.07,0.76 0.04,0.21 0.1,0.38 0.15,0.52 0.07,0.12 0.15,0.22 0.23,0.29 0.08,0.07 0.16,0.1 0.25,0.1 0.14,0 0.3,-0.05 0.47,-0.18 0.16,-0.11 0.33,-0.29 0.48,-0.52 0.15,-0.22 0.3,-0.52 0.43,-0.87 0.14,-0.36 0.25,-0.77 0.33,-1.24 l 0.37,-2.28 c -0.09,-0.04 -0.2,-0.07 -0.34,-0.08 z"
         id="path5651" /><path
         inkscape:connector-curvature="0"
         d="m 182.13,51.82 c 0.22,-0.08 0.43,-0.14 0.64,-0.17 0.22,-0.04 0.48,-0.05 0.76,-0.05 0.11,0 0.22,0 0.33,0.01 0.1,0.03 0.19,0.04 0.29,0.07 l -0.8,6.03 0.01,0 0.77,-0.6 c 0.14,-0.11 0.29,-0.26 0.45,-0.44 0.15,-0.19 0.29,-0.4 0.43,-0.62 0.15,-0.21 0.27,-0.44 0.37,-0.67 0.11,-0.23 0.19,-0.47 0.25,-0.67 0.34,0 0.58,0.04 0.71,0.12 0.14,0.08 0.21,0.19 0.21,0.33 0,0.12 -0.05,0.29 -0.15,0.47 -0.1,0.19 -0.23,0.38 -0.41,0.58 -0.16,0.21 -0.37,0.41 -0.59,0.62 -0.23,0.21 -0.47,0.38 -0.73,0.56 l -0.59,0.41 1.73,2.65 c 0.11,0.18 0.25,0.32 0.38,0.44 0.14,0.11 0.3,0.21 0.51,0.3 l 0,0.23 c -0.12,0.08 -0.26,0.14 -0.38,0.16 -0.12,0.03 -0.29,0.04 -0.47,0.04 -0.1,0 -0.21,-0.01 -0.3,-0.04 -0.1,-0.03 -0.19,-0.08 -0.29,-0.14 -0.1,-0.07 -0.19,-0.16 -0.28,-0.27 -0.1,-0.11 -0.18,-0.25 -0.27,-0.41 l -1.42,-2.61 -0.01,0 -0.23,3.32 -1.18,0 0.55,-3.59 0.56,-5.55 -0.85,-0.26 0,-0.25 z"
         id="path5653" /><path
         inkscape:connector-curvature="0"
         d="m 190.92,60.27 c 0.04,0.05 0.05,0.12 0.05,0.21 0,0.17 -0.05,0.32 -0.15,0.47 -0.11,0.15 -0.25,0.28 -0.43,0.38 -0.18,0.11 -0.4,0.19 -0.63,0.26 -0.25,0.07 -0.51,0.1 -0.78,0.1 -0.29,0 -0.56,-0.04 -0.8,-0.14 -0.25,-0.1 -0.44,-0.25 -0.62,-0.44 -0.16,-0.21 -0.3,-0.45 -0.4,-0.76 -0.1,-0.29 -0.14,-0.65 -0.14,-1.06 0,-0.77 0.08,-1.44 0.26,-2.01 0.18,-0.58 0.4,-1.04 0.67,-1.43 0.29,-0.37 0.59,-0.65 0.93,-0.84 0.34,-0.18 0.67,-0.28 1.02,-0.28 0.47,0 0.84,0.11 1.09,0.36 0.25,0.23 0.38,0.59 0.38,1.06 0,0.4 -0.1,0.77 -0.29,1.09 -0.19,0.33 -0.44,0.6 -0.74,0.82 -0.32,0.23 -0.66,0.4 -1.06,0.52 -0.38,0.12 -0.8,0.18 -1.2,0.18 0,0.41 0.03,0.76 0.08,1.03 0.05,0.26 0.12,0.47 0.23,0.63 0.11,0.15 0.23,0.26 0.38,0.32 0.15,0.05 0.33,0.08 0.54,0.08 0.12,0 0.25,-0.01 0.4,-0.05 0.14,-0.03 0.29,-0.07 0.43,-0.14 0.14,-0.07 0.26,-0.14 0.38,-0.22 0.11,-0.08 0.21,-0.18 0.28,-0.28 0.05,0.04 0.09,0.08 0.12,0.14 z m -0.82,-4.55 c -0.11,-0.14 -0.27,-0.21 -0.47,-0.21 -0.15,0 -0.32,0.05 -0.5,0.19 -0.16,0.12 -0.33,0.3 -0.47,0.52 -0.15,0.23 -0.28,0.51 -0.37,0.84 -0.1,0.32 -0.14,0.67 -0.14,1.07 0.3,0 0.59,-0.04 0.85,-0.12 0.26,-0.08 0.48,-0.19 0.67,-0.34 0.19,-0.15 0.33,-0.33 0.44,-0.55 0.11,-0.22 0.15,-0.45 0.15,-0.72 0.02,-0.32 -0.04,-0.54 -0.16,-0.68 z"
         id="path5655" /><path
         inkscape:connector-curvature="0"
         d="m 197.03,56.41 c -0.01,0.14 -0.04,0.29 -0.05,0.44 -0.03,0.15 -0.05,0.3 -0.07,0.47 -0.03,0.15 -0.04,0.3 -0.07,0.45 l -0.25,1.48 c -0.01,0.08 -0.01,0.16 -0.03,0.27 -0.01,0.1 -0.03,0.19 -0.04,0.3 -0.01,0.11 -0.03,0.21 -0.03,0.3 -0.01,0.11 -0.01,0.19 -0.01,0.26 0,0.23 0.05,0.4 0.16,0.49 0.11,0.11 0.26,0.18 0.48,0.22 l 0,0.23 c -0.15,0.08 -0.33,0.15 -0.51,0.19 -0.18,0.04 -0.37,0.07 -0.59,0.07 -0.22,0 -0.38,-0.05 -0.49,-0.16 -0.12,-0.11 -0.18,-0.26 -0.18,-0.47 0,-0.08 0.01,-0.19 0.01,-0.32 0.01,-0.11 0.03,-0.25 0.04,-0.37 0.01,-0.14 0.04,-0.27 0.05,-0.4 0.01,-0.14 0.04,-0.26 0.05,-0.37 l 0.26,-1.58 c 0.01,-0.11 0.03,-0.22 0.05,-0.34 0.01,-0.12 0.03,-0.25 0.04,-0.37 0.01,-0.12 0.03,-0.25 0.03,-0.36 0.01,-0.11 0.01,-0.22 0.01,-0.32 0,-0.15 -0.01,-0.27 -0.04,-0.38 -0.04,-0.11 -0.08,-0.19 -0.14,-0.26 -0.06,-0.05 -0.12,-0.11 -0.19,-0.14 -0.07,-0.03 -0.15,-0.04 -0.23,-0.04 -0.19,0 -0.4,0.08 -0.62,0.26 -0.22,0.18 -0.43,0.41 -0.6,0.73 -0.19,0.3 -0.36,0.67 -0.48,1.08 -0.14,0.43 -0.21,0.88 -0.22,1.36 l -0.08,2.32 -1.17,0 0.69,-5.92 -0.84,-0.26 0,-0.26 c 0.22,-0.08 0.44,-0.14 0.66,-0.18 0.21,-0.04 0.45,-0.06 0.7,-0.06 0.1,0 0.18,0.01 0.27,0.03 0.1,0.01 0.19,0.03 0.29,0.07 l -0.44,2.1 0.01,0 c 0.15,-0.36 0.33,-0.66 0.52,-0.94 0.19,-0.28 0.38,-0.51 0.6,-0.7 0.21,-0.19 0.43,-0.33 0.66,-0.44 0.22,-0.1 0.45,-0.15 0.69,-0.15 0.15,0 0.3,0.03 0.43,0.08 0.14,0.05 0.25,0.14 0.34,0.23 0.1,0.11 0.18,0.25 0.23,0.4 0.05,0.15 0.08,0.34 0.08,0.55 0.04,0.15 0.04,0.27 0.02,0.41 z"
         id="path5657" /></g></g></svg>