<?xml version="1.0" standalone="no"?>
<!DOCTYPE svg PUBLIC "-//W3C//DTD SVG 1.1//EN" "http://www.w3.org/Graphics/SVG/1.1/DTD/svg11.dtd" >
<svg xmlns="http://www.w3.org/2000/svg">
<metadata>Generated by IcoMoon</metadata>
<defs>
<font id="icomoon" horiz-adv-x="1024">
<font-face units-per-em="1024" ascent="832" descent="-192" />
<missing-glyph horiz-adv-x="1024" />
<glyph unicode="&#x20;" horiz-adv-x="512" d="" />
<glyph unicode="&#xe800;" glyph-name="notdef" horiz-adv-x="373" d="M33.792-192v681.984h271.36v-681.984h-271.36zM67.584-158.208h203.776v614.4h-203.776v-614.4z" />
<glyph unicode="&#xe801;" glyph-name="uni0001" d="M512 473.6l428.032-428.032h-856.064z" />
<glyph unicode="&#xe802;" glyph-name="uni0002" d="M512 45.568l428.032 428.032h-856.064z" />
<glyph unicode="&#xe803;" glyph-name="uni0003" d="M512 604.672l326.656-326.656h-653.312zM512-170.496l-326.656 326.656h653.312z" />
<glyph unicode="&#xe804;" glyph-name="uni0004" d="M1013.76 473.6l-652.288-656.384-346.112 347.136 109.568 109.568 234.496-234.496 542.72 543.744z" />
<glyph unicode="&#xe805;" glyph-name="numbersign" d="M79.872 216.576l400.384 403.456q13.312 6.144 38.912 6.144t38.912-6.144l387.072-395.264q6.144-15.36 7.168-36.864t-7.168-34.816h-77.824l1.024-338.944h-262.144v284.672h-187.392v-284.672h-248.832v338.944h-90.112q-10.24 12.288-9.216 30.72t9.216 32.768z" />
<glyph unicode="&#xe806;" glyph-name="zero" d="M890.88 832h-890.88v-1024h1024v1024h-133.12zM317.44-160.256q-12.288 82.944 6.144 163.84l64.512 267.264q-17.408 37.888-16.384 78.848-2.048 50.176 26.624 90.112 12.288 16.384 29.696 26.624t37.888 10.24q14.336 0 27.648-5.12t21.504-16.384q19.456-22.528 18.432-52.224-1.024-25.6-6.144-50.176-1.024-8.192-8.192-29.696t-10.24-35.84q-8.192-37.888-18.432-61.44-5.12-17.408-1.024-34.816t15.36-31.744 27.648-20.48 33.792-7.168q34.816 0 63.488 19.456t50.176 57.344q44.032 87.040 43.008 184.32 1.024 38.912-13.312 73.728t-43.008 61.44q-30.72 26.624-69.632 40.96t-80.896 11.264q-49.152 6.144-95.232-10.24t-80.896-53.248q-32.768-32.768-50.176-75.776t-17.408-89.088q0-55.296 33.792-97.28 10.24-11.264 6.144-26.624-7.168-19.456-9.216-39.936-4.096-7.168-11.264-12.288t-14.336-1.024q-51.2 22.528-76.8 70.656-27.648 55.296-24.576 115.712 1.024 45.056 16.384 87.040 16.384 44.032 43.008 82.944 28.672 40.96 67.584 73.728 45.056 34.816 100.352 49.152 62.464 20.48 129.024 19.456t128-25.6q54.272-20.48 96.256-60.416 39.936-38.912 60.416-90.112 22.528-49.152 21.504-104.448 2.048-64.512-16.384-125.952t-57.344-114.688q-33.792-45.056-82.944-69.632t-106.496-24.576q-38.912 1.024-72.704 17.408-30.72 16.384-51.2 43.008l-8.192-32.768q-22.528-89.088-23.552-101.376-22.528-71.68-67.584-131.072h-37.888v-13.312h3.072z" />
<glyph unicode="&#xe807;" glyph-name="one" d="M854.016 832h-854.016v-1024h1024v1024h-169.984zM768 451.072v-16.384q0-74.752-27.648-143.36t-80.896-120.832-121.856-80.896-143.36-28.672q-109.568 1.024-201.728 57.344 4.096 0 14.336-1.024t17.408-2.048q44.032 1.024 86.016 16.384t77.824 41.984q-41.984 0-75.776 24.576t-46.080 64.512q4.096 0 12.288-1.024t13.312-2.048q17.408-1.024 34.816 3.072-46.080 9.216-75.776 45.056t-29.696 81.92v3.072q28.672-15.36 60.416-15.36-27.648 17.408-43.008 47.104t-14.336 61.44q-1.024 36.864 19.456 67.584 50.176-62.464 121.856-98.304t149.504-39.936q-4.096 14.336-3.072 28.672 0 26.624 10.24 51.2t27.648 43.008 43.008 28.672 50.176 9.216 52.224-11.264 44.032-30.72q44.032 9.216 82.944 31.744-15.36-47.104-57.344-73.728 38.912 5.12 76.8 19.456-16.384-10.24-43.008-34.816-19.456-17.408-30.72-25.6z" />
<glyph unicode="&#xe808;" glyph-name="two" horiz-adv-x="1263" d="M1263.616 709.12q-52.224-78.848-129.024-134.144v-32.768q1.024-106.496-28.672-208.896-31.744-105.472-92.16-196.608-60.416-95.232-147.456-167.936-93.184-77.824-206.848-118.784-128-44.032-262.144-44.032-105.472 0-206.848 30.72t-190.464 88.064q31.744-3.072 63.488-4.096 88.064-1.024 171.008 27.648t150.528 82.944q-83.968 2.048-151.552 52.224-32.768 22.528-56.32 55.296t-35.84 70.656l7.168-1.024q29.696-3.072 41.984-3.072 34.816 0 67.584 8.192-44.032 9.216-81.92 32.768t-67.584 57.344-45.056 75.776-14.336 87.040v5.12q55.296-30.72 118.784-32.768-53.248 34.816-84.992 91.136-30.72 60.416-29.696 128t34.816 126.976q98.304-120.832 236.544-190.464 141.312-71.68 299.008-79.872-6.144 29.696-6.144 59.392-2.048 51.2 17.408 98.304t55.296 82.944 82.944 56.32 99.328 21.504q54.272 1.024 103.424-20.48t84.992-61.44q88.064 16.384 163.84 62.464-14.336-45.056-44.032-81.92t-70.656-61.44q79.872 8.192 153.6 38.912z" />
<glyph unicode="&#xe809;" glyph-name="three" d="M1024 832h-1024v-1024h1024v1024zM288.768 160.256q-44.032 0-80.896 21.504t-58.368 58.368-21.504 79.872 21.504 79.872 58.368 58.368 80.896 21.504 79.872-21.504 58.368-58.368 21.504-79.872-21.504-79.872-58.368-58.368-79.872-21.504zM735.232 160.256q-43.008 0-79.872 21.504t-58.368 58.368-21.504 79.872 21.504 79.872 58.368 58.368 80.896 21.504 79.872-21.504 58.368-58.368 21.504-79.872-21.504-79.872-58.368-58.368-80.896-21.504z" />
<glyph unicode="&#xe80a;" glyph-name="four" d="M0 832h1024v-1024h-1024v1024zM839.68 454.144q-5.12 36.864-26.624 67.584-13.312 13.312-30.72 21.504t-36.864 7.168q-59.392 5.12-152.576 7.168l-80.896 1.024-81.92-1.024q-94.208-2.048-152.576-7.168-39.936-1.024-67.584-28.672-22.528-30.72-27.648-67.584-7.168-54.272-8.192-108.544v-51.2q1.024-54.272 8.192-108.544 5.12-36.864 27.648-67.584 15.36-14.336 34.816-21.504t39.936-7.168q33.792-4.096 135.168-6.144l93.184-2.048 81.92 1.024q94.208 2.048 153.6 7.168 39.936 1.024 67.584 28.672 22.528 30.72 26.624 67.584 8.192 54.272 8.192 108.544v51.2q-3.072 54.272-11.264 108.544zM442.368 233.984v188.416l181.248-96.256z" />
<glyph unicode="&#xe80b;" glyph-name="five" d="M0 832h1024v-1024h-1024v1024zM512 613.888h145.408q34.816 0 67.584-11.264 23.552-10.24 41.984-28.672t27.648-43.008q12.288-30.72 11.264-64.512 2.048-37.888 2.048-144.384t-2.048-145.408q0-34.816-11.264-67.584-8.192-25.6-26.624-44.032t-43.008-27.648q-32.768-13.312-67.584-11.264-39.936-2.048-145.408-2.048t-145.408 2.048q-32.768 0-63.488 11.264-26.624 8.192-45.056 26.624t-27.648 43.008q-12.288 32.768-11.264 67.584-5.12 72.704-3.072 145.408v145.408q1.024 32.768 11.264 63.488 9.216 25.6 27.648 45.056t43.008 27.648q32.768 12.288 67.584 11.264h146.432v1.024zM512 676.352h-148.48q-46.080 0-88.064-17.408-36.864-12.288-64.512-41.984-27.648-26.624-40.96-63.488-16.384-43.008-17.408-88.064v-296.96q0-46.080 17.408-88.064 13.312-36.864 41.984-64.512t65.536-43.008q43.008-16.384 89.088-17.408h240.64q24.576 1.024 53.248 3.072 46.080 1.024 88.064 17.408 36.864 14.336 65.536 41.984t43.008 63.488q16.384 44.032 18.432 90.112-2.048 33.792-2.048 144.384v95.232q-1.024 23.552-3.072 52.224-1.024 46.080-17.408 88.064-14.336 37.888-41.984 67.584t-65.536 43.008q-44.032 16.384-90.112 17.408zM512 503.296q-50.176 0-92.16-24.576t-66.56-66.56-24.576-92.16 24.576-91.136 67.584-67.584 91.136-24.576 92.16 24.576 66.56 67.584 24.576 91.136-24.576 92.16-66.56 66.56-92.16 24.576zM512 200.192q-32.768 0-59.392 16.384t-44.032 44.032-16.384 59.392 16.384 59.392 44.032 44.032 59.392 16.384 59.392-16.384 44.032-44.032 16.384-59.392q0-23.552-9.216-45.056t-25.6-38.912-38.912-26.624-46.080-9.216zM662.528 511.488q0-17.408 12.288-28.672t28.672-12.288 29.696 12.288 12.288 28.672-12.288 29.696-29.696 12.288-28.672-12.288-12.288-29.696z" />
<glyph unicode="&#xe80c;" glyph-name="six" d="M1024 832h-1024v-1024h512v448.512h-128v126.976h128v96.256q0 43.008 21.504 79.872t58.368 58.368 79.872 21.504h159.744v-128h-159.744q-13.312 1.024-22.528-8.192t-9.216-23.552v-96.256h176.128l-32.768-126.976h-143.36v-448.512h384v1024z" />
<glyph unicode="&#xe80d;" glyph-name="seven" horiz-adv-x="495" d="M59.392-192l-59.392 50.176 394.24 461.824-391.168 463.872 55.296 48.128 438.272-512z" />
<glyph unicode="&#xe80e;" glyph-name="eight" horiz-adv-x="495" d="M437.248 832l59.392-50.176-394.24-461.824 391.168-463.872-55.296-48.128-438.272 512z" />
<glyph unicode="&#xe80f;" glyph-name="nine" horiz-adv-x="495" d="M759.808 131.584l-49.152-59.392-462.848 393.216-462.848-391.168-49.152 55.296 512 438.272z" />
<glyph unicode="&#xe810;" glyph-name="colon" horiz-adv-x="495" d="M-264.192 508.416l51.2 59.392 460.8-393.216 464.896 391.168 47.104-55.296-512-438.272z" />
<glyph unicode="&#xe811;" glyph-name="less" d="M190.464 320q0 17.408 6.144 30.72t18.432 26.624l431.104 431.104q12.288 12.288 25.6 18.432t31.744 5.12 30.72-5.12 26.624-18.432l48.128-48.128q12.288-12.288 18.432-27.648t6.144-30.72q0-17.408-5.12-30.72t-19.456-26.624l-317.44-324.608 316.416-316.416q11.264-11.264 17.408-27.648t6.144-29.696q0-17.408-5.12-30.72t-18.432-27.648l-48.128-57.344q-12.288-12.288-25.6-18.432t-31.744-6.144-30.72 6.144-27.648 18.432l-428.032 432.128q-13.312 13.312-19.456 26.624t-6.144 30.72z" />
<glyph unicode="&#xe812;" glyph-name="equal" horiz-adv-x="1091" d="M1092.608 832h-1092.608v-204.8h990.208zM0 217.6h990.208l102.4 204.8h-1092.608v-204.8zM0-192h990.208l102.4 204.8h-1092.608v-204.8z" />
<glyph unicode="&#xe813;" glyph-name="greater" d="M833.536 320q0-18.432-5.12-30.72t-19.456-26.624l-431.104-431.104q-12.288-12.288-25.6-17.408t-30.72-6.144-31.744 6.144-26.624 17.408l-48.128 48.128q-12.288 12.288-18.432 28.672t-6.144 29.696q0 17.408 6.144 30.72t18.432 26.624l317.44 324.608-316.416 315.392q-11.264 11.264-17.408 27.648t-6.144 29.696q0 17.408 6.144 30.72t17.408 26.624l48.128 58.368q12.288 12.288 25.6 18.432t31.744 5.12 31.744-5.12 26.624-18.432l428.032-433.152q13.312-12.288 19.456-24.576t6.144-30.72z" />
<glyph unicode="&#xe814;" glyph-name="question" horiz-adv-x="558" d="M559.104 593.408q1.024-77.824-38.912-145.408-15.36-26.624-49.152-54.272-23.552-18.432-78.848-53.248l-76.8-36.864q-30.72-9.216-47.104-37.888-13.312-21.504-15.36-47.104-3.072-20.48 8.192-37.888 2.048-25.6 15.36-47.104l-153.6-7.168q-24.576 21.504-37.888 52.224-16.384 32.768-16.384 68.608-2.048 25.6 6.144 49.152t24.576 40.96q33.792 53.248 91.136 77.824l84.992 47.104q37.888 21.504 68.608 51.2 10.24 13.312 14.336 29.696t2.048 32.768q-2.048 18.432-12.288 34.816t-26.624 25.6q-50.176 25.6-105.472 21.504-54.272 2.048-107.52-8.192-56.32-18.432-108.544-46.080v174.080q63.488 24.576 131.072 38.912t136.192 15.36q57.344 2.048 112.64-13.312t101.376-47.104q37.888-33.792 58.368-79.872t19.456-98.304zM88.064-64q-2.048 25.6 6.144 49.152t24.576 41.984 40.96 28.672 49.152 10.24q25.6 2.048 49.152-6.144t41.984-24.576q18.432-20.48 26.624-46.080t4.096-53.248q2.048-24.576-5.12-48.128t-25.6-43.008-40.96-27.648-49.152-9.216q-24.576-2.048-48.128 6.144t-41.984 24.576q-18.432 19.456-26.624 45.056t-5.12 52.224z" />
<glyph unicode="&#xe815;" glyph-name="C" d="M619.52 832h-215.040q-80.896 1.024-155.648-29.696t-131.072-87.040-88.064-132.096-29.696-155.648q0-105.472 51.2-191.488 49.152-83.968 137.216-135.168 89.088-51.2 198.656-55.296v-198.656q1.024-11.264 7.168-20.48t13.312-13.312 19.456-5.12 19.456 6.144l2.048 1.024q99.328 63.488 188.416 123.904 177.152 117.76 228.352 160.768 73.728 60.416 115.712 146.432t43.008 180.224q1.024 80.896-29.696 155.648t-87.040 132.096-132.096 88.064-155.648 29.696zM816.128 160.256q-38.912-32.768-160.768-114.688-87.040-58.368-190.464-125.952v163.84q0 16.384-11.264 27.648t-27.648 11.264h-20.48q-94.208 0-168.96 39.936t-116.736 108.544-43.008 156.672q0 64.512 24.576 125.952t70.656 106.496 107.52 70.656 124.928 23.552h215.040q64.512 1.024 124.928-23.552t107.52-70.656 70.656-106.496 23.552-125.952q-2.048-77.824-35.84-147.456t-94.208-119.808z" />
<glyph unicode="&#xe816;" glyph-name="D" d="M819.2 383.488q-12.288 15.36-31.744 17.408t-36.864-9.216l-153.6-101.376v340.992q0 38.912-30.72 57.344-25.6 15.36-70.656 15.36t-74.752-15.36q-36.864-19.456-36.864-57.344v-340.992l-153.6 101.376q-15.36 13.312-34.816 11.264t-32.768-18.432-13.312-34.816 8.192-33.792l290.816-362.496q6.144-10.24 18.432-15.36t24.576-6.144q20.48 0 40.96 21.504l290.816 362.496q12.288 16.384 11.264 35.84t-15.36 31.744z" />
<glyph unicode="&#xe817;" glyph-name="E" d="M163.84 252.416q12.288-15.36 31.744-16.384t36.864 8.192l153.6 101.376v-340.992q0-38.912 30.72-57.344 25.6-15.36 70.656-15.36t74.752 15.36q36.864 19.456 36.864 57.344v340.992l153.6-101.376q15.36-13.312 35.84-10.24t32.768 18.432 13.312 33.792-9.216 33.792l-290.816 362.496q-6.144 10.24-17.408 16.384t-25.6 5.12q-20.48 0-40.96-21.504l-290.816-362.496q-12.288-16.384-10.24-34.816t14.336-32.768z" />
<glyph unicode="&#xe818;" glyph-name="F" d="M425.984 645.632q-15.36-12.288-16.384-31.744t8.192-36.864l101.376-153.6h-340.992q-38.912 0-57.344-30.72-15.36-25.6-15.36-70.656t15.36-74.752q19.456-36.864 57.344-36.864h340.992l-101.376-153.6q-13.312-15.36-10.24-34.816t18.432-32.768 33.792-13.312 33.792 8.192l362.496 290.816q10.24 6.144 16.384 18.432t5.12 24.576q0 20.48-21.504 40.96l-362.496 290.816q-16.384 12.288-34.816 11.264t-32.768-15.36z" />
<glyph unicode="&#xe819;" glyph-name="G" d="M557.056-9.728q15.36 12.288 17.408 31.744t-9.216 36.864l-101.376 153.6h340.992q38.912 0 57.344 30.72 15.36 25.6 15.36 70.656t-15.36 74.752q-19.456 36.864-57.344 36.864h-340.992l101.376 153.6q13.312 15.36 11.264 35.84t-18.432 32.768-34.816 13.312-33.792-9.216l-362.496-290.816q-10.24-6.144-15.36-17.408t-6.144-25.6q0-20.48 21.504-40.96l362.496-290.816q16.384-12.288 35.84-10.24t31.744 14.336z" />
<glyph unicode="&#xe81a;" glyph-name="M" horiz-adv-x="656" d="M328.704 832q-65.536 2.048-126.976-22.528t-107.52-70.656-71.68-108.544-22.528-126.976q0-51.2 15.36-101.376 14.336-43.008 40.96-91.136 17.408-29.696 56.32-91.136l1.024-1.024q114.688-173.056 167.936-374.784 4.096-15.36 17.408-25.6t29.696-10.24 29.696 10.24 17.408 25.6q53.248 201.728 166.912 374.784l5.12 8.192q37.888 60.416 54.272 89.088 26.624 48.128 38.912 89.088 15.36 48.128 15.36 98.304 2.048 65.536-22.528 126.976t-70.656 108.544-107.52 70.656-126.976 22.528zM328.704 316.928q-56.32 0-103.424 31.744t-68.608 82.944-11.264 107.52 51.2 96.256 96.256 51.2 107.52-11.264 82.944-68.608 30.72-104.448q0-50.176-24.576-93.184t-67.584-67.584-93.184-24.576zM236.544 502.272q0-37.888 27.648-64.512t64.512-26.624 64.512 26.624 26.624 64.512-26.624 65.536-64.512 26.624-64.512-26.624-27.648-65.536z" />
<glyph unicode="&#xe81b;" glyph-name="O" d="M995.328 803.328q-12.288 14.336-30.72 22.528t-36.864 6.144h-732.16q-20.48 0-37.888-7.168t-29.696-21.504q-16.384-12.288-24.576-29.696t-7.168-37.888v-93.184q0-34.816 31.744-66.56 26.624-27.648 67.584-32.768l345.088 4.096-512-518.144q-14.336-12.288-21.504-29.696t-7.168-36.864 7.168-37.888 21.504-30.72l57.344-54.272q27.648-31.744 70.656-31.744 18.432-2.048 36.864 6.144t30.72 22.528l518.144 518.144 3.072-348.16q0-19.456 7.168-36.864t21.504-30.72q34.816-28.672 67.584-28.672h79.872q19.456 0 37.888 8.192t29.696 20.48q13.312 12.288 21.504 30.72t7.168 36.864v729.088q4.096 19.456-2.048 37.888t-20.48 29.696z" />
<glyph unicode="&#xe81c;" glyph-name="P" horiz-adv-x="767" d="M0 832h256v-1024h-256v1024zM512 832h256v-1024h-256v1024z" />
<glyph unicode="&#xe81d;" glyph-name="T" horiz-adv-x="818" d="M51.2-140.8q0-21.504 15.36-35.84t35.84-15.36h614.4q20.48 0 35.84 15.36t15.36 35.84v665.6h-716.8v-665.6zM563.2 422.4h102.4v-460.8l-102.4-51.2v512zM358.4 422.4h102.4v-460.8l-102.4-51.2v512zM153.6 422.4h102.4v-460.8l-102.4-51.2v512zM768 729.6h-153.6v51.2q0 21.504-15.36 36.864t-35.84 14.336h-307.2q-20.48 0-35.84-14.336t-15.36-36.864v-51.2h-153.6q-21.504 0-35.84-14.336t-15.36-36.864v-102.4h819.2v102.4q0 21.504-15.36 36.864t-35.84 14.336z" />
<glyph unicode="&#xe81e;" glyph-name="U" d="M596.992 113.152q107.52-25.6 182.272-109.568t86.016-195.584h-707.584q13.312 110.592 87.040 194.56t180.224 110.592v62.464q-65.536 50.176-84.992 147.456-4.096-4.096-9.216-4.096-9.216 0-15.36 14.336t-7.168 32.768 7.168 32.768 15.36 13.312q2.048 0 4.096-1.024 7.168 91.136 58.368 153.6t118.784 61.44q45.056 0 83.968-27.648t63.488-77.824 29.696-109.568q2.048 1.024 4.096 1.024 9.216 0 16.384-13.312t6.144-33.792q0-12.288-3.072-22.528t-8.192-17.408-11.264-6.144q-5.12 0-9.216 4.096-19.456-99.328-87.040-148.48v-61.44z" />
<glyph unicode="&#xe81f;" glyph-name="asciicircum" d="M512 542.208q17.408 0 30.72-5.12t26.624-19.456l431.104-431.104q12.288-12.288 18.432-25.6t5.12-30.72-5.12-31.744-18.432-26.624l-48.128-48.128q-12.288-12.288-27.648-18.432t-30.72-6.144q-17.408 0-30.72 6.144t-26.624 18.432l-324.608 366.592-315.392-365.568q-11.264-11.264-26.624-17.408t-30.72-6.144q-17.408 0-30.72 6.144t-26.624 17.408l-58.368 48.128q-12.288 12.288-17.408 25.6t-6.144 31.744 6.144 31.744 17.408 26.624l433.152 428.032q12.288 13.312 25.6 19.456t29.696 6.144z" />
<glyph unicode="&#xe820;" glyph-name="underscore" d="M512-125.44q17.408 0 30.72 6.144t26.624 18.432l431.104 431.104q12.288 12.288 18.432 25.6t5.12 31.744-5.12 30.72-18.432 26.624l-48.128 48.128q-12.288 12.288-27.648 18.432t-30.72 6.144q-17.408 0-30.72-5.12t-26.624-19.456l-324.608-317.44-315.392 316.416q-11.264 11.264-26.624 17.408t-30.72 6.144q-17.408 0-30.72-5.12t-26.624-18.432l-58.368-48.128q-12.288-12.288-17.408-25.6t-6.144-31.744 6.144-30.72 17.408-27.648l433.152-428.032q12.288-13.312 25.6-19.456t29.696-6.144z" />
<glyph unicode="&#xe821;" glyph-name="a" d="M944.128 433.664h-320.512v318.464q1.024 44.032-31.744 63.488-26.624 16.384-79.872 16.384t-80.896-16.384q-32.768-19.456-32.768-63.488v-320.512h-318.464q-44.032 1.024-63.488-31.744-16.384-26.624-16.384-79.872t16.384-80.896q19.456-32.768 63.488-32.768h320.512v-320.512q0-44.032 32.768-63.488 27.648-16.384 79.872-16.384t80.896 16.384q32.768 20.48 32.768 63.488v320.512h320.512q45.056 0 64.512 33.792 15.36 27.648 15.36 79.872t-17.408 79.872q-21.504 33.792-65.536 33.792z" />
<glyph unicode="&#xe822;" glyph-name="c" d="M983.040 709.12h-142.336l-34.816-117.76q-2.048-7.168-7.168-5.12v122.88q0 68.608-4.096 83.968l-2.048 8.192q-3.072 15.36-6.144 20.48-5.12 10.24-16.384 10.24h-58.368q-13.312 0-19.456-14.336-4.096-8.192-7.168-24.576-3.072-20.48-8.192-83.968h-326.656l-34.816-117.76q-2.048-7.168-8.192-5.12v122.88q0 68.608-3.072 83.968l-2.048 8.192q-3.072 15.36-6.144 20.48-6.144 10.24-17.408 10.24h-57.344q-13.312 0-20.48-14.336-4.096-8.192-6.144-24.576-4.096-20.48-8.192-83.968h-145.408q-17.408 0-28.672-12.288t-12.288-28.672v-819.2q0-17.408 12.288-28.672t28.672-12.288h942.080q17.408 0 29.696 12.288t11.264 28.672v819.2q0 16.384-11.264 28.672t-29.696 12.288zM921.6-90.624h-819.2v533.504h819.2v-533.504zM184.32 340.48h163.84v-122.88h-163.84v122.88zM430.080 340.48h163.84v-122.88h-163.84v122.88zM675.84 340.48h163.84v-122.88h-163.84v122.88zM184.32 135.68h163.84v-122.88h-163.84v122.88zM430.080 135.68h163.84v-122.88h-163.84v122.88zM675.84 135.68h163.84v-122.88h-163.84v122.88z" />
<glyph unicode="&#xe823;" glyph-name="d" horiz-adv-x="905" d="M813.056 550.4q-11.264 15.36-30.72 22.528-14.336 6.144-33.792 7.168-13.312 0-28.672-2.048l-11.264-2.048-155.648-104.448v334.848q1.024 11.264-6.144 19.456t-19.456 6.144h-154.624q-10.24 1.024-18.432-6.144t-7.168-19.456v-334.848l-154.624 104.448-12.288 2.048q-14.336 2.048-27.648 2.048-19.456-1.024-34.816-7.168-18.432-7.168-29.696-22.528-17.408-23.552-17.408-52.224t17.408-52.224q1.024-1.024 40.96-49.152 169.984-206.848 243.712-284.672 30.72-36.864 77.824-51.2 46.080 14.336 75.776 51.2 65.536 71.68 222.208 260.096 60.416 72.704 62.464 73.728 18.432 22.528 19.456 52.224t-17.408 52.224zM905.216-140.8v200.704h-125.952v-75.776q0-10.24-7.168-17.408t-18.432-8.192h-603.136q-10.24 0-17.408 8.192t-8.192 17.408v75.776h-124.928v-200.704q-2.048-21.504 14.336-36.864t36.864-14.336h805.888q21.504-1.024 36.864 14.336t11.264 36.864z" />
<glyph unicode="&#xe824;" glyph-name="h" horiz-adv-x="1086" d="M543.744-192q-43.008 1.024-110.592 41.984t-141.312 110.592q-77.824 73.728-140.288 160.768-69.632 96.256-108.544 193.536-43.008 107.52-43.008 205.824 0 80.896 40.96 153.6 39.936 71.68 106.496 113.664 68.608 44.032 145.408 44.032 82.944 0 155.648-50.176 53.248-37.888 95.232-98.304 43.008 60.416 95.232 98.304 72.704 50.176 156.672 50.176 76.8 0 145.408-44.032 65.536-41.984 105.472-113.664 40.96-72.704 40.96-154.624 0-98.304-43.008-205.824-37.888-96.256-107.52-192.512-62.464-87.040-141.312-160.768-72.704-69.632-141.312-110.592t-110.592-41.984zM292.864 751.104q-55.296 0-103.424-31.744t-78.848-86.016-29.696-113.664q0-88.064 40.96-184.32 34.816-84.992 99.328-169.984 55.296-74.752 124.928-141.312 61.44-59.392 118.784-97.28 54.272-36.864 79.872-36.864t78.848 36.864q56.32 37.888 118.784 97.28 69.632 66.56 124.928 141.312 64.512 86.016 99.328 169.984 39.936 96.256 39.936 184.32 0 60.416-28.672 113.664t-77.824 86.016-104.448 31.744q-60.416 0-115.712-40.96-38.912-29.696-72.704-76.8-16.384-23.552-25.6-43.008-6.144-11.264-15.36-17.408t-22.528-6.144-21.504 6.144-15.36 17.408l-9.216 16.384q-12.288 20.48-26.624 39.936-20.48 26.624-44.032 47.104-28.672 25.6-59.392 39.936-35.84 17.408-74.752 17.408z" />
<glyph unicode="&#xe825;" glyph-name="m" d="M975.872 670.208h-927.744q-20.48 0-33.792-13.312t-14.336-34.816v-607.232q0-20.48 14.336-33.792t33.792-14.336h927.744q20.48 0 34.816 14.336t13.312 33.792v607.232q0 20.48-13.312 34.816t-34.816 13.312zM916.48 573.952l-404.48-266.24-403.456 266.24h807.936zM927.744 62.976l-247.808 188.416q-4.096-4.096-2.048-6.144l141.312-182.272h-611.328l139.264 179.2q5.12 6.144 0 8.192l-250.88-187.392v422.912l394.24-261.12q10.24-7.168 22.528-7.168t20.48 7.168l394.24 261.12v-422.912z" />
<glyph unicode="&#xe826;" glyph-name="o" horiz-adv-x="1546" d="M1534.976 112.128q-13.312 13.312-31.744 13.312t-31.744-13.312l-151.552-151.552v649.216q0 60.416-29.696 112.64t-81.92 80.896-112.64 29.696h-396.288q-12.288 2.048-23.552-3.072t-18.432-17.408-7.168-23.552 7.168-23.552 18.432-16.384 23.552-5.12h396.288q36.864 0 67.584-17.408t49.152-49.152 17.408-67.584v-649.216l-151.552 151.552q-13.312 11.264-30.72 11.264t-29.696-13.312-12.288-29.696 9.216-31.744l228.352-227.328q13.312-13.312 31.744-13.312t31.744 13.312l228.352 227.328q12.288 13.312 12.288 31.744t-12.288 31.744zM846.848-102.912h-395.264q-35.84 0-66.56 18.432t-49.152 48.128-18.432 66.56v649.216l151.552-151.552q13.312-11.264 30.72-10.24t28.672 12.288 13.312 30.72-10.24 30.72l-227.328 227.328q-12.288 13.312-30.72 13.312t-31.744-13.312l-228.352-227.328q-11.264-13.312-10.24-30.72t12.288-30.72 30.72-12.288 30.72 10.24l151.552 151.552v-649.216q0-60.416 30.72-111.616t80.896-80.896 111.616-30.72h395.264q18.432 0 31.744 13.312t13.312 31.744-13.312 31.744-31.744 12.288v1.024z" />
<glyph unicode="&#xe827;" glyph-name="p" horiz-adv-x="767" d="M732.16 256.512l-604.16-434.176q-23.552-13.312-50.176-14.336-30.72-1.024-53.248 20.48t-24.576 51.2v873.472q0 22.528 12.288 40.96t30.72 28.672 43.008 9.216 41.984-10.24l604.16-438.272q26.624-15.36 33.792-44.032t-9.216-55.296q-9.216-14.336-23.552-23.552z" />
<glyph unicode="&#xe828;" glyph-name="s" horiz-adv-x="1056" d="M1024-0.512l-267.264 258.048q48.128 86.016 48.128 184.32-2.048 107.52-57.344 198.656-54.272 89.088-144.384 140.288-93.184 53.248-199.68 51.2-78.848 1.024-152.576-27.648t-130.048-83.968-88.064-126.976-32.768-151.552q1.024-78.848 32.768-150.528t88.064-126.976 130.048-83.968 152.576-28.672q99.328 0 187.392 46.080l268.288-259.072q31.744-30.72 75.776-30.72t75.776 30.72l14.336 14.336q15.36 13.312 24.576 31.744t9.216 38.912-7.168 38.912-21.504 32.768q-2.048 3.072-6.144 4.096zM158.72 441.856q1.024 47.104 20.48 91.136t53.248 77.824 78.848 51.2 92.16 16.384q64.512 1.024 119.808-30.72t89.088-86.016 33.792-119.808q-1.024-48.128-19.456-91.136t-53.248-76.8-78.848-51.2-91.136-16.384q-48.128-1.024-92.16 16.384t-78.848 51.2-54.272 76.8-19.456 90.112v1.024z" />
<glyph unicode="&#xe829;" glyph-name="t" d="M512 832q-139.264 0-258.048-69.632-115.712-68.608-184.32-184.32-69.632-119.808-69.632-258.048t69.632-258.048q68.608-115.712 184.32-184.32 119.808-69.632 258.048-69.632t258.048 69.632q115.712 68.608 184.32 184.32 69.632 119.808 69.632 258.048t-69.632 258.048q-68.608 115.712-184.32 184.32-119.808 69.632-258.048 69.632zM512-64q-104.448 0-193.536 52.224-87.040 51.2-138.24 138.24-52.224 90.112-52.224 193.536t52.224 193.536q51.2 87.040 138.24 138.24 90.112 52.224 193.536 52.224t193.536-52.224q87.040-51.2 138.24-138.24 52.224-90.112 52.224-193.536t-53.248-193.536q-51.2-86.016-137.216-137.216-90.112-52.224-193.536-53.248zM789.504 325.12l-229.376 22.528-16.384 249.856q0 13.312-9.216 22.528t-22.528 9.216-21.504-9.216-10.24-22.528l-21.504-293.888q0-20.48 14.336-34.816t33.792-17.408l282.624 19.456q31.744 3.072 31.744 27.648t-31.744 26.624z" />
<glyph unicode="&#xe82a;" glyph-name="u" horiz-adv-x="890" d="M19.456 245.248q17.408-19.456 43.008-22.528t46.080 11.264l199.68 133.12v-445.44q0-50.176 39.936-73.728 32.768-20.48 95.232-20.48t97.28 20.48q45.056 24.576 45.056 73.728v445.44l199.68-133.12q19.456-17.408 46.080-14.336t43.008 22.528v3.072q15.36 18.432 17.408 44.032t-12.288 44.032l-377.856 471.040q-9.216 13.312-24.576 20.48t-31.744 7.168q-32.768-2.048-54.272-27.648l-376.832-471.040q-15.36-20.48-13.312-45.056t18.432-43.008z" />
<glyph unicode="&#xe82b;" glyph-name="x" d="M868.352 808.448l-356.352-316.416-356.352 316.416q-27.648 24.576-64.512 24.576t-65.536-26.624q-25.6-27.648-26.624-64.512t24.576-65.536l316.416-356.352-316.416-356.352q-24.576-27.648-24.576-64.512t26.624-64.512q27.648-26.624 65.536-26.624t65.536 23.552l355.328 316.416 356.352-316.416q27.648-24.576 65.536-23.552t64.512 26.624q25.6 27.648 25.6 64.512t-25.6 64.512l-314.368 356.352 316.416 356.352q24.576 27.648 24.576 65.536t-27.648 64.512q-26.624 25.6-63.488 26.624t-65.536-24.576z" />
<glyph unicode="&#xe82c;" glyph-name="y" d="M0 245.248v147.456h1024v-147.456h-1024z" />
</font>
</defs>
</svg>
